G04 #@! TF.FileFunction,Soldermask,Bot*
%FSLAX46Y46*%
G04 Gerber Fmt 4.6, Leading zero omitted, Abs format (unit mm)*
G04 Created by KiCad (PCBNEW 4.0.7) date 01/23/18 15:00:53*
%MOMM*%
%LPD*%
G01*
G04 APERTURE LIST*
%ADD10C,0.100000*%
%ADD11C,0.150000*%
%ADD12R,2.400000X2.400000*%
%ADD13C,2.400000*%
%ADD14R,3.900000X3.900000*%
%ADD15O,4.400000X3.900000*%
%ADD16C,3.400000*%
%ADD17O,5.400000X3.400000*%
%ADD18O,4.400000X3.400000*%
%ADD19C,2.200000*%
G04 APERTURE END LIST*
D10*
D11*
X77927200Y-187782200D02*
X77927200Y-187502800D01*
X78435200Y-187782200D02*
X77317600Y-187782200D01*
X123069200Y-40955000D02*
X122713600Y-40955000D01*
X123069200Y-77023000D02*
X123069200Y-40955000D01*
X122688200Y-77023000D02*
X123069200Y-77023000D01*
X71050000Y-40955000D02*
X122866000Y-40955000D01*
X71050000Y-77023000D02*
X71050000Y-40955000D01*
X71050000Y-77023000D02*
X122866000Y-77023000D01*
X116027200Y-180797200D02*
X123012200Y-180797200D01*
X116027200Y-187782200D02*
X116027200Y-180797200D01*
X77927200Y-180797200D02*
X70942200Y-180797200D01*
X77927200Y-187782200D02*
X77927200Y-180797200D01*
X77927200Y-90754200D02*
X70942200Y-90754200D01*
X77927200Y-83769200D02*
X77927200Y-90754200D01*
X116027200Y-90754200D02*
X116027200Y-83769200D01*
X123012200Y-90754200D02*
X116027200Y-90754200D01*
X123012200Y-83769200D02*
X70942200Y-83769200D01*
X123012200Y-187782200D02*
X123012200Y-83769200D01*
X70942200Y-187782200D02*
X123012200Y-187782200D01*
X70942200Y-83769200D02*
X70942200Y-187782200D01*
D12*
X98278800Y-51089600D03*
D13*
X95738800Y-51089600D03*
D14*
X86423500Y-95377000D03*
X86423500Y-89377000D03*
X81723500Y-92377000D03*
D15*
X91502600Y-172311000D03*
X97002600Y-172311000D03*
X102502600Y-172311000D03*
X91502600Y-176911000D03*
X97002600Y-176911000D03*
X102502600Y-176911000D03*
X91502600Y-181511000D03*
X97002600Y-181511000D03*
X102502600Y-181511000D03*
D12*
X73583800Y-64846200D03*
D13*
X73583800Y-67386200D03*
X73583800Y-69926200D03*
X73583800Y-72466200D03*
D12*
X73583800Y-44323000D03*
D13*
X73583800Y-46863000D03*
X73583800Y-49403000D03*
X73583800Y-51943000D03*
D12*
X120548400Y-72491600D03*
D13*
X120548400Y-69951600D03*
X120548400Y-67411600D03*
X120548400Y-64871600D03*
D12*
X120523000Y-44323000D03*
D13*
X120523000Y-46863000D03*
X120523000Y-49403000D03*
X120523000Y-51943000D03*
D12*
X73456800Y-116992400D03*
D13*
X73456800Y-119532400D03*
X73456800Y-122072400D03*
X73456800Y-124612400D03*
D12*
X73469500Y-96456500D03*
D13*
X73469500Y-98996500D03*
X73469500Y-101536500D03*
X73469500Y-104076500D03*
D12*
X120497600Y-124612400D03*
D13*
X120497600Y-122072400D03*
X120497600Y-119532400D03*
X120497600Y-116992400D03*
D12*
X120446800Y-96469200D03*
D13*
X120446800Y-99009200D03*
X120446800Y-101549200D03*
X120446800Y-104089200D03*
X79531200Y-54203600D03*
X82031200Y-54203600D03*
X84531200Y-54203600D03*
D16*
X77631200Y-47203600D03*
X86431200Y-47203600D03*
D13*
X109604800Y-75590400D03*
X112104800Y-75590400D03*
X114604800Y-75590400D03*
D16*
X107704800Y-68590400D03*
X116504800Y-68590400D03*
D13*
X109554000Y-54330600D03*
X112054000Y-54330600D03*
X114554000Y-54330600D03*
D16*
X107654000Y-47330600D03*
X116454000Y-47330600D03*
D17*
X87919700Y-134455900D03*
X87919700Y-150455900D03*
X74919700Y-150455900D03*
X74942700Y-134455900D03*
X106072800Y-150468600D03*
X106072800Y-134468600D03*
X119072800Y-134468600D03*
X119049800Y-150468600D03*
D18*
X97059600Y-68463200D03*
X97059600Y-73163200D03*
X97059600Y-63763200D03*
D19*
X79531200Y-75768200D03*
X82031200Y-75768200D03*
X84531200Y-75768200D03*
D16*
X77631200Y-68768200D03*
X86431200Y-68768200D03*
M02*
