G04 #@! TF.FileFunction,Soldermask,Top*
%FSLAX46Y46*%
G04 Gerber Fmt 4.6, Leading zero omitted, Abs format (unit mm)*
G04 Created by KiCad (PCBNEW 4.0.7) date 01/23/18 15:00:53*
%MOMM*%
%LPD*%
G01*
G04 APERTURE LIST*
%ADD10C,0.100000*%
%ADD11C,0.150000*%
%ADD12R,2.400000X2.400000*%
%ADD13C,2.400000*%
%ADD14R,3.900000X3.900000*%
%ADD15O,4.400000X3.900000*%
%ADD16C,3.400000*%
%ADD17O,5.400000X3.400000*%
%ADD18R,1.650000X1.900000*%
%ADD19R,1.900000X1.650000*%
%ADD20R,1.300000X1.600000*%
%ADD21R,1.600000X1.300000*%
%ADD22R,1.900000X1.700000*%
%ADD23R,1.700000X1.900000*%
%ADD24O,4.400000X3.400000*%
%ADD25R,1.900000X1.000000*%
%ADD26R,1.000000X1.900000*%
%ADD27C,2.200000*%
G04 APERTURE END LIST*
D10*
D11*
X77927200Y-187782200D02*
X77927200Y-187502800D01*
X78435200Y-187782200D02*
X77317600Y-187782200D01*
X123069200Y-40955000D02*
X122713600Y-40955000D01*
X123069200Y-77023000D02*
X123069200Y-40955000D01*
X122688200Y-77023000D02*
X123069200Y-77023000D01*
X71050000Y-40955000D02*
X122866000Y-40955000D01*
X71050000Y-77023000D02*
X71050000Y-40955000D01*
X71050000Y-77023000D02*
X122866000Y-77023000D01*
X116027200Y-180797200D02*
X123012200Y-180797200D01*
X116027200Y-187782200D02*
X116027200Y-180797200D01*
X77927200Y-180797200D02*
X70942200Y-180797200D01*
X77927200Y-187782200D02*
X77927200Y-180797200D01*
X77927200Y-90754200D02*
X70942200Y-90754200D01*
X77927200Y-83769200D02*
X77927200Y-90754200D01*
X116027200Y-90754200D02*
X116027200Y-83769200D01*
X123012200Y-90754200D02*
X116027200Y-90754200D01*
X123012200Y-83769200D02*
X70942200Y-83769200D01*
X123012200Y-187782200D02*
X123012200Y-83769200D01*
X70942200Y-187782200D02*
X123012200Y-187782200D01*
X70942200Y-83769200D02*
X70942200Y-187782200D01*
D12*
X98278800Y-51089600D03*
D13*
X95738800Y-51089600D03*
D14*
X86423500Y-95377000D03*
X86423500Y-89377000D03*
X81723500Y-92377000D03*
D15*
X91502600Y-172311000D03*
X97002600Y-172311000D03*
X102502600Y-172311000D03*
X91502600Y-176911000D03*
X97002600Y-176911000D03*
X102502600Y-176911000D03*
X91502600Y-181511000D03*
X97002600Y-181511000D03*
X102502600Y-181511000D03*
D12*
X73583800Y-64846200D03*
D13*
X73583800Y-67386200D03*
X73583800Y-69926200D03*
X73583800Y-72466200D03*
D12*
X73583800Y-44323000D03*
D13*
X73583800Y-46863000D03*
X73583800Y-49403000D03*
X73583800Y-51943000D03*
D12*
X120548400Y-72491600D03*
D13*
X120548400Y-69951600D03*
X120548400Y-67411600D03*
X120548400Y-64871600D03*
D12*
X120523000Y-44323000D03*
D13*
X120523000Y-46863000D03*
X120523000Y-49403000D03*
X120523000Y-51943000D03*
D12*
X73456800Y-116992400D03*
D13*
X73456800Y-119532400D03*
X73456800Y-122072400D03*
X73456800Y-124612400D03*
D12*
X73469500Y-96456500D03*
D13*
X73469500Y-98996500D03*
X73469500Y-101536500D03*
X73469500Y-104076500D03*
D12*
X120497600Y-124612400D03*
D13*
X120497600Y-122072400D03*
X120497600Y-119532400D03*
X120497600Y-116992400D03*
D12*
X120446800Y-96469200D03*
D13*
X120446800Y-99009200D03*
X120446800Y-101549200D03*
X120446800Y-104089200D03*
X79531200Y-54203600D03*
X82031200Y-54203600D03*
X84531200Y-54203600D03*
D16*
X77631200Y-47203600D03*
X86431200Y-47203600D03*
D13*
X109604800Y-75590400D03*
X112104800Y-75590400D03*
X114604800Y-75590400D03*
D16*
X107704800Y-68590400D03*
X116504800Y-68590400D03*
D13*
X109554000Y-54330600D03*
X112054000Y-54330600D03*
X114554000Y-54330600D03*
D16*
X107654000Y-47330600D03*
X116454000Y-47330600D03*
D17*
X87919700Y-134455900D03*
X87919700Y-150455900D03*
X74919700Y-150455900D03*
X74942700Y-134455900D03*
X106072800Y-150468600D03*
X106072800Y-134468600D03*
X119072800Y-134468600D03*
X119049800Y-150468600D03*
D18*
X109143800Y-174020800D03*
X109143800Y-171520800D03*
D19*
X98278000Y-154940000D03*
X95778000Y-154940000D03*
X90190000Y-158242000D03*
X92690000Y-158242000D03*
D18*
X85572600Y-176129000D03*
X85572600Y-173629000D03*
X107696000Y-116606000D03*
X107696000Y-119106000D03*
X110490000Y-99080000D03*
X110490000Y-101580000D03*
X99060000Y-90658000D03*
X99060000Y-88158000D03*
X107696000Y-111780000D03*
X107696000Y-114280000D03*
D19*
X85110000Y-103378000D03*
X87610000Y-103378000D03*
D18*
X85852000Y-119614000D03*
X85852000Y-117114000D03*
X92710000Y-126258000D03*
X92710000Y-128758000D03*
X97536000Y-93746000D03*
X97536000Y-96246000D03*
D19*
X77744000Y-167640000D03*
X80244000Y-167640000D03*
D18*
X110236000Y-153142000D03*
X110236000Y-150642000D03*
X111252000Y-90658000D03*
X111252000Y-88158000D03*
D20*
X110618000Y-111760000D03*
X113918000Y-111760000D03*
X113918000Y-114300000D03*
X110618000Y-114300000D03*
D21*
X90424000Y-101472000D03*
X90424000Y-98172000D03*
X113030000Y-96900000D03*
X113030000Y-93600000D03*
D22*
X109554000Y-141732000D03*
X106854000Y-141732000D03*
D23*
X101092000Y-141812000D03*
X101092000Y-139112000D03*
D22*
X93392000Y-141732000D03*
X96092000Y-141732000D03*
X98378000Y-151384000D03*
X95678000Y-151384000D03*
X95678000Y-161544000D03*
X98378000Y-161544000D03*
D23*
X85572600Y-181588400D03*
X85572600Y-178888400D03*
X95250000Y-130984000D03*
X95250000Y-133684000D03*
D22*
X102028000Y-124460000D03*
X104728000Y-124460000D03*
X92718900Y-114719100D03*
X95418900Y-114719100D03*
X101934000Y-108394500D03*
X99234000Y-108394500D03*
X95584000Y-104902000D03*
X92884000Y-104902000D03*
X104593400Y-102196900D03*
X107293400Y-102196900D03*
X102028000Y-119634000D03*
X104728000Y-119634000D03*
X101959400Y-102196900D03*
X99259400Y-102196900D03*
D23*
X104902000Y-111680000D03*
X104902000Y-114380000D03*
X107696000Y-127080000D03*
X107696000Y-124380000D03*
D22*
X85010000Y-106426000D03*
X87710000Y-106426000D03*
X102028000Y-116840000D03*
X104728000Y-116840000D03*
D23*
X101854000Y-111680000D03*
X101854000Y-114380000D03*
D22*
X98073200Y-112737900D03*
X95373200Y-112737900D03*
D23*
X88900000Y-119714000D03*
X88900000Y-117014000D03*
X88900000Y-125302000D03*
X88900000Y-122602000D03*
D22*
X82978000Y-125476000D03*
X85678000Y-125476000D03*
X85678000Y-122428000D03*
X82978000Y-122428000D03*
X80184000Y-119634000D03*
X82884000Y-119634000D03*
D23*
X98044000Y-128858000D03*
X98044000Y-126158000D03*
X95504000Y-98472000D03*
X95504000Y-101172000D03*
D22*
X113618000Y-131064000D03*
X110918000Y-131064000D03*
D23*
X105156000Y-90758000D03*
X105156000Y-88058000D03*
X108204000Y-88058000D03*
X108204000Y-90758000D03*
X110490000Y-93900000D03*
X110490000Y-96600000D03*
X102108000Y-88058000D03*
X102108000Y-90758000D03*
D24*
X97059600Y-68463200D03*
X97059600Y-73163200D03*
X97059600Y-63763200D03*
D25*
X83218000Y-165862000D03*
X83218000Y-164592000D03*
X83218000Y-163322000D03*
X83218000Y-162052000D03*
X83218000Y-160782000D03*
X83218000Y-159512000D03*
X83218000Y-158242000D03*
X77818000Y-158242000D03*
X77818000Y-159512000D03*
X77818000Y-160782000D03*
X77818000Y-162052000D03*
X77818000Y-163322000D03*
X77818000Y-164592000D03*
X77818000Y-165862000D03*
X104742000Y-155194000D03*
X104742000Y-156464000D03*
X104742000Y-157734000D03*
X104742000Y-159004000D03*
X104742000Y-160274000D03*
X104742000Y-161544000D03*
X104742000Y-162814000D03*
X110142000Y-162814000D03*
X110142000Y-161544000D03*
X110142000Y-160274000D03*
X110142000Y-159004000D03*
X110142000Y-157734000D03*
X110142000Y-156464000D03*
X110142000Y-155194000D03*
X98096050Y-124098050D03*
X98096050Y-122828050D03*
X98096050Y-121558050D03*
X98096050Y-120288050D03*
X98096050Y-119018050D03*
X98096050Y-117748050D03*
X98096050Y-116478050D03*
X92696050Y-116478050D03*
X92696050Y-117748050D03*
X92696050Y-119018050D03*
X92696050Y-120288050D03*
X92696050Y-121558050D03*
X92696050Y-122828050D03*
X92696050Y-124098050D03*
D26*
X99847400Y-99054900D03*
X101117400Y-99054900D03*
X102387400Y-99054900D03*
X103657400Y-99054900D03*
X104927400Y-99054900D03*
X106197400Y-99054900D03*
X107467400Y-99054900D03*
X107467400Y-93654900D03*
X106197400Y-93654900D03*
X104927400Y-93654900D03*
X103657400Y-93654900D03*
X102387400Y-93654900D03*
X101117400Y-93654900D03*
X99847400Y-93654900D03*
D27*
X79531200Y-75768200D03*
X82031200Y-75768200D03*
X84531200Y-75768200D03*
D16*
X77631200Y-68768200D03*
X86431200Y-68768200D03*
M02*
