G04 #@! TF.FileFunction,Legend,Top*
%FSLAX46Y46*%
G04 Gerber Fmt 4.6, Leading zero omitted, Abs format (unit mm)*
G04 Created by KiCad (PCBNEW 4.0.7) date 01/23/18 15:00:53*
%MOMM*%
%LPD*%
G01*
G04 APERTURE LIST*
%ADD10C,0.100000*%
%ADD11C,0.150000*%
%ADD12C,0.120000*%
G04 APERTURE END LIST*
D10*
D11*
X77927200Y-187782200D02*
X77927200Y-187502800D01*
X78435200Y-187782200D02*
X77317600Y-187782200D01*
X123069200Y-40955000D02*
X122713600Y-40955000D01*
X123069200Y-77023000D02*
X123069200Y-40955000D01*
X122688200Y-77023000D02*
X123069200Y-77023000D01*
X71050000Y-40955000D02*
X122866000Y-40955000D01*
X71050000Y-77023000D02*
X71050000Y-40955000D01*
X71050000Y-77023000D02*
X122866000Y-77023000D01*
X116027200Y-180797200D02*
X123012200Y-180797200D01*
X116027200Y-187782200D02*
X116027200Y-180797200D01*
X77927200Y-180797200D02*
X70942200Y-180797200D01*
X77927200Y-187782200D02*
X77927200Y-180797200D01*
X77927200Y-90754200D02*
X70942200Y-90754200D01*
X77927200Y-83769200D02*
X77927200Y-90754200D01*
X116027200Y-90754200D02*
X116027200Y-83769200D01*
X123012200Y-90754200D02*
X116027200Y-90754200D01*
X123012200Y-83769200D02*
X70942200Y-83769200D01*
X123012200Y-187782200D02*
X123012200Y-83769200D01*
X70942200Y-187782200D02*
X123012200Y-187782200D01*
X70942200Y-83769200D02*
X70942200Y-187782200D01*
D12*
X94018800Y-51089138D02*
G75*
G03X99568800Y-52634430I2990000J-462D01*
G01*
X94018800Y-51090062D02*
G75*
G02X99568800Y-49544770I2990000J462D01*
G01*
X99508800Y-51089600D02*
G75*
G03X99508800Y-51089600I-2500000J0D01*
G01*
X99568800Y-52634600D02*
X99568800Y-49544600D01*
X81823500Y-90377000D02*
X81823500Y-81577000D01*
X81823500Y-81577000D02*
X91023500Y-81577000D01*
X84523500Y-96277000D02*
X81823500Y-96277000D01*
X81823500Y-96277000D02*
X81823500Y-94377000D01*
X91023500Y-81577000D02*
X91023500Y-96277000D01*
X91023500Y-96277000D02*
X88423500Y-96277000D01*
D11*
X88112600Y-168402000D02*
X104622600Y-168402000D01*
X104622600Y-168402000D02*
X105892600Y-168402000D01*
X106019600Y-168021000D02*
X106019600Y-185801000D01*
X105892600Y-185420000D02*
X88112600Y-185420000D01*
X87985600Y-185801000D02*
X87985600Y-168021000D01*
D12*
X72253800Y-73796200D02*
X74913800Y-73796200D01*
X72253800Y-66116200D02*
X72253800Y-73796200D01*
X74913800Y-66116200D02*
X74913800Y-73796200D01*
X72253800Y-66116200D02*
X74913800Y-66116200D01*
X72253800Y-64846200D02*
X72253800Y-63516200D01*
X72253800Y-63516200D02*
X73583800Y-63516200D01*
X72253800Y-53273000D02*
X74913800Y-53273000D01*
X72253800Y-45593000D02*
X72253800Y-53273000D01*
X74913800Y-45593000D02*
X74913800Y-53273000D01*
X72253800Y-45593000D02*
X74913800Y-45593000D01*
X72253800Y-44323000D02*
X72253800Y-42993000D01*
X72253800Y-42993000D02*
X73583800Y-42993000D01*
X121878400Y-63541600D02*
X119218400Y-63541600D01*
X121878400Y-71221600D02*
X121878400Y-63541600D01*
X119218400Y-71221600D02*
X119218400Y-63541600D01*
X121878400Y-71221600D02*
X119218400Y-71221600D01*
X121878400Y-72491600D02*
X121878400Y-73821600D01*
X121878400Y-73821600D02*
X120548400Y-73821600D01*
X119193000Y-53273000D02*
X121853000Y-53273000D01*
X119193000Y-45593000D02*
X119193000Y-53273000D01*
X121853000Y-45593000D02*
X121853000Y-53273000D01*
X119193000Y-45593000D02*
X121853000Y-45593000D01*
X119193000Y-44323000D02*
X119193000Y-42993000D01*
X119193000Y-42993000D02*
X120523000Y-42993000D01*
X72126800Y-125942400D02*
X74786800Y-125942400D01*
X72126800Y-118262400D02*
X72126800Y-125942400D01*
X74786800Y-118262400D02*
X74786800Y-125942400D01*
X72126800Y-118262400D02*
X74786800Y-118262400D01*
X72126800Y-116992400D02*
X72126800Y-115662400D01*
X72126800Y-115662400D02*
X73456800Y-115662400D01*
X72139500Y-105406500D02*
X74799500Y-105406500D01*
X72139500Y-97726500D02*
X72139500Y-105406500D01*
X74799500Y-97726500D02*
X74799500Y-105406500D01*
X72139500Y-97726500D02*
X74799500Y-97726500D01*
X72139500Y-96456500D02*
X72139500Y-95126500D01*
X72139500Y-95126500D02*
X73469500Y-95126500D01*
X121827600Y-115662400D02*
X119167600Y-115662400D01*
X121827600Y-123342400D02*
X121827600Y-115662400D01*
X119167600Y-123342400D02*
X119167600Y-115662400D01*
X121827600Y-123342400D02*
X119167600Y-123342400D01*
X121827600Y-124612400D02*
X121827600Y-125942400D01*
X121827600Y-125942400D02*
X120497600Y-125942400D01*
X119116800Y-105419200D02*
X121776800Y-105419200D01*
X119116800Y-97739200D02*
X119116800Y-105419200D01*
X121776800Y-97739200D02*
X121776800Y-105419200D01*
X119116800Y-97739200D02*
X121776800Y-97739200D01*
X119116800Y-96469200D02*
X119116800Y-95139200D01*
X119116800Y-95139200D02*
X120446800Y-95139200D01*
X79268768Y-45531618D02*
G75*
G02X84793200Y-45530600I2762432J-1171982D01*
G01*
X84328953Y-48631895D02*
G75*
G02X79733200Y-48631600I-2297753J1928295D01*
G01*
X77121200Y-53263600D02*
X77121200Y-49397600D01*
X77121200Y-45008600D02*
X77121200Y-41143600D01*
X86941200Y-53263600D02*
X86941200Y-49397600D01*
X86941200Y-45008600D02*
X86941200Y-41143600D01*
X77121200Y-53263600D02*
X78706200Y-53263600D01*
X80356200Y-53263600D02*
X81206200Y-53263600D01*
X82856200Y-53263600D02*
X83706200Y-53263600D01*
X85356200Y-53263600D02*
X86941200Y-53263600D01*
X77121200Y-41143600D02*
X86941200Y-41143600D01*
X109342368Y-66918418D02*
G75*
G02X114866800Y-66917400I2762432J-1171982D01*
G01*
X114402553Y-70018695D02*
G75*
G02X109806800Y-70018400I-2297753J1928295D01*
G01*
X107194800Y-74650400D02*
X107194800Y-70784400D01*
X107194800Y-66395400D02*
X107194800Y-62530400D01*
X117014800Y-74650400D02*
X117014800Y-70784400D01*
X117014800Y-66395400D02*
X117014800Y-62530400D01*
X107194800Y-74650400D02*
X108779800Y-74650400D01*
X110429800Y-74650400D02*
X111279800Y-74650400D01*
X112929800Y-74650400D02*
X113779800Y-74650400D01*
X115429800Y-74650400D02*
X117014800Y-74650400D01*
X107194800Y-62530400D02*
X117014800Y-62530400D01*
X109291568Y-45658618D02*
G75*
G02X114816000Y-45657600I2762432J-1171982D01*
G01*
X114351753Y-48758895D02*
G75*
G02X109756000Y-48758600I-2297753J1928295D01*
G01*
X107144000Y-53390600D02*
X107144000Y-49524600D01*
X107144000Y-45135600D02*
X107144000Y-41270600D01*
X116964000Y-53390600D02*
X116964000Y-49524600D01*
X116964000Y-45135600D02*
X116964000Y-41270600D01*
X107144000Y-53390600D02*
X108729000Y-53390600D01*
X110379000Y-53390600D02*
X111229000Y-53390600D01*
X112879000Y-53390600D02*
X113729000Y-53390600D01*
X115379000Y-53390600D02*
X116964000Y-53390600D01*
X107144000Y-41270600D02*
X116964000Y-41270600D01*
X108293800Y-172270800D02*
X108293800Y-173270800D01*
X109993800Y-173270800D02*
X109993800Y-172270800D01*
X96528000Y-155790000D02*
X97528000Y-155790000D01*
X97528000Y-154090000D02*
X96528000Y-154090000D01*
X91940000Y-157392000D02*
X90940000Y-157392000D01*
X90940000Y-159092000D02*
X91940000Y-159092000D01*
X84722600Y-174379000D02*
X84722600Y-175379000D01*
X86422600Y-175379000D02*
X86422600Y-174379000D01*
X108546000Y-118356000D02*
X108546000Y-117356000D01*
X106846000Y-117356000D02*
X106846000Y-118356000D01*
X111340000Y-100830000D02*
X111340000Y-99830000D01*
X109640000Y-99830000D02*
X109640000Y-100830000D01*
X98210000Y-88908000D02*
X98210000Y-89908000D01*
X99910000Y-89908000D02*
X99910000Y-88908000D01*
X108546000Y-113530000D02*
X108546000Y-112530000D01*
X106846000Y-112530000D02*
X106846000Y-113530000D01*
X86860000Y-102528000D02*
X85860000Y-102528000D01*
X85860000Y-104228000D02*
X86860000Y-104228000D01*
X85002000Y-117864000D02*
X85002000Y-118864000D01*
X86702000Y-118864000D02*
X86702000Y-117864000D01*
X93560000Y-128008000D02*
X93560000Y-127008000D01*
X91860000Y-127008000D02*
X91860000Y-128008000D01*
X98386000Y-95496000D02*
X98386000Y-94496000D01*
X96686000Y-94496000D02*
X96686000Y-95496000D01*
X79494000Y-166790000D02*
X78494000Y-166790000D01*
X78494000Y-168490000D02*
X79494000Y-168490000D01*
X109386000Y-151392000D02*
X109386000Y-152392000D01*
X111086000Y-152392000D02*
X111086000Y-151392000D01*
X110402000Y-88908000D02*
X110402000Y-89908000D01*
X112102000Y-89908000D02*
X112102000Y-88908000D01*
X110018000Y-110760000D02*
X110018000Y-112760000D01*
X110018000Y-112760000D02*
X113918000Y-112760000D01*
X110018000Y-110760000D02*
X113918000Y-110760000D01*
X114518000Y-115300000D02*
X114518000Y-113300000D01*
X114518000Y-113300000D02*
X110618000Y-113300000D01*
X114518000Y-115300000D02*
X110618000Y-115300000D01*
X89424000Y-102072000D02*
X91424000Y-102072000D01*
X91424000Y-102072000D02*
X91424000Y-98172000D01*
X89424000Y-102072000D02*
X89424000Y-98172000D01*
X112030000Y-97500000D02*
X114030000Y-97500000D01*
X114030000Y-97500000D02*
X114030000Y-93600000D01*
X112030000Y-97500000D02*
X112030000Y-93600000D01*
X107604000Y-140852000D02*
X108804000Y-140852000D01*
X108804000Y-142612000D02*
X107604000Y-142612000D01*
X101972000Y-139862000D02*
X101972000Y-141062000D01*
X100212000Y-141062000D02*
X100212000Y-139862000D01*
X95342000Y-142612000D02*
X94142000Y-142612000D01*
X94142000Y-140852000D02*
X95342000Y-140852000D01*
X96428000Y-150504000D02*
X97628000Y-150504000D01*
X97628000Y-152264000D02*
X96428000Y-152264000D01*
X97628000Y-162424000D02*
X96428000Y-162424000D01*
X96428000Y-160664000D02*
X97628000Y-160664000D01*
X86452600Y-179638400D02*
X86452600Y-180838400D01*
X84692600Y-180838400D02*
X84692600Y-179638400D01*
X94370000Y-132934000D02*
X94370000Y-131734000D01*
X96130000Y-131734000D02*
X96130000Y-132934000D01*
X103978000Y-125340000D02*
X102778000Y-125340000D01*
X102778000Y-123580000D02*
X103978000Y-123580000D01*
X94668900Y-115599100D02*
X93468900Y-115599100D01*
X93468900Y-113839100D02*
X94668900Y-113839100D01*
X99984000Y-107514500D02*
X101184000Y-107514500D01*
X101184000Y-109274500D02*
X99984000Y-109274500D01*
X93634000Y-104022000D02*
X94834000Y-104022000D01*
X94834000Y-105782000D02*
X93634000Y-105782000D01*
X106543400Y-103076900D02*
X105343400Y-103076900D01*
X105343400Y-101316900D02*
X106543400Y-101316900D01*
X103978000Y-120514000D02*
X102778000Y-120514000D01*
X102778000Y-118754000D02*
X103978000Y-118754000D01*
X100009400Y-101316900D02*
X101209400Y-101316900D01*
X101209400Y-103076900D02*
X100009400Y-103076900D01*
X104022000Y-113630000D02*
X104022000Y-112430000D01*
X105782000Y-112430000D02*
X105782000Y-113630000D01*
X108576000Y-125130000D02*
X108576000Y-126330000D01*
X106816000Y-126330000D02*
X106816000Y-125130000D01*
X86960000Y-107306000D02*
X85760000Y-107306000D01*
X85760000Y-105546000D02*
X86960000Y-105546000D01*
X103978000Y-117720000D02*
X102778000Y-117720000D01*
X102778000Y-115960000D02*
X103978000Y-115960000D01*
X100974000Y-113630000D02*
X100974000Y-112430000D01*
X102734000Y-112430000D02*
X102734000Y-113630000D01*
X96123200Y-111857900D02*
X97323200Y-111857900D01*
X97323200Y-113617900D02*
X96123200Y-113617900D01*
X89780000Y-117764000D02*
X89780000Y-118964000D01*
X88020000Y-118964000D02*
X88020000Y-117764000D01*
X89780000Y-123352000D02*
X89780000Y-124552000D01*
X88020000Y-124552000D02*
X88020000Y-123352000D01*
X84928000Y-126356000D02*
X83728000Y-126356000D01*
X83728000Y-124596000D02*
X84928000Y-124596000D01*
X83728000Y-121548000D02*
X84928000Y-121548000D01*
X84928000Y-123308000D02*
X83728000Y-123308000D01*
X82134000Y-120514000D02*
X80934000Y-120514000D01*
X80934000Y-118754000D02*
X82134000Y-118754000D01*
X98924000Y-126908000D02*
X98924000Y-128108000D01*
X97164000Y-128108000D02*
X97164000Y-126908000D01*
X94624000Y-100422000D02*
X94624000Y-99222000D01*
X96384000Y-99222000D02*
X96384000Y-100422000D01*
X111668000Y-130184000D02*
X112868000Y-130184000D01*
X112868000Y-131944000D02*
X111668000Y-131944000D01*
X106036000Y-88808000D02*
X106036000Y-90008000D01*
X104276000Y-90008000D02*
X104276000Y-88808000D01*
X107324000Y-90008000D02*
X107324000Y-88808000D01*
X109084000Y-88808000D02*
X109084000Y-90008000D01*
X109610000Y-95850000D02*
X109610000Y-94650000D01*
X111370000Y-94650000D02*
X111370000Y-95850000D01*
X101228000Y-90008000D02*
X101228000Y-88808000D01*
X102988000Y-88808000D02*
X102988000Y-90008000D01*
D11*
X100107600Y-62113200D02*
X94011600Y-62113200D01*
X100107600Y-74559200D02*
X94011600Y-74559200D01*
X100361600Y-61351200D02*
X100361600Y-75575200D01*
X93757600Y-75575200D02*
X93757600Y-61351200D01*
X82593000Y-166502000D02*
X82593000Y-166477000D01*
X78443000Y-166502000D02*
X78443000Y-166387000D01*
X78443000Y-157602000D02*
X78443000Y-157717000D01*
X82593000Y-157602000D02*
X82593000Y-157717000D01*
X82593000Y-166502000D02*
X78443000Y-166502000D01*
X82593000Y-157602000D02*
X78443000Y-157602000D01*
X82593000Y-166477000D02*
X83968000Y-166477000D01*
X105367000Y-154554000D02*
X105367000Y-154579000D01*
X109517000Y-154554000D02*
X109517000Y-154669000D01*
X109517000Y-163454000D02*
X109517000Y-163339000D01*
X105367000Y-163454000D02*
X105367000Y-163339000D01*
X105367000Y-154554000D02*
X109517000Y-154554000D01*
X105367000Y-163454000D02*
X109517000Y-163454000D01*
X105367000Y-154579000D02*
X103992000Y-154579000D01*
X97471050Y-124738050D02*
X97471050Y-124713050D01*
X93321050Y-124738050D02*
X93321050Y-124623050D01*
X93321050Y-115838050D02*
X93321050Y-115953050D01*
X97471050Y-115838050D02*
X97471050Y-115953050D01*
X97471050Y-124738050D02*
X93321050Y-124738050D01*
X97471050Y-115838050D02*
X93321050Y-115838050D01*
X97471050Y-124713050D02*
X98846050Y-124713050D01*
X99207400Y-98429900D02*
X99232400Y-98429900D01*
X99207400Y-94279900D02*
X99322400Y-94279900D01*
X108107400Y-94279900D02*
X107992400Y-94279900D01*
X108107400Y-98429900D02*
X107992400Y-98429900D01*
X99207400Y-98429900D02*
X99207400Y-94279900D01*
X108107400Y-98429900D02*
X108107400Y-94279900D01*
X99232400Y-98429900D02*
X99232400Y-99804900D01*
D12*
X79268768Y-67096218D02*
G75*
G02X84793200Y-67095200I2762432J-1171982D01*
G01*
X84328953Y-70196495D02*
G75*
G02X79733200Y-70196200I-2297753J1928295D01*
G01*
X77121200Y-74828200D02*
X77121200Y-70962200D01*
X77121200Y-66573200D02*
X77121200Y-62708200D01*
X86941200Y-74828200D02*
X86941200Y-70962200D01*
X86941200Y-66573200D02*
X86941200Y-62708200D01*
X77121200Y-74828200D02*
X78706200Y-74828200D01*
X80356200Y-74828200D02*
X81206200Y-74828200D01*
X82856200Y-74828200D02*
X83706200Y-74828200D01*
X85356200Y-74828200D02*
X86941200Y-74828200D01*
X77121200Y-62708200D02*
X86941200Y-62708200D01*
D11*
X96270705Y-55501981D02*
X96270705Y-54501981D01*
X96508800Y-54501981D01*
X96651658Y-54549600D01*
X96746896Y-54644838D01*
X96794515Y-54740076D01*
X96842134Y-54930552D01*
X96842134Y-55073410D01*
X96794515Y-55263886D01*
X96746896Y-55359124D01*
X96651658Y-55454362D01*
X96508800Y-55501981D01*
X96270705Y-55501981D01*
X97175467Y-54501981D02*
X97794515Y-54501981D01*
X97461181Y-54882933D01*
X97604039Y-54882933D01*
X97699277Y-54930552D01*
X97746896Y-54978171D01*
X97794515Y-55073410D01*
X97794515Y-55311505D01*
X97746896Y-55406743D01*
X97699277Y-55454362D01*
X97604039Y-55501981D01*
X97318324Y-55501981D01*
X97223086Y-55454362D01*
X97175467Y-55406743D01*
X80125881Y-88141285D02*
X80840167Y-88141285D01*
X80983024Y-88188905D01*
X81078262Y-88284143D01*
X81125881Y-88427000D01*
X81125881Y-88522238D01*
X81221119Y-87903190D02*
X81221119Y-87141285D01*
X81125881Y-86903190D02*
X80125881Y-86903190D01*
X80125881Y-86522237D01*
X80173500Y-86426999D01*
X80221119Y-86379380D01*
X80316357Y-86331761D01*
X80459214Y-86331761D01*
X80554452Y-86379380D01*
X80602071Y-86426999D01*
X80649690Y-86522237D01*
X80649690Y-86903190D01*
X81125881Y-85379380D02*
X81125881Y-85950809D01*
X81125881Y-85665095D02*
X80125881Y-85665095D01*
X80268738Y-85760333D01*
X80363976Y-85855571D01*
X80411595Y-85950809D01*
X88974681Y-52848924D02*
X89974681Y-52515591D01*
X88974681Y-52182257D01*
X89974681Y-51277495D02*
X89498490Y-51610829D01*
X89974681Y-51848924D02*
X88974681Y-51848924D01*
X88974681Y-51467971D01*
X89022300Y-51372733D01*
X89069919Y-51325114D01*
X89165157Y-51277495D01*
X89308014Y-51277495D01*
X89403252Y-51325114D01*
X89450871Y-51372733D01*
X89498490Y-51467971D01*
X89498490Y-51848924D01*
X90069919Y-51087019D02*
X90069919Y-50325114D01*
X89688967Y-50134638D02*
X89688967Y-49658447D01*
X89974681Y-50229876D02*
X88974681Y-49896543D01*
X89974681Y-49563209D01*
X88974681Y-49372733D02*
X88974681Y-48801304D01*
X89974681Y-49087019D02*
X88974681Y-49087019D01*
X88974681Y-48610828D02*
X88974681Y-48039399D01*
X89974681Y-48325114D02*
X88974681Y-48325114D01*
X89688967Y-47753685D02*
X89688967Y-47277494D01*
X89974681Y-47848923D02*
X88974681Y-47515590D01*
X89974681Y-47182256D01*
X89879443Y-46277494D02*
X89927062Y-46325113D01*
X89974681Y-46467970D01*
X89974681Y-46563208D01*
X89927062Y-46706066D01*
X89831824Y-46801304D01*
X89736586Y-46848923D01*
X89546110Y-46896542D01*
X89403252Y-46896542D01*
X89212776Y-46848923D01*
X89117538Y-46801304D01*
X89022300Y-46706066D01*
X88974681Y-46563208D01*
X88974681Y-46467970D01*
X89022300Y-46325113D01*
X89069919Y-46277494D01*
X89974681Y-45848923D02*
X88974681Y-45848923D01*
X89974681Y-45277494D02*
X89403252Y-45706066D01*
X88974681Y-45277494D02*
X89546110Y-45848923D01*
X89974681Y-44325113D02*
X89974681Y-44896542D01*
X89974681Y-44610828D02*
X88974681Y-44610828D01*
X89117538Y-44706066D01*
X89212776Y-44801304D01*
X89260395Y-44896542D01*
X104151181Y-70486210D02*
X105151181Y-70152877D01*
X104151181Y-69819543D01*
X105151181Y-68914781D02*
X104674990Y-69248115D01*
X105151181Y-69486210D02*
X104151181Y-69486210D01*
X104151181Y-69105257D01*
X104198800Y-69010019D01*
X104246419Y-68962400D01*
X104341657Y-68914781D01*
X104484514Y-68914781D01*
X104579752Y-68962400D01*
X104627371Y-69010019D01*
X104674990Y-69105257D01*
X104674990Y-69486210D01*
X105246419Y-68724305D02*
X105246419Y-67962400D01*
X105151181Y-67248114D02*
X105151181Y-67724305D01*
X104151181Y-67724305D01*
X105151181Y-66914781D02*
X104151181Y-66914781D01*
X104151181Y-66533828D01*
X104198800Y-66438590D01*
X104246419Y-66390971D01*
X104341657Y-66343352D01*
X104484514Y-66343352D01*
X104579752Y-66390971D01*
X104627371Y-66438590D01*
X104674990Y-66533828D01*
X104674990Y-66914781D01*
X104627371Y-65581447D02*
X104627371Y-65914781D01*
X105151181Y-65914781D02*
X104151181Y-65914781D01*
X104151181Y-65438590D01*
X105151181Y-64533828D02*
X105151181Y-65105257D01*
X105151181Y-64819543D02*
X104151181Y-64819543D01*
X104294038Y-64914781D01*
X104389276Y-65010019D01*
X104436895Y-65105257D01*
X103856381Y-52828219D02*
X104856381Y-52494886D01*
X103856381Y-52161552D01*
X104856381Y-51256790D02*
X104380190Y-51590124D01*
X104856381Y-51828219D02*
X103856381Y-51828219D01*
X103856381Y-51447266D01*
X103904000Y-51352028D01*
X103951619Y-51304409D01*
X104046857Y-51256790D01*
X104189714Y-51256790D01*
X104284952Y-51304409D01*
X104332571Y-51352028D01*
X104380190Y-51447266D01*
X104380190Y-51828219D01*
X104951619Y-51066314D02*
X104951619Y-50304409D01*
X103856381Y-50209171D02*
X103856381Y-49637742D01*
X104856381Y-49923457D02*
X103856381Y-49923457D01*
X104856381Y-49304409D02*
X103856381Y-49304409D01*
X104332571Y-49304409D02*
X104332571Y-48732980D01*
X104856381Y-48732980D02*
X103856381Y-48732980D01*
X104856381Y-47685361D02*
X104380190Y-48018695D01*
X104856381Y-48256790D02*
X103856381Y-48256790D01*
X103856381Y-47875837D01*
X103904000Y-47780599D01*
X103951619Y-47732980D01*
X104046857Y-47685361D01*
X104189714Y-47685361D01*
X104284952Y-47732980D01*
X104332571Y-47780599D01*
X104380190Y-47875837D01*
X104380190Y-48256790D01*
X104332571Y-47256790D02*
X104332571Y-46923456D01*
X104856381Y-46780599D02*
X104856381Y-47256790D01*
X103856381Y-47256790D01*
X103856381Y-46780599D01*
X104808762Y-46399647D02*
X104856381Y-46256790D01*
X104856381Y-46018694D01*
X104808762Y-45923456D01*
X104761143Y-45875837D01*
X104665905Y-45828218D01*
X104570667Y-45828218D01*
X104475429Y-45875837D01*
X104427810Y-45923456D01*
X104380190Y-46018694D01*
X104332571Y-46209171D01*
X104284952Y-46304409D01*
X104237333Y-46352028D01*
X104142095Y-46399647D01*
X104046857Y-46399647D01*
X103951619Y-46352028D01*
X103904000Y-46304409D01*
X103856381Y-46209171D01*
X103856381Y-45971075D01*
X103904000Y-45828218D01*
X104856381Y-45399647D02*
X103856381Y-45399647D01*
X104332571Y-45399647D02*
X104332571Y-44828218D01*
X104856381Y-44828218D02*
X103856381Y-44828218D01*
X104856381Y-43828218D02*
X104856381Y-44399647D01*
X104856381Y-44113933D02*
X103856381Y-44113933D01*
X103999238Y-44209171D01*
X104094476Y-44304409D01*
X104142095Y-44399647D01*
X107750943Y-172937466D02*
X107798562Y-172985085D01*
X107846181Y-173127942D01*
X107846181Y-173223180D01*
X107798562Y-173366038D01*
X107703324Y-173461276D01*
X107608086Y-173508895D01*
X107417610Y-173556514D01*
X107274752Y-173556514D01*
X107084276Y-173508895D01*
X106989038Y-173461276D01*
X106893800Y-173366038D01*
X106846181Y-173223180D01*
X106846181Y-173127942D01*
X106893800Y-172985085D01*
X106941419Y-172937466D01*
X107846181Y-171985085D02*
X107846181Y-172556514D01*
X107846181Y-172270800D02*
X106846181Y-172270800D01*
X106989038Y-172366038D01*
X107084276Y-172461276D01*
X107131895Y-172556514D01*
X96556534Y-153646143D02*
X96508915Y-153693762D01*
X96366058Y-153741381D01*
X96270820Y-153741381D01*
X96127962Y-153693762D01*
X96032724Y-153598524D01*
X95985105Y-153503286D01*
X95937486Y-153312810D01*
X95937486Y-153169952D01*
X95985105Y-152979476D01*
X96032724Y-152884238D01*
X96127962Y-152789000D01*
X96270820Y-152741381D01*
X96366058Y-152741381D01*
X96508915Y-152789000D01*
X96556534Y-152836619D01*
X96937486Y-152836619D02*
X96985105Y-152789000D01*
X97080343Y-152741381D01*
X97318439Y-152741381D01*
X97413677Y-152789000D01*
X97461296Y-152836619D01*
X97508915Y-152931857D01*
X97508915Y-153027095D01*
X97461296Y-153169952D01*
X96889867Y-153741381D01*
X97508915Y-153741381D01*
X91298734Y-156973543D02*
X91251115Y-157021162D01*
X91108258Y-157068781D01*
X91013020Y-157068781D01*
X90870162Y-157021162D01*
X90774924Y-156925924D01*
X90727305Y-156830686D01*
X90679686Y-156640210D01*
X90679686Y-156497352D01*
X90727305Y-156306876D01*
X90774924Y-156211638D01*
X90870162Y-156116400D01*
X91013020Y-156068781D01*
X91108258Y-156068781D01*
X91251115Y-156116400D01*
X91298734Y-156164019D01*
X92155877Y-156402114D02*
X92155877Y-157068781D01*
X91917781Y-156021162D02*
X91679686Y-156735448D01*
X92298734Y-156735448D01*
X92533743Y-172251666D02*
X92581362Y-172299285D01*
X92628981Y-172442142D01*
X92628981Y-172537380D01*
X92581362Y-172680238D01*
X92486124Y-172775476D01*
X92390886Y-172823095D01*
X92200410Y-172870714D01*
X92057552Y-172870714D01*
X91867076Y-172823095D01*
X91771838Y-172775476D01*
X91676600Y-172680238D01*
X91628981Y-172537380D01*
X91628981Y-172442142D01*
X91676600Y-172299285D01*
X91724219Y-172251666D01*
X91628981Y-171346904D02*
X91628981Y-171823095D01*
X92105171Y-171870714D01*
X92057552Y-171823095D01*
X92009933Y-171727857D01*
X92009933Y-171489761D01*
X92057552Y-171394523D01*
X92105171Y-171346904D01*
X92200410Y-171299285D01*
X92438505Y-171299285D01*
X92533743Y-171346904D01*
X92581362Y-171394523D01*
X92628981Y-171489761D01*
X92628981Y-171727857D01*
X92581362Y-171823095D01*
X92533743Y-171870714D01*
X109558093Y-118257616D02*
X109605712Y-118305235D01*
X109653331Y-118448092D01*
X109653331Y-118543330D01*
X109605712Y-118686188D01*
X109510474Y-118781426D01*
X109415236Y-118829045D01*
X109224760Y-118876664D01*
X109081902Y-118876664D01*
X108891426Y-118829045D01*
X108796188Y-118781426D01*
X108700950Y-118686188D01*
X108653331Y-118543330D01*
X108653331Y-118448092D01*
X108700950Y-118305235D01*
X108748569Y-118257616D01*
X108653331Y-117400473D02*
X108653331Y-117590950D01*
X108700950Y-117686188D01*
X108748569Y-117733807D01*
X108891426Y-117829045D01*
X109081902Y-117876664D01*
X109462855Y-117876664D01*
X109558093Y-117829045D01*
X109605712Y-117781426D01*
X109653331Y-117686188D01*
X109653331Y-117495711D01*
X109605712Y-117400473D01*
X109558093Y-117352854D01*
X109462855Y-117305235D01*
X109224760Y-117305235D01*
X109129521Y-117352854D01*
X109081902Y-117400473D01*
X109034283Y-117495711D01*
X109034283Y-117686188D01*
X109081902Y-117781426D01*
X109129521Y-117829045D01*
X109224760Y-117876664D01*
X112371143Y-100242666D02*
X112418762Y-100290285D01*
X112466381Y-100433142D01*
X112466381Y-100528380D01*
X112418762Y-100671238D01*
X112323524Y-100766476D01*
X112228286Y-100814095D01*
X112037810Y-100861714D01*
X111894952Y-100861714D01*
X111704476Y-100814095D01*
X111609238Y-100766476D01*
X111514000Y-100671238D01*
X111466381Y-100528380D01*
X111466381Y-100433142D01*
X111514000Y-100290285D01*
X111561619Y-100242666D01*
X111466381Y-99909333D02*
X111466381Y-99242666D01*
X112466381Y-99671238D01*
X99417143Y-86272666D02*
X99464762Y-86320285D01*
X99512381Y-86463142D01*
X99512381Y-86558380D01*
X99464762Y-86701238D01*
X99369524Y-86796476D01*
X99274286Y-86844095D01*
X99083810Y-86891714D01*
X98940952Y-86891714D01*
X98750476Y-86844095D01*
X98655238Y-86796476D01*
X98560000Y-86701238D01*
X98512381Y-86558380D01*
X98512381Y-86463142D01*
X98560000Y-86320285D01*
X98607619Y-86272666D01*
X98940952Y-85701238D02*
X98893333Y-85796476D01*
X98845714Y-85844095D01*
X98750476Y-85891714D01*
X98702857Y-85891714D01*
X98607619Y-85844095D01*
X98560000Y-85796476D01*
X98512381Y-85701238D01*
X98512381Y-85510761D01*
X98560000Y-85415523D01*
X98607619Y-85367904D01*
X98702857Y-85320285D01*
X98750476Y-85320285D01*
X98845714Y-85367904D01*
X98893333Y-85415523D01*
X98940952Y-85510761D01*
X98940952Y-85701238D01*
X98988571Y-85796476D01*
X99036190Y-85844095D01*
X99131429Y-85891714D01*
X99321905Y-85891714D01*
X99417143Y-85844095D01*
X99464762Y-85796476D01*
X99512381Y-85701238D01*
X99512381Y-85510761D01*
X99464762Y-85415523D01*
X99417143Y-85367904D01*
X99321905Y-85320285D01*
X99131429Y-85320285D01*
X99036190Y-85367904D01*
X98988571Y-85415523D01*
X98940952Y-85510761D01*
X107510284Y-110447093D02*
X107462665Y-110494712D01*
X107319808Y-110542331D01*
X107224570Y-110542331D01*
X107081712Y-110494712D01*
X106986474Y-110399474D01*
X106938855Y-110304236D01*
X106891236Y-110113760D01*
X106891236Y-109970902D01*
X106938855Y-109780426D01*
X106986474Y-109685188D01*
X107081712Y-109589950D01*
X107224570Y-109542331D01*
X107319808Y-109542331D01*
X107462665Y-109589950D01*
X107510284Y-109637569D01*
X107986474Y-110542331D02*
X108176950Y-110542331D01*
X108272189Y-110494712D01*
X108319808Y-110447093D01*
X108415046Y-110304236D01*
X108462665Y-110113760D01*
X108462665Y-109732807D01*
X108415046Y-109637569D01*
X108367427Y-109589950D01*
X108272189Y-109542331D01*
X108081712Y-109542331D01*
X107986474Y-109589950D01*
X107938855Y-109637569D01*
X107891236Y-109732807D01*
X107891236Y-109970902D01*
X107938855Y-110066140D01*
X107986474Y-110113760D01*
X108081712Y-110161379D01*
X108272189Y-110161379D01*
X108367427Y-110113760D01*
X108415046Y-110066140D01*
X108462665Y-109970902D01*
X85945743Y-102084143D02*
X85898124Y-102131762D01*
X85755267Y-102179381D01*
X85660029Y-102179381D01*
X85517171Y-102131762D01*
X85421933Y-102036524D01*
X85374314Y-101941286D01*
X85326695Y-101750810D01*
X85326695Y-101607952D01*
X85374314Y-101417476D01*
X85421933Y-101322238D01*
X85517171Y-101227000D01*
X85660029Y-101179381D01*
X85755267Y-101179381D01*
X85898124Y-101227000D01*
X85945743Y-101274619D01*
X86898124Y-102179381D02*
X86326695Y-102179381D01*
X86612409Y-102179381D02*
X86612409Y-101179381D01*
X86517171Y-101322238D01*
X86421933Y-101417476D01*
X86326695Y-101465095D01*
X87517171Y-101179381D02*
X87612410Y-101179381D01*
X87707648Y-101227000D01*
X87755267Y-101274619D01*
X87802886Y-101369857D01*
X87850505Y-101560333D01*
X87850505Y-101798429D01*
X87802886Y-101988905D01*
X87755267Y-102084143D01*
X87707648Y-102131762D01*
X87612410Y-102179381D01*
X87517171Y-102179381D01*
X87421933Y-102131762D01*
X87374314Y-102084143D01*
X87326695Y-101988905D01*
X87279076Y-101798429D01*
X87279076Y-101560333D01*
X87326695Y-101369857D01*
X87374314Y-101274619D01*
X87421933Y-101227000D01*
X87517171Y-101179381D01*
X87739493Y-117921007D02*
X87787112Y-117968626D01*
X87834731Y-118111483D01*
X87834731Y-118206721D01*
X87787112Y-118349579D01*
X87691874Y-118444817D01*
X87596636Y-118492436D01*
X87406160Y-118540055D01*
X87263302Y-118540055D01*
X87072826Y-118492436D01*
X86977588Y-118444817D01*
X86882350Y-118349579D01*
X86834731Y-118206721D01*
X86834731Y-118111483D01*
X86882350Y-117968626D01*
X86929969Y-117921007D01*
X87834731Y-116968626D02*
X87834731Y-117540055D01*
X87834731Y-117254341D02*
X86834731Y-117254341D01*
X86977588Y-117349579D01*
X87072826Y-117444817D01*
X87120445Y-117540055D01*
X87834731Y-116016245D02*
X87834731Y-116587674D01*
X87834731Y-116301960D02*
X86834731Y-116301960D01*
X86977588Y-116397198D01*
X87072826Y-116492436D01*
X87120445Y-116587674D01*
X91479643Y-128849357D02*
X91527262Y-128896976D01*
X91574881Y-129039833D01*
X91574881Y-129135071D01*
X91527262Y-129277929D01*
X91432024Y-129373167D01*
X91336786Y-129420786D01*
X91146310Y-129468405D01*
X91003452Y-129468405D01*
X90812976Y-129420786D01*
X90717738Y-129373167D01*
X90622500Y-129277929D01*
X90574881Y-129135071D01*
X90574881Y-129039833D01*
X90622500Y-128896976D01*
X90670119Y-128849357D01*
X91574881Y-127896976D02*
X91574881Y-128468405D01*
X91574881Y-128182691D02*
X90574881Y-128182691D01*
X90717738Y-128277929D01*
X90812976Y-128373167D01*
X90860595Y-128468405D01*
X90670119Y-127516024D02*
X90622500Y-127468405D01*
X90574881Y-127373167D01*
X90574881Y-127135071D01*
X90622500Y-127039833D01*
X90670119Y-126992214D01*
X90765357Y-126944595D01*
X90860595Y-126944595D01*
X91003452Y-126992214D01*
X91574881Y-127563643D01*
X91574881Y-126944595D01*
X96343743Y-94660957D02*
X96391362Y-94708576D01*
X96438981Y-94851433D01*
X96438981Y-94946671D01*
X96391362Y-95089529D01*
X96296124Y-95184767D01*
X96200886Y-95232386D01*
X96010410Y-95280005D01*
X95867552Y-95280005D01*
X95677076Y-95232386D01*
X95581838Y-95184767D01*
X95486600Y-95089529D01*
X95438981Y-94946671D01*
X95438981Y-94851433D01*
X95486600Y-94708576D01*
X95534219Y-94660957D01*
X96438981Y-93708576D02*
X96438981Y-94280005D01*
X96438981Y-93994291D02*
X95438981Y-93994291D01*
X95581838Y-94089529D01*
X95677076Y-94184767D01*
X95724695Y-94280005D01*
X95438981Y-93375243D02*
X95438981Y-92756195D01*
X95819933Y-93089529D01*
X95819933Y-92946671D01*
X95867552Y-92851433D01*
X95915171Y-92803814D01*
X96010410Y-92756195D01*
X96248505Y-92756195D01*
X96343743Y-92803814D01*
X96391362Y-92851433D01*
X96438981Y-92946671D01*
X96438981Y-93232386D01*
X96391362Y-93327624D01*
X96343743Y-93375243D01*
X78351143Y-169775143D02*
X78303524Y-169822762D01*
X78160667Y-169870381D01*
X78065429Y-169870381D01*
X77922571Y-169822762D01*
X77827333Y-169727524D01*
X77779714Y-169632286D01*
X77732095Y-169441810D01*
X77732095Y-169298952D01*
X77779714Y-169108476D01*
X77827333Y-169013238D01*
X77922571Y-168918000D01*
X78065429Y-168870381D01*
X78160667Y-168870381D01*
X78303524Y-168918000D01*
X78351143Y-168965619D01*
X79303524Y-169870381D02*
X78732095Y-169870381D01*
X79017809Y-169870381D02*
X79017809Y-168870381D01*
X78922571Y-169013238D01*
X78827333Y-169108476D01*
X78732095Y-169156095D01*
X80160667Y-169203714D02*
X80160667Y-169870381D01*
X79922571Y-168822762D02*
X79684476Y-169537048D01*
X80303524Y-169537048D01*
X112218743Y-152026857D02*
X112266362Y-152074476D01*
X112313981Y-152217333D01*
X112313981Y-152312571D01*
X112266362Y-152455429D01*
X112171124Y-152550667D01*
X112075886Y-152598286D01*
X111885410Y-152645905D01*
X111742552Y-152645905D01*
X111552076Y-152598286D01*
X111456838Y-152550667D01*
X111361600Y-152455429D01*
X111313981Y-152312571D01*
X111313981Y-152217333D01*
X111361600Y-152074476D01*
X111409219Y-152026857D01*
X112313981Y-151074476D02*
X112313981Y-151645905D01*
X112313981Y-151360191D02*
X111313981Y-151360191D01*
X111456838Y-151455429D01*
X111552076Y-151550667D01*
X111599695Y-151645905D01*
X111313981Y-150169714D02*
X111313981Y-150645905D01*
X111790171Y-150693524D01*
X111742552Y-150645905D01*
X111694933Y-150550667D01*
X111694933Y-150312571D01*
X111742552Y-150217333D01*
X111790171Y-150169714D01*
X111885410Y-150122095D01*
X112123505Y-150122095D01*
X112218743Y-150169714D01*
X112266362Y-150217333D01*
X112313981Y-150312571D01*
X112313981Y-150550667D01*
X112266362Y-150645905D01*
X112218743Y-150693524D01*
X111355143Y-86240857D02*
X111402762Y-86288476D01*
X111450381Y-86431333D01*
X111450381Y-86526571D01*
X111402762Y-86669429D01*
X111307524Y-86764667D01*
X111212286Y-86812286D01*
X111021810Y-86859905D01*
X110878952Y-86859905D01*
X110688476Y-86812286D01*
X110593238Y-86764667D01*
X110498000Y-86669429D01*
X110450381Y-86526571D01*
X110450381Y-86431333D01*
X110498000Y-86288476D01*
X110545619Y-86240857D01*
X111450381Y-85288476D02*
X111450381Y-85859905D01*
X111450381Y-85574191D02*
X110450381Y-85574191D01*
X110593238Y-85669429D01*
X110688476Y-85764667D01*
X110736095Y-85859905D01*
X110450381Y-84431333D02*
X110450381Y-84621810D01*
X110498000Y-84717048D01*
X110545619Y-84764667D01*
X110688476Y-84859905D01*
X110878952Y-84907524D01*
X111259905Y-84907524D01*
X111355143Y-84859905D01*
X111402762Y-84812286D01*
X111450381Y-84717048D01*
X111450381Y-84526571D01*
X111402762Y-84431333D01*
X111355143Y-84383714D01*
X111259905Y-84336095D01*
X111021810Y-84336095D01*
X110926571Y-84383714D01*
X110878952Y-84431333D01*
X110831333Y-84526571D01*
X110831333Y-84717048D01*
X110878952Y-84812286D01*
X110926571Y-84859905D01*
X111021810Y-84907524D01*
X109653331Y-112644145D02*
X108653331Y-112644145D01*
X108653331Y-112406050D01*
X108700950Y-112263192D01*
X108796188Y-112167954D01*
X108891426Y-112120335D01*
X109081902Y-112072716D01*
X109224760Y-112072716D01*
X109415236Y-112120335D01*
X109510474Y-112167954D01*
X109605712Y-112263192D01*
X109653331Y-112406050D01*
X109653331Y-112644145D01*
X109653331Y-111120335D02*
X109653331Y-111691764D01*
X109653331Y-111406050D02*
X108653331Y-111406050D01*
X108796188Y-111501288D01*
X108891426Y-111596526D01*
X108939045Y-111691764D01*
X115717581Y-115038095D02*
X114717581Y-115038095D01*
X114717581Y-114800000D01*
X114765200Y-114657142D01*
X114860438Y-114561904D01*
X114955676Y-114514285D01*
X115146152Y-114466666D01*
X115289010Y-114466666D01*
X115479486Y-114514285D01*
X115574724Y-114561904D01*
X115669962Y-114657142D01*
X115717581Y-114800000D01*
X115717581Y-115038095D01*
X114812819Y-114085714D02*
X114765200Y-114038095D01*
X114717581Y-113942857D01*
X114717581Y-113704761D01*
X114765200Y-113609523D01*
X114812819Y-113561904D01*
X114908057Y-113514285D01*
X115003295Y-113514285D01*
X115146152Y-113561904D01*
X115717581Y-114133333D01*
X115717581Y-113514285D01*
X89685905Y-103385881D02*
X89685905Y-102385881D01*
X89924000Y-102385881D01*
X90066858Y-102433500D01*
X90162096Y-102528738D01*
X90209715Y-102623976D01*
X90257334Y-102814452D01*
X90257334Y-102957310D01*
X90209715Y-103147786D01*
X90162096Y-103243024D01*
X90066858Y-103338262D01*
X89924000Y-103385881D01*
X89685905Y-103385881D01*
X91114477Y-102719214D02*
X91114477Y-103385881D01*
X90876381Y-102338262D02*
X90638286Y-103052548D01*
X91257334Y-103052548D01*
X115488981Y-96038895D02*
X114488981Y-96038895D01*
X114488981Y-95800800D01*
X114536600Y-95657942D01*
X114631838Y-95562704D01*
X114727076Y-95515085D01*
X114917552Y-95467466D01*
X115060410Y-95467466D01*
X115250886Y-95515085D01*
X115346124Y-95562704D01*
X115441362Y-95657942D01*
X115488981Y-95800800D01*
X115488981Y-96038895D01*
X114488981Y-94562704D02*
X114488981Y-95038895D01*
X114965171Y-95086514D01*
X114917552Y-95038895D01*
X114869933Y-94943657D01*
X114869933Y-94705561D01*
X114917552Y-94610323D01*
X114965171Y-94562704D01*
X115060410Y-94515085D01*
X115298505Y-94515085D01*
X115393743Y-94562704D01*
X115441362Y-94610323D01*
X115488981Y-94705561D01*
X115488981Y-94943657D01*
X115441362Y-95038895D01*
X115393743Y-95086514D01*
X108037334Y-143884381D02*
X107704000Y-143408190D01*
X107465905Y-143884381D02*
X107465905Y-142884381D01*
X107846858Y-142884381D01*
X107942096Y-142932000D01*
X107989715Y-142979619D01*
X108037334Y-143074857D01*
X108037334Y-143217714D01*
X107989715Y-143312952D01*
X107942096Y-143360571D01*
X107846858Y-143408190D01*
X107465905Y-143408190D01*
X108989715Y-143884381D02*
X108418286Y-143884381D01*
X108704000Y-143884381D02*
X108704000Y-142884381D01*
X108608762Y-143027238D01*
X108513524Y-143122476D01*
X108418286Y-143170095D01*
X99893381Y-140552466D02*
X99417190Y-140885800D01*
X99893381Y-141123895D02*
X98893381Y-141123895D01*
X98893381Y-140742942D01*
X98941000Y-140647704D01*
X98988619Y-140600085D01*
X99083857Y-140552466D01*
X99226714Y-140552466D01*
X99321952Y-140600085D01*
X99369571Y-140647704D01*
X99417190Y-140742942D01*
X99417190Y-141123895D01*
X98988619Y-140171514D02*
X98941000Y-140123895D01*
X98893381Y-140028657D01*
X98893381Y-139790561D01*
X98941000Y-139695323D01*
X98988619Y-139647704D01*
X99083857Y-139600085D01*
X99179095Y-139600085D01*
X99321952Y-139647704D01*
X99893381Y-140219133D01*
X99893381Y-139600085D01*
X94524534Y-143886181D02*
X94191200Y-143409990D01*
X93953105Y-143886181D02*
X93953105Y-142886181D01*
X94334058Y-142886181D01*
X94429296Y-142933800D01*
X94476915Y-142981419D01*
X94524534Y-143076657D01*
X94524534Y-143219514D01*
X94476915Y-143314752D01*
X94429296Y-143362371D01*
X94334058Y-143409990D01*
X93953105Y-143409990D01*
X94857867Y-142886181D02*
X95476915Y-142886181D01*
X95143581Y-143267133D01*
X95286439Y-143267133D01*
X95381677Y-143314752D01*
X95429296Y-143362371D01*
X95476915Y-143457610D01*
X95476915Y-143695705D01*
X95429296Y-143790943D01*
X95381677Y-143838562D01*
X95286439Y-143886181D01*
X95000724Y-143886181D01*
X94905486Y-143838562D01*
X94857867Y-143790943D01*
X96861334Y-150312381D02*
X96528000Y-149836190D01*
X96289905Y-150312381D02*
X96289905Y-149312381D01*
X96670858Y-149312381D01*
X96766096Y-149360000D01*
X96813715Y-149407619D01*
X96861334Y-149502857D01*
X96861334Y-149645714D01*
X96813715Y-149740952D01*
X96766096Y-149788571D01*
X96670858Y-149836190D01*
X96289905Y-149836190D01*
X97718477Y-149645714D02*
X97718477Y-150312381D01*
X97480381Y-149264762D02*
X97242286Y-149979048D01*
X97861334Y-149979048D01*
X97115334Y-163748981D02*
X96782000Y-163272790D01*
X96543905Y-163748981D02*
X96543905Y-162748981D01*
X96924858Y-162748981D01*
X97020096Y-162796600D01*
X97067715Y-162844219D01*
X97115334Y-162939457D01*
X97115334Y-163082314D01*
X97067715Y-163177552D01*
X97020096Y-163225171D01*
X96924858Y-163272790D01*
X96543905Y-163272790D01*
X98020096Y-162748981D02*
X97543905Y-162748981D01*
X97496286Y-163225171D01*
X97543905Y-163177552D01*
X97639143Y-163129933D01*
X97877239Y-163129933D01*
X97972477Y-163177552D01*
X98020096Y-163225171D01*
X98067715Y-163320410D01*
X98067715Y-163558505D01*
X98020096Y-163653743D01*
X97972477Y-163701362D01*
X97877239Y-163748981D01*
X97639143Y-163748981D01*
X97543905Y-163701362D01*
X97496286Y-163653743D01*
X88082381Y-183834066D02*
X87606190Y-184167400D01*
X88082381Y-184405495D02*
X87082381Y-184405495D01*
X87082381Y-184024542D01*
X87130000Y-183929304D01*
X87177619Y-183881685D01*
X87272857Y-183834066D01*
X87415714Y-183834066D01*
X87510952Y-183881685D01*
X87558571Y-183929304D01*
X87606190Y-184024542D01*
X87606190Y-184405495D01*
X87082381Y-182976923D02*
X87082381Y-183167400D01*
X87130000Y-183262638D01*
X87177619Y-183310257D01*
X87320476Y-183405495D01*
X87510952Y-183453114D01*
X87891905Y-183453114D01*
X87987143Y-183405495D01*
X88034762Y-183357876D01*
X88082381Y-183262638D01*
X88082381Y-183072161D01*
X88034762Y-182976923D01*
X87987143Y-182929304D01*
X87891905Y-182881685D01*
X87653810Y-182881685D01*
X87558571Y-182929304D01*
X87510952Y-182976923D01*
X87463333Y-183072161D01*
X87463333Y-183262638D01*
X87510952Y-183357876D01*
X87558571Y-183405495D01*
X87653810Y-183453114D01*
X95210334Y-135961381D02*
X94877000Y-135485190D01*
X94638905Y-135961381D02*
X94638905Y-134961381D01*
X95019858Y-134961381D01*
X95115096Y-135009000D01*
X95162715Y-135056619D01*
X95210334Y-135151857D01*
X95210334Y-135294714D01*
X95162715Y-135389952D01*
X95115096Y-135437571D01*
X95019858Y-135485190D01*
X94638905Y-135485190D01*
X95543667Y-134961381D02*
X96210334Y-134961381D01*
X95781762Y-135961381D01*
X103211334Y-126588781D02*
X102878000Y-126112590D01*
X102639905Y-126588781D02*
X102639905Y-125588781D01*
X103020858Y-125588781D01*
X103116096Y-125636400D01*
X103163715Y-125684019D01*
X103211334Y-125779257D01*
X103211334Y-125922114D01*
X103163715Y-126017352D01*
X103116096Y-126064971D01*
X103020858Y-126112590D01*
X102639905Y-126112590D01*
X103782762Y-126017352D02*
X103687524Y-125969733D01*
X103639905Y-125922114D01*
X103592286Y-125826876D01*
X103592286Y-125779257D01*
X103639905Y-125684019D01*
X103687524Y-125636400D01*
X103782762Y-125588781D01*
X103973239Y-125588781D01*
X104068477Y-125636400D01*
X104116096Y-125684019D01*
X104163715Y-125779257D01*
X104163715Y-125826876D01*
X104116096Y-125922114D01*
X104068477Y-125969733D01*
X103973239Y-126017352D01*
X103782762Y-126017352D01*
X103687524Y-126064971D01*
X103639905Y-126112590D01*
X103592286Y-126207829D01*
X103592286Y-126398305D01*
X103639905Y-126493543D01*
X103687524Y-126541162D01*
X103782762Y-126588781D01*
X103973239Y-126588781D01*
X104068477Y-126541162D01*
X104116096Y-126493543D01*
X104163715Y-126398305D01*
X104163715Y-126207829D01*
X104116096Y-126112590D01*
X104068477Y-126064971D01*
X103973239Y-126017352D01*
X91511381Y-114796866D02*
X91035190Y-115130200D01*
X91511381Y-115368295D02*
X90511381Y-115368295D01*
X90511381Y-114987342D01*
X90559000Y-114892104D01*
X90606619Y-114844485D01*
X90701857Y-114796866D01*
X90844714Y-114796866D01*
X90939952Y-114844485D01*
X90987571Y-114892104D01*
X91035190Y-114987342D01*
X91035190Y-115368295D01*
X91511381Y-114320676D02*
X91511381Y-114130200D01*
X91463762Y-114034961D01*
X91416143Y-113987342D01*
X91273286Y-113892104D01*
X91082810Y-113844485D01*
X90701857Y-113844485D01*
X90606619Y-113892104D01*
X90559000Y-113939723D01*
X90511381Y-114034961D01*
X90511381Y-114225438D01*
X90559000Y-114320676D01*
X90606619Y-114368295D01*
X90701857Y-114415914D01*
X90939952Y-114415914D01*
X91035190Y-114368295D01*
X91082810Y-114320676D01*
X91130429Y-114225438D01*
X91130429Y-114034961D01*
X91082810Y-113939723D01*
X91035190Y-113892104D01*
X90939952Y-113844485D01*
X100068143Y-107208581D02*
X99734809Y-106732390D01*
X99496714Y-107208581D02*
X99496714Y-106208581D01*
X99877667Y-106208581D01*
X99972905Y-106256200D01*
X100020524Y-106303819D01*
X100068143Y-106399057D01*
X100068143Y-106541914D01*
X100020524Y-106637152D01*
X99972905Y-106684771D01*
X99877667Y-106732390D01*
X99496714Y-106732390D01*
X101020524Y-107208581D02*
X100449095Y-107208581D01*
X100734809Y-107208581D02*
X100734809Y-106208581D01*
X100639571Y-106351438D01*
X100544333Y-106446676D01*
X100449095Y-106494295D01*
X101639571Y-106208581D02*
X101734810Y-106208581D01*
X101830048Y-106256200D01*
X101877667Y-106303819D01*
X101925286Y-106399057D01*
X101972905Y-106589533D01*
X101972905Y-106827629D01*
X101925286Y-107018105D01*
X101877667Y-107113343D01*
X101830048Y-107160962D01*
X101734810Y-107208581D01*
X101639571Y-107208581D01*
X101544333Y-107160962D01*
X101496714Y-107113343D01*
X101449095Y-107018105D01*
X101401476Y-106827629D01*
X101401476Y-106589533D01*
X101449095Y-106399057D01*
X101496714Y-106303819D01*
X101544333Y-106256200D01*
X101639571Y-106208581D01*
X94226143Y-103830381D02*
X93892809Y-103354190D01*
X93654714Y-103830381D02*
X93654714Y-102830381D01*
X94035667Y-102830381D01*
X94130905Y-102878000D01*
X94178524Y-102925619D01*
X94226143Y-103020857D01*
X94226143Y-103163714D01*
X94178524Y-103258952D01*
X94130905Y-103306571D01*
X94035667Y-103354190D01*
X93654714Y-103354190D01*
X95178524Y-103830381D02*
X94607095Y-103830381D01*
X94892809Y-103830381D02*
X94892809Y-102830381D01*
X94797571Y-102973238D01*
X94702333Y-103068476D01*
X94607095Y-103116095D01*
X96130905Y-103830381D02*
X95559476Y-103830381D01*
X95845190Y-103830381D02*
X95845190Y-102830381D01*
X95749952Y-102973238D01*
X95654714Y-103068476D01*
X95559476Y-103116095D01*
X104411543Y-104363781D02*
X104078209Y-103887590D01*
X103840114Y-104363781D02*
X103840114Y-103363781D01*
X104221067Y-103363781D01*
X104316305Y-103411400D01*
X104363924Y-103459019D01*
X104411543Y-103554257D01*
X104411543Y-103697114D01*
X104363924Y-103792352D01*
X104316305Y-103839971D01*
X104221067Y-103887590D01*
X103840114Y-103887590D01*
X105363924Y-104363781D02*
X104792495Y-104363781D01*
X105078209Y-104363781D02*
X105078209Y-103363781D01*
X104982971Y-103506638D01*
X104887733Y-103601876D01*
X104792495Y-103649495D01*
X105744876Y-103459019D02*
X105792495Y-103411400D01*
X105887733Y-103363781D01*
X106125829Y-103363781D01*
X106221067Y-103411400D01*
X106268686Y-103459019D01*
X106316305Y-103554257D01*
X106316305Y-103649495D01*
X106268686Y-103792352D01*
X105697257Y-104363781D01*
X106316305Y-104363781D01*
X102506543Y-121737381D02*
X102173209Y-121261190D01*
X101935114Y-121737381D02*
X101935114Y-120737381D01*
X102316067Y-120737381D01*
X102411305Y-120785000D01*
X102458924Y-120832619D01*
X102506543Y-120927857D01*
X102506543Y-121070714D01*
X102458924Y-121165952D01*
X102411305Y-121213571D01*
X102316067Y-121261190D01*
X101935114Y-121261190D01*
X103458924Y-121737381D02*
X102887495Y-121737381D01*
X103173209Y-121737381D02*
X103173209Y-120737381D01*
X103077971Y-120880238D01*
X102982733Y-120975476D01*
X102887495Y-121023095D01*
X103792257Y-120737381D02*
X104411305Y-120737381D01*
X104077971Y-121118333D01*
X104220829Y-121118333D01*
X104316067Y-121165952D01*
X104363686Y-121213571D01*
X104411305Y-121308810D01*
X104411305Y-121546905D01*
X104363686Y-121642143D01*
X104316067Y-121689762D01*
X104220829Y-121737381D01*
X103935114Y-121737381D01*
X103839876Y-121689762D01*
X103792257Y-121642143D01*
X100855543Y-104389181D02*
X100522209Y-103912990D01*
X100284114Y-104389181D02*
X100284114Y-103389181D01*
X100665067Y-103389181D01*
X100760305Y-103436800D01*
X100807924Y-103484419D01*
X100855543Y-103579657D01*
X100855543Y-103722514D01*
X100807924Y-103817752D01*
X100760305Y-103865371D01*
X100665067Y-103912990D01*
X100284114Y-103912990D01*
X101807924Y-104389181D02*
X101236495Y-104389181D01*
X101522209Y-104389181D02*
X101522209Y-103389181D01*
X101426971Y-103532038D01*
X101331733Y-103627276D01*
X101236495Y-103674895D01*
X102665067Y-103722514D02*
X102665067Y-104389181D01*
X102426971Y-103341562D02*
X102188876Y-104055848D01*
X102807924Y-104055848D01*
X103804981Y-113647457D02*
X103328790Y-113980791D01*
X103804981Y-114218886D02*
X102804981Y-114218886D01*
X102804981Y-113837933D01*
X102852600Y-113742695D01*
X102900219Y-113695076D01*
X102995457Y-113647457D01*
X103138314Y-113647457D01*
X103233552Y-113695076D01*
X103281171Y-113742695D01*
X103328790Y-113837933D01*
X103328790Y-114218886D01*
X103804981Y-112695076D02*
X103804981Y-113266505D01*
X103804981Y-112980791D02*
X102804981Y-112980791D01*
X102947838Y-113076029D01*
X103043076Y-113171267D01*
X103090695Y-113266505D01*
X102804981Y-111790314D02*
X102804981Y-112266505D01*
X103281171Y-112314124D01*
X103233552Y-112266505D01*
X103185933Y-112171267D01*
X103185933Y-111933171D01*
X103233552Y-111837933D01*
X103281171Y-111790314D01*
X103376410Y-111742695D01*
X103614505Y-111742695D01*
X103709743Y-111790314D01*
X103757362Y-111837933D01*
X103804981Y-111933171D01*
X103804981Y-112171267D01*
X103757362Y-112266505D01*
X103709743Y-112314124D01*
X109704131Y-126379207D02*
X109227940Y-126712541D01*
X109704131Y-126950636D02*
X108704131Y-126950636D01*
X108704131Y-126569683D01*
X108751750Y-126474445D01*
X108799369Y-126426826D01*
X108894607Y-126379207D01*
X109037464Y-126379207D01*
X109132702Y-126426826D01*
X109180321Y-126474445D01*
X109227940Y-126569683D01*
X109227940Y-126950636D01*
X109704131Y-125426826D02*
X109704131Y-125998255D01*
X109704131Y-125712541D02*
X108704131Y-125712541D01*
X108846988Y-125807779D01*
X108942226Y-125903017D01*
X108989845Y-125998255D01*
X108704131Y-124569683D02*
X108704131Y-124760160D01*
X108751750Y-124855398D01*
X108799369Y-124903017D01*
X108942226Y-124998255D01*
X109132702Y-125045874D01*
X109513655Y-125045874D01*
X109608893Y-124998255D01*
X109656512Y-124950636D01*
X109704131Y-124855398D01*
X109704131Y-124664921D01*
X109656512Y-124569683D01*
X109608893Y-124522064D01*
X109513655Y-124474445D01*
X109275560Y-124474445D01*
X109180321Y-124522064D01*
X109132702Y-124569683D01*
X109085083Y-124664921D01*
X109085083Y-124855398D01*
X109132702Y-124950636D01*
X109180321Y-124998255D01*
X109275560Y-125045874D01*
X85869543Y-108630981D02*
X85536209Y-108154790D01*
X85298114Y-108630981D02*
X85298114Y-107630981D01*
X85679067Y-107630981D01*
X85774305Y-107678600D01*
X85821924Y-107726219D01*
X85869543Y-107821457D01*
X85869543Y-107964314D01*
X85821924Y-108059552D01*
X85774305Y-108107171D01*
X85679067Y-108154790D01*
X85298114Y-108154790D01*
X86821924Y-108630981D02*
X86250495Y-108630981D01*
X86536209Y-108630981D02*
X86536209Y-107630981D01*
X86440971Y-107773838D01*
X86345733Y-107869076D01*
X86250495Y-107916695D01*
X87155257Y-107630981D02*
X87821924Y-107630981D01*
X87393352Y-108630981D01*
X102589093Y-118873531D02*
X102255759Y-118397340D01*
X102017664Y-118873531D02*
X102017664Y-117873531D01*
X102398617Y-117873531D01*
X102493855Y-117921150D01*
X102541474Y-117968769D01*
X102589093Y-118064007D01*
X102589093Y-118206864D01*
X102541474Y-118302102D01*
X102493855Y-118349721D01*
X102398617Y-118397340D01*
X102017664Y-118397340D01*
X103541474Y-118873531D02*
X102970045Y-118873531D01*
X103255759Y-118873531D02*
X103255759Y-117873531D01*
X103160521Y-118016388D01*
X103065283Y-118111626D01*
X102970045Y-118159245D01*
X104112902Y-118302102D02*
X104017664Y-118254483D01*
X103970045Y-118206864D01*
X103922426Y-118111626D01*
X103922426Y-118064007D01*
X103970045Y-117968769D01*
X104017664Y-117921150D01*
X104112902Y-117873531D01*
X104303379Y-117873531D01*
X104398617Y-117921150D01*
X104446236Y-117968769D01*
X104493855Y-118064007D01*
X104493855Y-118111626D01*
X104446236Y-118206864D01*
X104398617Y-118254483D01*
X104303379Y-118302102D01*
X104112902Y-118302102D01*
X104017664Y-118349721D01*
X103970045Y-118397340D01*
X103922426Y-118492579D01*
X103922426Y-118683055D01*
X103970045Y-118778293D01*
X104017664Y-118825912D01*
X104112902Y-118873531D01*
X104303379Y-118873531D01*
X104398617Y-118825912D01*
X104446236Y-118778293D01*
X104493855Y-118683055D01*
X104493855Y-118492579D01*
X104446236Y-118397340D01*
X104398617Y-118349721D01*
X104303379Y-118302102D01*
X100763331Y-113780807D02*
X100287140Y-114114141D01*
X100763331Y-114352236D02*
X99763331Y-114352236D01*
X99763331Y-113971283D01*
X99810950Y-113876045D01*
X99858569Y-113828426D01*
X99953807Y-113780807D01*
X100096664Y-113780807D01*
X100191902Y-113828426D01*
X100239521Y-113876045D01*
X100287140Y-113971283D01*
X100287140Y-114352236D01*
X100763331Y-112828426D02*
X100763331Y-113399855D01*
X100763331Y-113114141D02*
X99763331Y-113114141D01*
X99906188Y-113209379D01*
X100001426Y-113304617D01*
X100049045Y-113399855D01*
X100763331Y-112352236D02*
X100763331Y-112161760D01*
X100715712Y-112066521D01*
X100668093Y-112018902D01*
X100525236Y-111923664D01*
X100334760Y-111876045D01*
X99953807Y-111876045D01*
X99858569Y-111923664D01*
X99810950Y-111971283D01*
X99763331Y-112066521D01*
X99763331Y-112256998D01*
X99810950Y-112352236D01*
X99858569Y-112399855D01*
X99953807Y-112447474D01*
X100191902Y-112447474D01*
X100287140Y-112399855D01*
X100334760Y-112352236D01*
X100382379Y-112256998D01*
X100382379Y-112066521D01*
X100334760Y-111971283D01*
X100287140Y-111923664D01*
X100191902Y-111876045D01*
X95826343Y-111666281D02*
X95493009Y-111190090D01*
X95254914Y-111666281D02*
X95254914Y-110666281D01*
X95635867Y-110666281D01*
X95731105Y-110713900D01*
X95778724Y-110761519D01*
X95826343Y-110856757D01*
X95826343Y-110999614D01*
X95778724Y-111094852D01*
X95731105Y-111142471D01*
X95635867Y-111190090D01*
X95254914Y-111190090D01*
X96207295Y-110761519D02*
X96254914Y-110713900D01*
X96350152Y-110666281D01*
X96588248Y-110666281D01*
X96683486Y-110713900D01*
X96731105Y-110761519D01*
X96778724Y-110856757D01*
X96778724Y-110951995D01*
X96731105Y-111094852D01*
X96159676Y-111666281D01*
X96778724Y-111666281D01*
X97397771Y-110666281D02*
X97493010Y-110666281D01*
X97588248Y-110713900D01*
X97635867Y-110761519D01*
X97683486Y-110856757D01*
X97731105Y-111047233D01*
X97731105Y-111285329D01*
X97683486Y-111475805D01*
X97635867Y-111571043D01*
X97588248Y-111618662D01*
X97493010Y-111666281D01*
X97397771Y-111666281D01*
X97302533Y-111618662D01*
X97254914Y-111571043D01*
X97207295Y-111475805D01*
X97159676Y-111285329D01*
X97159676Y-111047233D01*
X97207295Y-110856757D01*
X97254914Y-110761519D01*
X97302533Y-110713900D01*
X97397771Y-110666281D01*
X91009731Y-117794007D02*
X90533540Y-118127341D01*
X91009731Y-118365436D02*
X90009731Y-118365436D01*
X90009731Y-117984483D01*
X90057350Y-117889245D01*
X90104969Y-117841626D01*
X90200207Y-117794007D01*
X90343064Y-117794007D01*
X90438302Y-117841626D01*
X90485921Y-117889245D01*
X90533540Y-117984483D01*
X90533540Y-118365436D01*
X90104969Y-117413055D02*
X90057350Y-117365436D01*
X90009731Y-117270198D01*
X90009731Y-117032102D01*
X90057350Y-116936864D01*
X90104969Y-116889245D01*
X90200207Y-116841626D01*
X90295445Y-116841626D01*
X90438302Y-116889245D01*
X91009731Y-117460674D01*
X91009731Y-116841626D01*
X91009731Y-115889245D02*
X91009731Y-116460674D01*
X91009731Y-116174960D02*
X90009731Y-116174960D01*
X90152588Y-116270198D01*
X90247826Y-116365436D01*
X90295445Y-116460674D01*
X90984331Y-123585207D02*
X90508140Y-123918541D01*
X90984331Y-124156636D02*
X89984331Y-124156636D01*
X89984331Y-123775683D01*
X90031950Y-123680445D01*
X90079569Y-123632826D01*
X90174807Y-123585207D01*
X90317664Y-123585207D01*
X90412902Y-123632826D01*
X90460521Y-123680445D01*
X90508140Y-123775683D01*
X90508140Y-124156636D01*
X90079569Y-123204255D02*
X90031950Y-123156636D01*
X89984331Y-123061398D01*
X89984331Y-122823302D01*
X90031950Y-122728064D01*
X90079569Y-122680445D01*
X90174807Y-122632826D01*
X90270045Y-122632826D01*
X90412902Y-122680445D01*
X90984331Y-123251874D01*
X90984331Y-122632826D01*
X90079569Y-122251874D02*
X90031950Y-122204255D01*
X89984331Y-122109017D01*
X89984331Y-121870921D01*
X90031950Y-121775683D01*
X90079569Y-121728064D01*
X90174807Y-121680445D01*
X90270045Y-121680445D01*
X90412902Y-121728064D01*
X90984331Y-122299493D01*
X90984331Y-121680445D01*
X79805293Y-125960131D02*
X79471959Y-125483940D01*
X79233864Y-125960131D02*
X79233864Y-124960131D01*
X79614817Y-124960131D01*
X79710055Y-125007750D01*
X79757674Y-125055369D01*
X79805293Y-125150607D01*
X79805293Y-125293464D01*
X79757674Y-125388702D01*
X79710055Y-125436321D01*
X79614817Y-125483940D01*
X79233864Y-125483940D01*
X80186245Y-125055369D02*
X80233864Y-125007750D01*
X80329102Y-124960131D01*
X80567198Y-124960131D01*
X80662436Y-125007750D01*
X80710055Y-125055369D01*
X80757674Y-125150607D01*
X80757674Y-125245845D01*
X80710055Y-125388702D01*
X80138626Y-125960131D01*
X80757674Y-125960131D01*
X81091007Y-124960131D02*
X81710055Y-124960131D01*
X81376721Y-125341083D01*
X81519579Y-125341083D01*
X81614817Y-125388702D01*
X81662436Y-125436321D01*
X81710055Y-125531560D01*
X81710055Y-125769655D01*
X81662436Y-125864893D01*
X81614817Y-125912512D01*
X81519579Y-125960131D01*
X81233864Y-125960131D01*
X81138626Y-125912512D01*
X81091007Y-125864893D01*
X79881493Y-122988331D02*
X79548159Y-122512140D01*
X79310064Y-122988331D02*
X79310064Y-121988331D01*
X79691017Y-121988331D01*
X79786255Y-122035950D01*
X79833874Y-122083569D01*
X79881493Y-122178807D01*
X79881493Y-122321664D01*
X79833874Y-122416902D01*
X79786255Y-122464521D01*
X79691017Y-122512140D01*
X79310064Y-122512140D01*
X80262445Y-122083569D02*
X80310064Y-122035950D01*
X80405302Y-121988331D01*
X80643398Y-121988331D01*
X80738636Y-122035950D01*
X80786255Y-122083569D01*
X80833874Y-122178807D01*
X80833874Y-122274045D01*
X80786255Y-122416902D01*
X80214826Y-122988331D01*
X80833874Y-122988331D01*
X81691017Y-122321664D02*
X81691017Y-122988331D01*
X81452921Y-121940712D02*
X81214826Y-122654998D01*
X81833874Y-122654998D01*
X79875143Y-118562381D02*
X79541809Y-118086190D01*
X79303714Y-118562381D02*
X79303714Y-117562381D01*
X79684667Y-117562381D01*
X79779905Y-117610000D01*
X79827524Y-117657619D01*
X79875143Y-117752857D01*
X79875143Y-117895714D01*
X79827524Y-117990952D01*
X79779905Y-118038571D01*
X79684667Y-118086190D01*
X79303714Y-118086190D01*
X80256095Y-117657619D02*
X80303714Y-117610000D01*
X80398952Y-117562381D01*
X80637048Y-117562381D01*
X80732286Y-117610000D01*
X80779905Y-117657619D01*
X80827524Y-117752857D01*
X80827524Y-117848095D01*
X80779905Y-117990952D01*
X80208476Y-118562381D01*
X80827524Y-118562381D01*
X81732286Y-117562381D02*
X81256095Y-117562381D01*
X81208476Y-118038571D01*
X81256095Y-117990952D01*
X81351333Y-117943333D01*
X81589429Y-117943333D01*
X81684667Y-117990952D01*
X81732286Y-118038571D01*
X81779905Y-118133810D01*
X81779905Y-118371905D01*
X81732286Y-118467143D01*
X81684667Y-118514762D01*
X81589429Y-118562381D01*
X81351333Y-118562381D01*
X81256095Y-118514762D01*
X81208476Y-118467143D01*
X97845643Y-131071881D02*
X97512309Y-130595690D01*
X97274214Y-131071881D02*
X97274214Y-130071881D01*
X97655167Y-130071881D01*
X97750405Y-130119500D01*
X97798024Y-130167119D01*
X97845643Y-130262357D01*
X97845643Y-130405214D01*
X97798024Y-130500452D01*
X97750405Y-130548071D01*
X97655167Y-130595690D01*
X97274214Y-130595690D01*
X98226595Y-130167119D02*
X98274214Y-130119500D01*
X98369452Y-130071881D01*
X98607548Y-130071881D01*
X98702786Y-130119500D01*
X98750405Y-130167119D01*
X98798024Y-130262357D01*
X98798024Y-130357595D01*
X98750405Y-130500452D01*
X98178976Y-131071881D01*
X98798024Y-131071881D01*
X99655167Y-130071881D02*
X99464690Y-130071881D01*
X99369452Y-130119500D01*
X99321833Y-130167119D01*
X99226595Y-130309976D01*
X99178976Y-130500452D01*
X99178976Y-130881405D01*
X99226595Y-130976643D01*
X99274214Y-131024262D01*
X99369452Y-131071881D01*
X99559929Y-131071881D01*
X99655167Y-131024262D01*
X99702786Y-130976643D01*
X99750405Y-130881405D01*
X99750405Y-130643310D01*
X99702786Y-130548071D01*
X99655167Y-130500452D01*
X99559929Y-130452833D01*
X99369452Y-130452833D01*
X99274214Y-130500452D01*
X99226595Y-130548071D01*
X99178976Y-130643310D01*
X94432381Y-100464857D02*
X93956190Y-100798191D01*
X94432381Y-101036286D02*
X93432381Y-101036286D01*
X93432381Y-100655333D01*
X93480000Y-100560095D01*
X93527619Y-100512476D01*
X93622857Y-100464857D01*
X93765714Y-100464857D01*
X93860952Y-100512476D01*
X93908571Y-100560095D01*
X93956190Y-100655333D01*
X93956190Y-101036286D01*
X93527619Y-100083905D02*
X93480000Y-100036286D01*
X93432381Y-99941048D01*
X93432381Y-99702952D01*
X93480000Y-99607714D01*
X93527619Y-99560095D01*
X93622857Y-99512476D01*
X93718095Y-99512476D01*
X93860952Y-99560095D01*
X94432381Y-100131524D01*
X94432381Y-99512476D01*
X93432381Y-99179143D02*
X93432381Y-98512476D01*
X94432381Y-98941048D01*
X111625143Y-133040381D02*
X111291809Y-132564190D01*
X111053714Y-133040381D02*
X111053714Y-132040381D01*
X111434667Y-132040381D01*
X111529905Y-132088000D01*
X111577524Y-132135619D01*
X111625143Y-132230857D01*
X111625143Y-132373714D01*
X111577524Y-132468952D01*
X111529905Y-132516571D01*
X111434667Y-132564190D01*
X111053714Y-132564190D01*
X112006095Y-132135619D02*
X112053714Y-132088000D01*
X112148952Y-132040381D01*
X112387048Y-132040381D01*
X112482286Y-132088000D01*
X112529905Y-132135619D01*
X112577524Y-132230857D01*
X112577524Y-132326095D01*
X112529905Y-132468952D01*
X111958476Y-133040381D01*
X112577524Y-133040381D01*
X113148952Y-132468952D02*
X113053714Y-132421333D01*
X113006095Y-132373714D01*
X112958476Y-132278476D01*
X112958476Y-132230857D01*
X113006095Y-132135619D01*
X113053714Y-132088000D01*
X113148952Y-132040381D01*
X113339429Y-132040381D01*
X113434667Y-132088000D01*
X113482286Y-132135619D01*
X113529905Y-132230857D01*
X113529905Y-132278476D01*
X113482286Y-132373714D01*
X113434667Y-132421333D01*
X113339429Y-132468952D01*
X113148952Y-132468952D01*
X113053714Y-132516571D01*
X113006095Y-132564190D01*
X112958476Y-132659429D01*
X112958476Y-132849905D01*
X113006095Y-132945143D01*
X113053714Y-132992762D01*
X113148952Y-133040381D01*
X113339429Y-133040381D01*
X113434667Y-132992762D01*
X113482286Y-132945143D01*
X113529905Y-132849905D01*
X113529905Y-132659429D01*
X113482286Y-132564190D01*
X113434667Y-132516571D01*
X113339429Y-132468952D01*
X105608381Y-86240857D02*
X105132190Y-86574191D01*
X105608381Y-86812286D02*
X104608381Y-86812286D01*
X104608381Y-86431333D01*
X104656000Y-86336095D01*
X104703619Y-86288476D01*
X104798857Y-86240857D01*
X104941714Y-86240857D01*
X105036952Y-86288476D01*
X105084571Y-86336095D01*
X105132190Y-86431333D01*
X105132190Y-86812286D01*
X104703619Y-85859905D02*
X104656000Y-85812286D01*
X104608381Y-85717048D01*
X104608381Y-85478952D01*
X104656000Y-85383714D01*
X104703619Y-85336095D01*
X104798857Y-85288476D01*
X104894095Y-85288476D01*
X105036952Y-85336095D01*
X105608381Y-85907524D01*
X105608381Y-85288476D01*
X105608381Y-84812286D02*
X105608381Y-84621810D01*
X105560762Y-84526571D01*
X105513143Y-84478952D01*
X105370286Y-84383714D01*
X105179810Y-84336095D01*
X104798857Y-84336095D01*
X104703619Y-84383714D01*
X104656000Y-84431333D01*
X104608381Y-84526571D01*
X104608381Y-84717048D01*
X104656000Y-84812286D01*
X104703619Y-84859905D01*
X104798857Y-84907524D01*
X105036952Y-84907524D01*
X105132190Y-84859905D01*
X105179810Y-84812286D01*
X105227429Y-84717048D01*
X105227429Y-84526571D01*
X105179810Y-84431333D01*
X105132190Y-84383714D01*
X105036952Y-84336095D01*
X108656381Y-86240857D02*
X108180190Y-86574191D01*
X108656381Y-86812286D02*
X107656381Y-86812286D01*
X107656381Y-86431333D01*
X107704000Y-86336095D01*
X107751619Y-86288476D01*
X107846857Y-86240857D01*
X107989714Y-86240857D01*
X108084952Y-86288476D01*
X108132571Y-86336095D01*
X108180190Y-86431333D01*
X108180190Y-86812286D01*
X107656381Y-85907524D02*
X107656381Y-85288476D01*
X108037333Y-85621810D01*
X108037333Y-85478952D01*
X108084952Y-85383714D01*
X108132571Y-85336095D01*
X108227810Y-85288476D01*
X108465905Y-85288476D01*
X108561143Y-85336095D01*
X108608762Y-85383714D01*
X108656381Y-85478952D01*
X108656381Y-85764667D01*
X108608762Y-85859905D01*
X108561143Y-85907524D01*
X107656381Y-84669429D02*
X107656381Y-84574190D01*
X107704000Y-84478952D01*
X107751619Y-84431333D01*
X107846857Y-84383714D01*
X108037333Y-84336095D01*
X108275429Y-84336095D01*
X108465905Y-84383714D01*
X108561143Y-84431333D01*
X108608762Y-84478952D01*
X108656381Y-84574190D01*
X108656381Y-84669429D01*
X108608762Y-84764667D01*
X108561143Y-84812286D01*
X108465905Y-84859905D01*
X108275429Y-84907524D01*
X108037333Y-84907524D01*
X107846857Y-84859905D01*
X107751619Y-84812286D01*
X107704000Y-84764667D01*
X107656381Y-84669429D01*
X109367581Y-96781857D02*
X108891390Y-97115191D01*
X109367581Y-97353286D02*
X108367581Y-97353286D01*
X108367581Y-96972333D01*
X108415200Y-96877095D01*
X108462819Y-96829476D01*
X108558057Y-96781857D01*
X108700914Y-96781857D01*
X108796152Y-96829476D01*
X108843771Y-96877095D01*
X108891390Y-96972333D01*
X108891390Y-97353286D01*
X108367581Y-96448524D02*
X108367581Y-95829476D01*
X108748533Y-96162810D01*
X108748533Y-96019952D01*
X108796152Y-95924714D01*
X108843771Y-95877095D01*
X108939010Y-95829476D01*
X109177105Y-95829476D01*
X109272343Y-95877095D01*
X109319962Y-95924714D01*
X109367581Y-96019952D01*
X109367581Y-96305667D01*
X109319962Y-96400905D01*
X109272343Y-96448524D01*
X109367581Y-94877095D02*
X109367581Y-95448524D01*
X109367581Y-95162810D02*
X108367581Y-95162810D01*
X108510438Y-95258048D01*
X108605676Y-95353286D01*
X108653295Y-95448524D01*
X102560381Y-86240857D02*
X102084190Y-86574191D01*
X102560381Y-86812286D02*
X101560381Y-86812286D01*
X101560381Y-86431333D01*
X101608000Y-86336095D01*
X101655619Y-86288476D01*
X101750857Y-86240857D01*
X101893714Y-86240857D01*
X101988952Y-86288476D01*
X102036571Y-86336095D01*
X102084190Y-86431333D01*
X102084190Y-86812286D01*
X101560381Y-85907524D02*
X101560381Y-85288476D01*
X101941333Y-85621810D01*
X101941333Y-85478952D01*
X101988952Y-85383714D01*
X102036571Y-85336095D01*
X102131810Y-85288476D01*
X102369905Y-85288476D01*
X102465143Y-85336095D01*
X102512762Y-85383714D01*
X102560381Y-85478952D01*
X102560381Y-85764667D01*
X102512762Y-85859905D01*
X102465143Y-85907524D01*
X101655619Y-84907524D02*
X101608000Y-84859905D01*
X101560381Y-84764667D01*
X101560381Y-84526571D01*
X101608000Y-84431333D01*
X101655619Y-84383714D01*
X101750857Y-84336095D01*
X101846095Y-84336095D01*
X101988952Y-84383714D01*
X102560381Y-84955143D01*
X102560381Y-84336095D01*
X92123238Y-61263162D02*
X92266095Y-61310781D01*
X92504191Y-61310781D01*
X92599429Y-61263162D01*
X92647048Y-61215543D01*
X92694667Y-61120305D01*
X92694667Y-61025067D01*
X92647048Y-60929829D01*
X92599429Y-60882210D01*
X92504191Y-60834590D01*
X92313714Y-60786971D01*
X92218476Y-60739352D01*
X92170857Y-60691733D01*
X92123238Y-60596495D01*
X92123238Y-60501257D01*
X92170857Y-60406019D01*
X92218476Y-60358400D01*
X92313714Y-60310781D01*
X92551810Y-60310781D01*
X92694667Y-60358400D01*
X93028000Y-60310781D02*
X93266095Y-61310781D01*
X93456572Y-60596495D01*
X93647048Y-61310781D01*
X93885143Y-60310781D01*
X94028000Y-61406019D02*
X94789905Y-61406019D01*
X95551810Y-60358400D02*
X95456572Y-60310781D01*
X95313715Y-60310781D01*
X95170857Y-60358400D01*
X95075619Y-60453638D01*
X95028000Y-60548876D01*
X94980381Y-60739352D01*
X94980381Y-60882210D01*
X95028000Y-61072686D01*
X95075619Y-61167924D01*
X95170857Y-61263162D01*
X95313715Y-61310781D01*
X95408953Y-61310781D01*
X95551810Y-61263162D01*
X95599429Y-61215543D01*
X95599429Y-60882210D01*
X95408953Y-60882210D01*
X95980381Y-61025067D02*
X96456572Y-61025067D01*
X95885143Y-61310781D02*
X96218476Y-60310781D01*
X96551810Y-61310781D01*
X96742286Y-60310781D02*
X97313715Y-60310781D01*
X97028000Y-61310781D02*
X97028000Y-60310781D01*
X97647048Y-60786971D02*
X97980382Y-60786971D01*
X98123239Y-61310781D02*
X97647048Y-61310781D01*
X97647048Y-60310781D01*
X98123239Y-60310781D01*
X98313715Y-61406019D02*
X99075620Y-61406019D01*
X99504191Y-60310781D02*
X99694668Y-60310781D01*
X99789906Y-60358400D01*
X99885144Y-60453638D01*
X99932763Y-60644114D01*
X99932763Y-60977448D01*
X99885144Y-61167924D01*
X99789906Y-61263162D01*
X99694668Y-61310781D01*
X99504191Y-61310781D01*
X99408953Y-61263162D01*
X99313715Y-61167924D01*
X99266096Y-60977448D01*
X99266096Y-60644114D01*
X99313715Y-60453638D01*
X99408953Y-60358400D01*
X99504191Y-60310781D01*
X100361334Y-61310781D02*
X100361334Y-60310781D01*
X100932763Y-61310781D01*
X100932763Y-60310781D01*
X101932763Y-61310781D02*
X101361334Y-61310781D01*
X101647048Y-61310781D02*
X101647048Y-60310781D01*
X101551810Y-60453638D01*
X101456572Y-60548876D01*
X101361334Y-60596495D01*
X79502095Y-161504381D02*
X79502095Y-162313905D01*
X79549714Y-162409143D01*
X79597333Y-162456762D01*
X79692571Y-162504381D01*
X79883048Y-162504381D01*
X79978286Y-162456762D01*
X80025905Y-162409143D01*
X80073524Y-162313905D01*
X80073524Y-161504381D01*
X81073524Y-162504381D02*
X80502095Y-162504381D01*
X80787809Y-162504381D02*
X80787809Y-161504381D01*
X80692571Y-161647238D01*
X80597333Y-161742476D01*
X80502095Y-161790095D01*
X106680095Y-158964381D02*
X106680095Y-159773905D01*
X106727714Y-159869143D01*
X106775333Y-159916762D01*
X106870571Y-159964381D01*
X107061048Y-159964381D01*
X107156286Y-159916762D01*
X107203905Y-159869143D01*
X107251524Y-159773905D01*
X107251524Y-158964381D01*
X107680095Y-159059619D02*
X107727714Y-159012000D01*
X107822952Y-158964381D01*
X108061048Y-158964381D01*
X108156286Y-159012000D01*
X108203905Y-159059619D01*
X108251524Y-159154857D01*
X108251524Y-159250095D01*
X108203905Y-159392952D01*
X107632476Y-159964381D01*
X108251524Y-159964381D01*
X94888145Y-119549931D02*
X94888145Y-120359455D01*
X94935764Y-120454693D01*
X94983383Y-120502312D01*
X95078621Y-120549931D01*
X95269098Y-120549931D01*
X95364336Y-120502312D01*
X95411955Y-120454693D01*
X95459574Y-120359455D01*
X95459574Y-119549931D01*
X95840526Y-119549931D02*
X96459574Y-119549931D01*
X96126240Y-119930883D01*
X96269098Y-119930883D01*
X96364336Y-119978502D01*
X96411955Y-120026121D01*
X96459574Y-120121360D01*
X96459574Y-120359455D01*
X96411955Y-120454693D01*
X96364336Y-120502312D01*
X96269098Y-120549931D01*
X95983383Y-120549931D01*
X95888145Y-120502312D01*
X95840526Y-120454693D01*
X100101495Y-95299281D02*
X100101495Y-96108805D01*
X100149114Y-96204043D01*
X100196733Y-96251662D01*
X100291971Y-96299281D01*
X100482448Y-96299281D01*
X100577686Y-96251662D01*
X100625305Y-96204043D01*
X100672924Y-96108805D01*
X100672924Y-95299281D01*
X101577686Y-95632614D02*
X101577686Y-96299281D01*
X101339590Y-95251662D02*
X101101495Y-95965948D01*
X101720543Y-95965948D01*
X88733381Y-71727581D02*
X89733381Y-71394248D01*
X88733381Y-71060914D01*
X89733381Y-70156152D02*
X89257190Y-70489486D01*
X89733381Y-70727581D02*
X88733381Y-70727581D01*
X88733381Y-70346628D01*
X88781000Y-70251390D01*
X88828619Y-70203771D01*
X88923857Y-70156152D01*
X89066714Y-70156152D01*
X89161952Y-70203771D01*
X89209571Y-70251390D01*
X89257190Y-70346628D01*
X89257190Y-70727581D01*
X89828619Y-69965676D02*
X89828619Y-69203771D01*
X88781000Y-68441866D02*
X88733381Y-68537104D01*
X88733381Y-68679961D01*
X88781000Y-68822819D01*
X88876238Y-68918057D01*
X88971476Y-68965676D01*
X89161952Y-69013295D01*
X89304810Y-69013295D01*
X89495286Y-68965676D01*
X89590524Y-68918057D01*
X89685762Y-68822819D01*
X89733381Y-68679961D01*
X89733381Y-68584723D01*
X89685762Y-68441866D01*
X89638143Y-68394247D01*
X89304810Y-68394247D01*
X89304810Y-68584723D01*
X89447667Y-68013295D02*
X89447667Y-67537104D01*
X89733381Y-68108533D02*
X88733381Y-67775200D01*
X89733381Y-67441866D01*
X88733381Y-67251390D02*
X88733381Y-66679961D01*
X89733381Y-66965676D02*
X88733381Y-66965676D01*
X89209571Y-66346628D02*
X89209571Y-66013294D01*
X89733381Y-65870437D02*
X89733381Y-66346628D01*
X88733381Y-66346628D01*
X88733381Y-65870437D01*
X89733381Y-64918056D02*
X89733381Y-65489485D01*
X89733381Y-65203771D02*
X88733381Y-65203771D01*
X88876238Y-65299009D01*
X88971476Y-65394247D01*
X89019095Y-65489485D01*
M02*
