G04 #@! TF.FileFunction,Copper,L2,Bot,Signal*
%FSLAX46Y46*%
G04 Gerber Fmt 4.6, Leading zero omitted, Abs format (unit mm)*
G04 Created by KiCad (PCBNEW 4.0.7) date 01/23/18 15:00:53*
%MOMM*%
%LPD*%
G01*
G04 APERTURE LIST*
%ADD10C,0.100000*%
%ADD11C,0.150000*%
%ADD12R,2.000000X2.000000*%
%ADD13C,2.000000*%
%ADD14R,3.500000X3.500000*%
%ADD15O,4.000000X3.500000*%
%ADD16C,3.000000*%
%ADD17O,5.000000X3.000000*%
%ADD18O,4.000000X3.000000*%
%ADD19C,1.800000*%
%ADD20C,0.600000*%
%ADD21C,0.500000*%
%ADD22C,0.250000*%
%ADD23C,0.254000*%
G04 APERTURE END LIST*
D10*
D11*
X77927200Y-187782200D02*
X77927200Y-187502800D01*
X78435200Y-187782200D02*
X77317600Y-187782200D01*
X123069200Y-40955000D02*
X122713600Y-40955000D01*
X123069200Y-77023000D02*
X123069200Y-40955000D01*
X122688200Y-77023000D02*
X123069200Y-77023000D01*
X71050000Y-40955000D02*
X122866000Y-40955000D01*
X71050000Y-77023000D02*
X71050000Y-40955000D01*
X71050000Y-77023000D02*
X122866000Y-77023000D01*
X116027200Y-180797200D02*
X123012200Y-180797200D01*
X116027200Y-187782200D02*
X116027200Y-180797200D01*
X77927200Y-180797200D02*
X70942200Y-180797200D01*
X77927200Y-187782200D02*
X77927200Y-180797200D01*
X77927200Y-90754200D02*
X70942200Y-90754200D01*
X77927200Y-83769200D02*
X77927200Y-90754200D01*
X116027200Y-90754200D02*
X116027200Y-83769200D01*
X123012200Y-90754200D02*
X116027200Y-90754200D01*
X123012200Y-83769200D02*
X70942200Y-83769200D01*
X123012200Y-187782200D02*
X123012200Y-83769200D01*
X70942200Y-187782200D02*
X123012200Y-187782200D01*
X70942200Y-83769200D02*
X70942200Y-187782200D01*
D12*
X98278800Y-51089600D03*
D13*
X95738800Y-51089600D03*
D14*
X86423500Y-95377000D03*
X86423500Y-89377000D03*
X81723500Y-92377000D03*
D15*
X91502600Y-172311000D03*
X97002600Y-172311000D03*
X102502600Y-172311000D03*
X91502600Y-176911000D03*
X97002600Y-176911000D03*
X102502600Y-176911000D03*
X91502600Y-181511000D03*
X97002600Y-181511000D03*
X102502600Y-181511000D03*
D12*
X73583800Y-64846200D03*
D13*
X73583800Y-67386200D03*
X73583800Y-69926200D03*
X73583800Y-72466200D03*
D12*
X73583800Y-44323000D03*
D13*
X73583800Y-46863000D03*
X73583800Y-49403000D03*
X73583800Y-51943000D03*
D12*
X120548400Y-72491600D03*
D13*
X120548400Y-69951600D03*
X120548400Y-67411600D03*
X120548400Y-64871600D03*
D12*
X120523000Y-44323000D03*
D13*
X120523000Y-46863000D03*
X120523000Y-49403000D03*
X120523000Y-51943000D03*
D12*
X73456800Y-116992400D03*
D13*
X73456800Y-119532400D03*
X73456800Y-122072400D03*
X73456800Y-124612400D03*
D12*
X73469500Y-96456500D03*
D13*
X73469500Y-98996500D03*
X73469500Y-101536500D03*
X73469500Y-104076500D03*
D12*
X120497600Y-124612400D03*
D13*
X120497600Y-122072400D03*
X120497600Y-119532400D03*
X120497600Y-116992400D03*
D12*
X120446800Y-96469200D03*
D13*
X120446800Y-99009200D03*
X120446800Y-101549200D03*
X120446800Y-104089200D03*
X79531200Y-54203600D03*
X82031200Y-54203600D03*
X84531200Y-54203600D03*
D16*
X77631200Y-47203600D03*
X86431200Y-47203600D03*
D13*
X109604800Y-75590400D03*
X112104800Y-75590400D03*
X114604800Y-75590400D03*
D16*
X107704800Y-68590400D03*
X116504800Y-68590400D03*
D13*
X109554000Y-54330600D03*
X112054000Y-54330600D03*
X114554000Y-54330600D03*
D16*
X107654000Y-47330600D03*
X116454000Y-47330600D03*
D17*
X87919700Y-134455900D03*
X87919700Y-150455900D03*
X74919700Y-150455900D03*
X74942700Y-134455900D03*
X106072800Y-150468600D03*
X106072800Y-134468600D03*
X119072800Y-134468600D03*
X119049800Y-150468600D03*
D18*
X97059600Y-68463200D03*
X97059600Y-73163200D03*
X97059600Y-63763200D03*
D19*
X79531200Y-75768200D03*
X82031200Y-75768200D03*
X84531200Y-75768200D03*
D16*
X77631200Y-68768200D03*
X86431200Y-68768200D03*
D20*
X106934000Y-143256000D03*
X92710000Y-130302000D03*
X91440000Y-104902000D03*
X110236000Y-149098000D03*
X107467400Y-100482400D03*
X81991200Y-158242000D03*
X80264000Y-166370000D03*
X106172000Y-162814000D03*
X98094800Y-115773200D03*
X96012000Y-96266000D03*
X98552000Y-140335000D03*
X98552000Y-147193000D03*
X101320600Y-155067000D03*
X101320600Y-159004000D03*
X108337200Y-65415200D03*
X106559200Y-63637200D03*
X95250000Y-124206000D03*
X95250000Y-128016000D03*
X104902000Y-138176000D03*
X104902000Y-140208000D03*
X83947000Y-152781000D03*
X83947000Y-156464000D03*
X94818200Y-48463200D03*
X92151200Y-48463200D03*
X90881200Y-47066200D03*
X95199200Y-47066200D03*
X105543200Y-61097200D03*
X103257200Y-63383200D03*
X104019200Y-64145200D03*
X106305200Y-61859200D03*
X92583000Y-113411000D03*
X92583000Y-112014000D03*
X100330000Y-106426000D03*
X98044000Y-106426000D03*
X103632000Y-140208000D03*
X103632000Y-138176000D03*
D21*
X98552000Y-140335000D02*
X98552000Y-147193000D01*
D22*
X101320600Y-155067000D02*
X101320600Y-159004000D01*
X106559200Y-63637200D02*
X108337200Y-65415200D01*
X95250000Y-128016000D02*
X95250000Y-124206000D01*
X104902000Y-140208000D02*
X104902000Y-138176000D01*
X83947000Y-156464000D02*
X83947000Y-152781000D01*
X94818200Y-48463200D02*
X92151200Y-48463200D01*
X95199200Y-47066200D02*
X90881200Y-47066200D01*
X103257200Y-63383200D02*
X105543200Y-61097200D01*
X106305200Y-61859200D02*
X104019200Y-64145200D01*
X92583000Y-112014000D02*
X92583000Y-113411000D01*
X98044000Y-106426000D02*
X100330000Y-106426000D01*
X103632000Y-140208000D02*
X103632000Y-138176000D01*
D23*
G36*
X115317200Y-90754200D02*
X115371246Y-91025905D01*
X115525154Y-91256246D01*
X115755495Y-91410154D01*
X116027200Y-91464200D01*
X122302200Y-91464200D01*
X122302200Y-180087200D01*
X116027200Y-180087200D01*
X115755495Y-180141246D01*
X115525154Y-180295154D01*
X115371246Y-180525495D01*
X115317200Y-180797200D01*
X115317200Y-187072200D01*
X78637200Y-187072200D01*
X78637200Y-180797200D01*
X78583154Y-180525495D01*
X78429246Y-180295154D01*
X78198905Y-180141246D01*
X77927200Y-180087200D01*
X71652200Y-180087200D01*
X71652200Y-172311000D01*
X88815977Y-172311000D01*
X88997524Y-173223700D01*
X89514527Y-173997450D01*
X90288277Y-174514453D01*
X90773652Y-174611000D01*
X90288277Y-174707547D01*
X89514527Y-175224550D01*
X88997524Y-175998300D01*
X88815977Y-176911000D01*
X88997524Y-177823700D01*
X89514527Y-178597450D01*
X90288277Y-179114453D01*
X90773652Y-179211000D01*
X90288277Y-179307547D01*
X89514527Y-179824550D01*
X88997524Y-180598300D01*
X88815977Y-181511000D01*
X88997524Y-182423700D01*
X89514527Y-183197450D01*
X90288277Y-183714453D01*
X91200977Y-183896000D01*
X91804223Y-183896000D01*
X92716923Y-183714453D01*
X93490673Y-183197450D01*
X94007676Y-182423700D01*
X94189223Y-181511000D01*
X94007676Y-180598300D01*
X93490673Y-179824550D01*
X92716923Y-179307547D01*
X92231548Y-179211000D01*
X92716923Y-179114453D01*
X93490673Y-178597450D01*
X94007676Y-177823700D01*
X94189223Y-176911000D01*
X94315977Y-176911000D01*
X94497524Y-177823700D01*
X95014527Y-178597450D01*
X95788277Y-179114453D01*
X96273652Y-179211000D01*
X95788277Y-179307547D01*
X95014527Y-179824550D01*
X94497524Y-180598300D01*
X94315977Y-181511000D01*
X94497524Y-182423700D01*
X95014527Y-183197450D01*
X95788277Y-183714453D01*
X96700977Y-183896000D01*
X97304223Y-183896000D01*
X98216923Y-183714453D01*
X98990673Y-183197450D01*
X99507676Y-182423700D01*
X99689223Y-181511000D01*
X99507676Y-180598300D01*
X98990673Y-179824550D01*
X98216923Y-179307547D01*
X97731548Y-179211000D01*
X98216923Y-179114453D01*
X98990673Y-178597450D01*
X99507676Y-177823700D01*
X99689223Y-176911000D01*
X99507676Y-175998300D01*
X98990673Y-175224550D01*
X98216923Y-174707547D01*
X97304223Y-174526000D01*
X96700977Y-174526000D01*
X95788277Y-174707547D01*
X95014527Y-175224550D01*
X94497524Y-175998300D01*
X94315977Y-176911000D01*
X94189223Y-176911000D01*
X94007676Y-175998300D01*
X93490673Y-175224550D01*
X92716923Y-174707547D01*
X92231548Y-174611000D01*
X92716923Y-174514453D01*
X93490673Y-173997450D01*
X94007676Y-173223700D01*
X94189223Y-172311000D01*
X99815977Y-172311000D01*
X99997524Y-173223700D01*
X100514527Y-173997450D01*
X101288277Y-174514453D01*
X101773652Y-174611000D01*
X101288277Y-174707547D01*
X100514527Y-175224550D01*
X99997524Y-175998300D01*
X99815977Y-176911000D01*
X99997524Y-177823700D01*
X100514527Y-178597450D01*
X101288277Y-179114453D01*
X101773652Y-179211000D01*
X101288277Y-179307547D01*
X100514527Y-179824550D01*
X99997524Y-180598300D01*
X99815977Y-181511000D01*
X99997524Y-182423700D01*
X100514527Y-183197450D01*
X101288277Y-183714453D01*
X102200977Y-183896000D01*
X102804223Y-183896000D01*
X103716923Y-183714453D01*
X104490673Y-183197450D01*
X105007676Y-182423700D01*
X105189223Y-181511000D01*
X105007676Y-180598300D01*
X104490673Y-179824550D01*
X103716923Y-179307547D01*
X103231548Y-179211000D01*
X103716923Y-179114453D01*
X104490673Y-178597450D01*
X105007676Y-177823700D01*
X105189223Y-176911000D01*
X105007676Y-175998300D01*
X104490673Y-175224550D01*
X103716923Y-174707547D01*
X103231548Y-174611000D01*
X103716923Y-174514453D01*
X104490673Y-173997450D01*
X105007676Y-173223700D01*
X105189223Y-172311000D01*
X105007676Y-171398300D01*
X104490673Y-170624550D01*
X103716923Y-170107547D01*
X102804223Y-169926000D01*
X102200977Y-169926000D01*
X101288277Y-170107547D01*
X100514527Y-170624550D01*
X99997524Y-171398300D01*
X99815977Y-172311000D01*
X94189223Y-172311000D01*
X94007676Y-171398300D01*
X93490673Y-170624550D01*
X92716923Y-170107547D01*
X91804223Y-169926000D01*
X91200977Y-169926000D01*
X90288277Y-170107547D01*
X89514527Y-170624550D01*
X88997524Y-171398300D01*
X88815977Y-172311000D01*
X71652200Y-172311000D01*
X71652200Y-152966167D01*
X83011838Y-152966167D01*
X83153883Y-153309943D01*
X83187000Y-153343118D01*
X83187000Y-155901537D01*
X83154808Y-155933673D01*
X83012162Y-156277201D01*
X83011838Y-156649167D01*
X83153883Y-156992943D01*
X83416673Y-157256192D01*
X83760201Y-157398838D01*
X84132167Y-157399162D01*
X84475943Y-157257117D01*
X84739192Y-156994327D01*
X84881838Y-156650799D01*
X84882162Y-156278833D01*
X84740117Y-155935057D01*
X84707000Y-155901882D01*
X84707000Y-155252167D01*
X100385438Y-155252167D01*
X100527483Y-155595943D01*
X100560600Y-155629118D01*
X100560600Y-158441537D01*
X100528408Y-158473673D01*
X100385762Y-158817201D01*
X100385438Y-159189167D01*
X100527483Y-159532943D01*
X100790273Y-159796192D01*
X101133801Y-159938838D01*
X101505767Y-159939162D01*
X101849543Y-159797117D01*
X102112792Y-159534327D01*
X102255438Y-159190799D01*
X102255762Y-158818833D01*
X102113717Y-158475057D01*
X102080600Y-158441882D01*
X102080600Y-155629463D01*
X102112792Y-155597327D01*
X102255438Y-155253799D01*
X102255762Y-154881833D01*
X102113717Y-154538057D01*
X101850927Y-154274808D01*
X101507399Y-154132162D01*
X101135433Y-154131838D01*
X100791657Y-154273883D01*
X100528408Y-154536673D01*
X100385762Y-154880201D01*
X100385438Y-155252167D01*
X84707000Y-155252167D01*
X84707000Y-153343463D01*
X84739192Y-153311327D01*
X84881838Y-152967799D01*
X84882162Y-152595833D01*
X84740117Y-152252057D01*
X84477327Y-151988808D01*
X84133799Y-151846162D01*
X83761833Y-151845838D01*
X83418057Y-151987883D01*
X83154808Y-152250673D01*
X83012162Y-152594201D01*
X83011838Y-152966167D01*
X71652200Y-152966167D01*
X71652200Y-150455900D01*
X84723282Y-150455900D01*
X84885799Y-151272929D01*
X85348609Y-151965573D01*
X86041253Y-152428383D01*
X86858282Y-152590900D01*
X88981118Y-152590900D01*
X89798147Y-152428383D01*
X90490791Y-151965573D01*
X90953601Y-151272929D01*
X91113591Y-150468600D01*
X102876382Y-150468600D01*
X103038899Y-151285629D01*
X103501709Y-151978273D01*
X104194353Y-152441083D01*
X105011382Y-152603600D01*
X107134218Y-152603600D01*
X107951247Y-152441083D01*
X108643891Y-151978273D01*
X109106701Y-151285629D01*
X109269218Y-150468600D01*
X115853382Y-150468600D01*
X116015899Y-151285629D01*
X116478709Y-151978273D01*
X117171353Y-152441083D01*
X117988382Y-152603600D01*
X120111218Y-152603600D01*
X120928247Y-152441083D01*
X121620891Y-151978273D01*
X122083701Y-151285629D01*
X122246218Y-150468600D01*
X122083701Y-149651571D01*
X121620891Y-148958927D01*
X120928247Y-148496117D01*
X120111218Y-148333600D01*
X117988382Y-148333600D01*
X117171353Y-148496117D01*
X116478709Y-148958927D01*
X116015899Y-149651571D01*
X115853382Y-150468600D01*
X109269218Y-150468600D01*
X109106701Y-149651571D01*
X108643891Y-148958927D01*
X107951247Y-148496117D01*
X107134218Y-148333600D01*
X105011382Y-148333600D01*
X104194353Y-148496117D01*
X103501709Y-148958927D01*
X103038899Y-149651571D01*
X102876382Y-150468600D01*
X91113591Y-150468600D01*
X91116118Y-150455900D01*
X90953601Y-149638871D01*
X90490791Y-148946227D01*
X89798147Y-148483417D01*
X88981118Y-148320900D01*
X86858282Y-148320900D01*
X86041253Y-148483417D01*
X85348609Y-148946227D01*
X84885799Y-149638871D01*
X84723282Y-150455900D01*
X71652200Y-150455900D01*
X71652200Y-140520167D01*
X97616838Y-140520167D01*
X97667000Y-140641569D01*
X97667000Y-146886178D01*
X97617162Y-147006201D01*
X97616838Y-147378167D01*
X97758883Y-147721943D01*
X98021673Y-147985192D01*
X98365201Y-148127838D01*
X98737167Y-148128162D01*
X99080943Y-147986117D01*
X99344192Y-147723327D01*
X99486838Y-147379799D01*
X99487162Y-147007833D01*
X99437000Y-146886431D01*
X99437000Y-140641822D01*
X99486838Y-140521799D01*
X99487162Y-140149833D01*
X99345117Y-139806057D01*
X99082327Y-139542808D01*
X98738799Y-139400162D01*
X98366833Y-139399838D01*
X98023057Y-139541883D01*
X97759808Y-139804673D01*
X97617162Y-140148201D01*
X97616838Y-140520167D01*
X71652200Y-140520167D01*
X71652200Y-138361167D01*
X102696838Y-138361167D01*
X102838883Y-138704943D01*
X102872000Y-138738118D01*
X102872000Y-139645537D01*
X102839808Y-139677673D01*
X102697162Y-140021201D01*
X102696838Y-140393167D01*
X102838883Y-140736943D01*
X103101673Y-141000192D01*
X103445201Y-141142838D01*
X103817167Y-141143162D01*
X104160943Y-141001117D01*
X104266954Y-140895290D01*
X104371673Y-141000192D01*
X104715201Y-141142838D01*
X105087167Y-141143162D01*
X105430943Y-141001117D01*
X105694192Y-140738327D01*
X105836838Y-140394799D01*
X105837162Y-140022833D01*
X105695117Y-139679057D01*
X105662000Y-139645882D01*
X105662000Y-138738463D01*
X105694192Y-138706327D01*
X105836838Y-138362799D01*
X105837162Y-137990833D01*
X105695117Y-137647057D01*
X105432327Y-137383808D01*
X105088799Y-137241162D01*
X104716833Y-137240838D01*
X104373057Y-137382883D01*
X104267046Y-137488710D01*
X104162327Y-137383808D01*
X103818799Y-137241162D01*
X103446833Y-137240838D01*
X103103057Y-137382883D01*
X102839808Y-137645673D01*
X102697162Y-137989201D01*
X102696838Y-138361167D01*
X71652200Y-138361167D01*
X71652200Y-134455900D01*
X71746282Y-134455900D01*
X71908799Y-135272929D01*
X72371609Y-135965573D01*
X73064253Y-136428383D01*
X73881282Y-136590900D01*
X76004118Y-136590900D01*
X76821147Y-136428383D01*
X77513791Y-135965573D01*
X77976601Y-135272929D01*
X78139118Y-134455900D01*
X84723282Y-134455900D01*
X84885799Y-135272929D01*
X85348609Y-135965573D01*
X86041253Y-136428383D01*
X86858282Y-136590900D01*
X88981118Y-136590900D01*
X89798147Y-136428383D01*
X90490791Y-135965573D01*
X90953601Y-135272929D01*
X91113591Y-134468600D01*
X102876382Y-134468600D01*
X103038899Y-135285629D01*
X103501709Y-135978273D01*
X104194353Y-136441083D01*
X105011382Y-136603600D01*
X107134218Y-136603600D01*
X107951247Y-136441083D01*
X108643891Y-135978273D01*
X109106701Y-135285629D01*
X109269218Y-134468600D01*
X109106701Y-133651571D01*
X108643891Y-132958927D01*
X107951247Y-132496117D01*
X107134218Y-132333600D01*
X105011382Y-132333600D01*
X104194353Y-132496117D01*
X103501709Y-132958927D01*
X103038899Y-133651571D01*
X102876382Y-134468600D01*
X91113591Y-134468600D01*
X91116118Y-134455900D01*
X90953601Y-133638871D01*
X90490791Y-132946227D01*
X89798147Y-132483417D01*
X88981118Y-132320900D01*
X86858282Y-132320900D01*
X86041253Y-132483417D01*
X85348609Y-132946227D01*
X84885799Y-133638871D01*
X84723282Y-134455900D01*
X78139118Y-134455900D01*
X77976601Y-133638871D01*
X77513791Y-132946227D01*
X76821147Y-132483417D01*
X76004118Y-132320900D01*
X73881282Y-132320900D01*
X73064253Y-132483417D01*
X72371609Y-132946227D01*
X71908799Y-133638871D01*
X71746282Y-134455900D01*
X71652200Y-134455900D01*
X71652200Y-115992400D01*
X71809360Y-115992400D01*
X71809360Y-117992400D01*
X71853638Y-118227717D01*
X71992710Y-118443841D01*
X72135361Y-118541310D01*
X72071522Y-118605037D01*
X71822084Y-119205752D01*
X71821516Y-119856195D01*
X72069906Y-120457343D01*
X72414559Y-120802599D01*
X72071522Y-121145037D01*
X71822084Y-121745752D01*
X71821516Y-122396195D01*
X72069906Y-122997343D01*
X72414559Y-123342599D01*
X72071522Y-123685037D01*
X71822084Y-124285752D01*
X71821516Y-124936195D01*
X72069906Y-125537343D01*
X72529437Y-125997678D01*
X73130152Y-126247116D01*
X73780595Y-126247684D01*
X74381743Y-125999294D01*
X74842078Y-125539763D01*
X75091516Y-124939048D01*
X75091994Y-124391167D01*
X94314838Y-124391167D01*
X94456883Y-124734943D01*
X94490000Y-124768118D01*
X94490000Y-127453537D01*
X94457808Y-127485673D01*
X94315162Y-127829201D01*
X94314838Y-128201167D01*
X94456883Y-128544943D01*
X94719673Y-128808192D01*
X95063201Y-128950838D01*
X95435167Y-128951162D01*
X95778943Y-128809117D01*
X96042192Y-128546327D01*
X96184838Y-128202799D01*
X96185162Y-127830833D01*
X96043117Y-127487057D01*
X96010000Y-127453882D01*
X96010000Y-124768463D01*
X96042192Y-124736327D01*
X96184838Y-124392799D01*
X96185162Y-124020833D01*
X96043117Y-123677057D01*
X95978573Y-123612400D01*
X118850160Y-123612400D01*
X118850160Y-125612400D01*
X118894438Y-125847717D01*
X119033510Y-126063841D01*
X119245710Y-126208831D01*
X119497600Y-126259840D01*
X121497600Y-126259840D01*
X121732917Y-126215562D01*
X121949041Y-126076490D01*
X122094031Y-125864290D01*
X122145040Y-125612400D01*
X122145040Y-123612400D01*
X122100762Y-123377083D01*
X121961690Y-123160959D01*
X121819039Y-123063490D01*
X121882878Y-122999763D01*
X122132316Y-122399048D01*
X122132884Y-121748605D01*
X121884494Y-121147457D01*
X121539841Y-120802201D01*
X121882878Y-120459763D01*
X122132316Y-119859048D01*
X122132884Y-119208605D01*
X121884494Y-118607457D01*
X121539841Y-118262201D01*
X121882878Y-117919763D01*
X122132316Y-117319048D01*
X122132884Y-116668605D01*
X121884494Y-116067457D01*
X121424963Y-115607122D01*
X120824248Y-115357684D01*
X120173805Y-115357116D01*
X119572657Y-115605506D01*
X119112322Y-116065037D01*
X118862884Y-116665752D01*
X118862316Y-117316195D01*
X119110706Y-117917343D01*
X119455359Y-118262599D01*
X119112322Y-118605037D01*
X118862884Y-119205752D01*
X118862316Y-119856195D01*
X119110706Y-120457343D01*
X119455359Y-120802599D01*
X119112322Y-121145037D01*
X118862884Y-121745752D01*
X118862316Y-122396195D01*
X119110706Y-122997343D01*
X119177221Y-123063974D01*
X119046159Y-123148310D01*
X118901169Y-123360510D01*
X118850160Y-123612400D01*
X95978573Y-123612400D01*
X95780327Y-123413808D01*
X95436799Y-123271162D01*
X95064833Y-123270838D01*
X94721057Y-123412883D01*
X94457808Y-123675673D01*
X94315162Y-124019201D01*
X94314838Y-124391167D01*
X75091994Y-124391167D01*
X75092084Y-124288605D01*
X74843694Y-123687457D01*
X74499041Y-123342201D01*
X74842078Y-122999763D01*
X75091516Y-122399048D01*
X75092084Y-121748605D01*
X74843694Y-121147457D01*
X74499041Y-120802201D01*
X74842078Y-120459763D01*
X75091516Y-119859048D01*
X75092084Y-119208605D01*
X74843694Y-118607457D01*
X74777179Y-118540826D01*
X74908241Y-118456490D01*
X75053231Y-118244290D01*
X75104240Y-117992400D01*
X75104240Y-115992400D01*
X75059962Y-115757083D01*
X74920890Y-115540959D01*
X74708690Y-115395969D01*
X74456800Y-115344960D01*
X72456800Y-115344960D01*
X72221483Y-115389238D01*
X72005359Y-115528310D01*
X71860369Y-115740510D01*
X71809360Y-115992400D01*
X71652200Y-115992400D01*
X71652200Y-112199167D01*
X91647838Y-112199167D01*
X91789883Y-112542943D01*
X91823000Y-112576118D01*
X91823000Y-112848537D01*
X91790808Y-112880673D01*
X91648162Y-113224201D01*
X91647838Y-113596167D01*
X91789883Y-113939943D01*
X92052673Y-114203192D01*
X92396201Y-114345838D01*
X92768167Y-114346162D01*
X93111943Y-114204117D01*
X93375192Y-113941327D01*
X93517838Y-113597799D01*
X93518162Y-113225833D01*
X93376117Y-112882057D01*
X93343000Y-112848882D01*
X93343000Y-112576463D01*
X93375192Y-112544327D01*
X93517838Y-112200799D01*
X93518162Y-111828833D01*
X93376117Y-111485057D01*
X93113327Y-111221808D01*
X92769799Y-111079162D01*
X92397833Y-111078838D01*
X92054057Y-111220883D01*
X91790808Y-111483673D01*
X91648162Y-111827201D01*
X91647838Y-112199167D01*
X71652200Y-112199167D01*
X71652200Y-106611167D01*
X97108838Y-106611167D01*
X97250883Y-106954943D01*
X97513673Y-107218192D01*
X97857201Y-107360838D01*
X98229167Y-107361162D01*
X98572943Y-107219117D01*
X98606118Y-107186000D01*
X99767537Y-107186000D01*
X99799673Y-107218192D01*
X100143201Y-107360838D01*
X100515167Y-107361162D01*
X100858943Y-107219117D01*
X101122192Y-106956327D01*
X101264838Y-106612799D01*
X101265162Y-106240833D01*
X101123117Y-105897057D01*
X100860327Y-105633808D01*
X100516799Y-105491162D01*
X100144833Y-105490838D01*
X99801057Y-105632883D01*
X99767882Y-105666000D01*
X98606463Y-105666000D01*
X98574327Y-105633808D01*
X98230799Y-105491162D01*
X97858833Y-105490838D01*
X97515057Y-105632883D01*
X97251808Y-105895673D01*
X97109162Y-106239201D01*
X97108838Y-106611167D01*
X71652200Y-106611167D01*
X71652200Y-95456500D01*
X71822060Y-95456500D01*
X71822060Y-97456500D01*
X71866338Y-97691817D01*
X72005410Y-97907941D01*
X72148061Y-98005410D01*
X72084222Y-98069137D01*
X71834784Y-98669852D01*
X71834216Y-99320295D01*
X72082606Y-99921443D01*
X72427259Y-100266699D01*
X72084222Y-100609137D01*
X71834784Y-101209852D01*
X71834216Y-101860295D01*
X72082606Y-102461443D01*
X72427259Y-102806699D01*
X72084222Y-103149137D01*
X71834784Y-103749852D01*
X71834216Y-104400295D01*
X72082606Y-105001443D01*
X72542137Y-105461778D01*
X73142852Y-105711216D01*
X73793295Y-105711784D01*
X74394443Y-105463394D01*
X74854778Y-105003863D01*
X75104216Y-104403148D01*
X75104784Y-103752705D01*
X74856394Y-103151557D01*
X74511741Y-102806301D01*
X74854778Y-102463863D01*
X75104216Y-101863148D01*
X75104784Y-101212705D01*
X74856394Y-100611557D01*
X74511741Y-100266301D01*
X74854778Y-99923863D01*
X75104216Y-99323148D01*
X75104784Y-98672705D01*
X74856394Y-98071557D01*
X74789879Y-98004926D01*
X74920941Y-97920590D01*
X75065931Y-97708390D01*
X75116940Y-97456500D01*
X75116940Y-95469200D01*
X118799360Y-95469200D01*
X118799360Y-97469200D01*
X118843638Y-97704517D01*
X118982710Y-97920641D01*
X119125361Y-98018110D01*
X119061522Y-98081837D01*
X118812084Y-98682552D01*
X118811516Y-99332995D01*
X119059906Y-99934143D01*
X119404559Y-100279399D01*
X119061522Y-100621837D01*
X118812084Y-101222552D01*
X118811516Y-101872995D01*
X119059906Y-102474143D01*
X119404559Y-102819399D01*
X119061522Y-103161837D01*
X118812084Y-103762552D01*
X118811516Y-104412995D01*
X119059906Y-105014143D01*
X119519437Y-105474478D01*
X120120152Y-105723916D01*
X120770595Y-105724484D01*
X121371743Y-105476094D01*
X121832078Y-105016563D01*
X122081516Y-104415848D01*
X122082084Y-103765405D01*
X121833694Y-103164257D01*
X121489041Y-102819001D01*
X121832078Y-102476563D01*
X122081516Y-101875848D01*
X122082084Y-101225405D01*
X121833694Y-100624257D01*
X121489041Y-100279001D01*
X121832078Y-99936563D01*
X122081516Y-99335848D01*
X122082084Y-98685405D01*
X121833694Y-98084257D01*
X121767179Y-98017626D01*
X121898241Y-97933290D01*
X122043231Y-97721090D01*
X122094240Y-97469200D01*
X122094240Y-95469200D01*
X122049962Y-95233883D01*
X121910890Y-95017759D01*
X121698690Y-94872769D01*
X121446800Y-94821760D01*
X119446800Y-94821760D01*
X119211483Y-94866038D01*
X118995359Y-95005110D01*
X118850369Y-95217310D01*
X118799360Y-95469200D01*
X75116940Y-95469200D01*
X75116940Y-95456500D01*
X75072662Y-95221183D01*
X74933590Y-95005059D01*
X74721390Y-94860069D01*
X74469500Y-94809060D01*
X72469500Y-94809060D01*
X72234183Y-94853338D01*
X72018059Y-94992410D01*
X71873069Y-95204610D01*
X71822060Y-95456500D01*
X71652200Y-95456500D01*
X71652200Y-91464200D01*
X77927200Y-91464200D01*
X78198905Y-91410154D01*
X78429246Y-91256246D01*
X78583154Y-91025905D01*
X78637200Y-90754200D01*
X78637200Y-90627000D01*
X79326060Y-90627000D01*
X79326060Y-94127000D01*
X79370338Y-94362317D01*
X79509410Y-94578441D01*
X79721610Y-94723431D01*
X79973500Y-94774440D01*
X83473500Y-94774440D01*
X83708817Y-94730162D01*
X83924941Y-94591090D01*
X84069931Y-94378890D01*
X84120940Y-94127000D01*
X84120940Y-91440955D01*
X84209410Y-91578441D01*
X84421610Y-91723431D01*
X84673500Y-91774440D01*
X88173500Y-91774440D01*
X88408817Y-91730162D01*
X88624941Y-91591090D01*
X88769931Y-91378890D01*
X88820940Y-91127000D01*
X88820940Y-87627000D01*
X88776662Y-87391683D01*
X88637590Y-87175559D01*
X88425390Y-87030569D01*
X88173500Y-86979560D01*
X84673500Y-86979560D01*
X84438183Y-87023838D01*
X84222059Y-87162910D01*
X84077069Y-87375110D01*
X84026060Y-87627000D01*
X84026060Y-90313045D01*
X83937590Y-90175559D01*
X83725390Y-90030569D01*
X83473500Y-89979560D01*
X79973500Y-89979560D01*
X79738183Y-90023838D01*
X79522059Y-90162910D01*
X79377069Y-90375110D01*
X79326060Y-90627000D01*
X78637200Y-90627000D01*
X78637200Y-84479200D01*
X115317200Y-84479200D01*
X115317200Y-90754200D01*
X115317200Y-90754200D01*
G37*
X115317200Y-90754200D02*
X115371246Y-91025905D01*
X115525154Y-91256246D01*
X115755495Y-91410154D01*
X116027200Y-91464200D01*
X122302200Y-91464200D01*
X122302200Y-180087200D01*
X116027200Y-180087200D01*
X115755495Y-180141246D01*
X115525154Y-180295154D01*
X115371246Y-180525495D01*
X115317200Y-180797200D01*
X115317200Y-187072200D01*
X78637200Y-187072200D01*
X78637200Y-180797200D01*
X78583154Y-180525495D01*
X78429246Y-180295154D01*
X78198905Y-180141246D01*
X77927200Y-180087200D01*
X71652200Y-180087200D01*
X71652200Y-172311000D01*
X88815977Y-172311000D01*
X88997524Y-173223700D01*
X89514527Y-173997450D01*
X90288277Y-174514453D01*
X90773652Y-174611000D01*
X90288277Y-174707547D01*
X89514527Y-175224550D01*
X88997524Y-175998300D01*
X88815977Y-176911000D01*
X88997524Y-177823700D01*
X89514527Y-178597450D01*
X90288277Y-179114453D01*
X90773652Y-179211000D01*
X90288277Y-179307547D01*
X89514527Y-179824550D01*
X88997524Y-180598300D01*
X88815977Y-181511000D01*
X88997524Y-182423700D01*
X89514527Y-183197450D01*
X90288277Y-183714453D01*
X91200977Y-183896000D01*
X91804223Y-183896000D01*
X92716923Y-183714453D01*
X93490673Y-183197450D01*
X94007676Y-182423700D01*
X94189223Y-181511000D01*
X94007676Y-180598300D01*
X93490673Y-179824550D01*
X92716923Y-179307547D01*
X92231548Y-179211000D01*
X92716923Y-179114453D01*
X93490673Y-178597450D01*
X94007676Y-177823700D01*
X94189223Y-176911000D01*
X94315977Y-176911000D01*
X94497524Y-177823700D01*
X95014527Y-178597450D01*
X95788277Y-179114453D01*
X96273652Y-179211000D01*
X95788277Y-179307547D01*
X95014527Y-179824550D01*
X94497524Y-180598300D01*
X94315977Y-181511000D01*
X94497524Y-182423700D01*
X95014527Y-183197450D01*
X95788277Y-183714453D01*
X96700977Y-183896000D01*
X97304223Y-183896000D01*
X98216923Y-183714453D01*
X98990673Y-183197450D01*
X99507676Y-182423700D01*
X99689223Y-181511000D01*
X99507676Y-180598300D01*
X98990673Y-179824550D01*
X98216923Y-179307547D01*
X97731548Y-179211000D01*
X98216923Y-179114453D01*
X98990673Y-178597450D01*
X99507676Y-177823700D01*
X99689223Y-176911000D01*
X99507676Y-175998300D01*
X98990673Y-175224550D01*
X98216923Y-174707547D01*
X97304223Y-174526000D01*
X96700977Y-174526000D01*
X95788277Y-174707547D01*
X95014527Y-175224550D01*
X94497524Y-175998300D01*
X94315977Y-176911000D01*
X94189223Y-176911000D01*
X94007676Y-175998300D01*
X93490673Y-175224550D01*
X92716923Y-174707547D01*
X92231548Y-174611000D01*
X92716923Y-174514453D01*
X93490673Y-173997450D01*
X94007676Y-173223700D01*
X94189223Y-172311000D01*
X99815977Y-172311000D01*
X99997524Y-173223700D01*
X100514527Y-173997450D01*
X101288277Y-174514453D01*
X101773652Y-174611000D01*
X101288277Y-174707547D01*
X100514527Y-175224550D01*
X99997524Y-175998300D01*
X99815977Y-176911000D01*
X99997524Y-177823700D01*
X100514527Y-178597450D01*
X101288277Y-179114453D01*
X101773652Y-179211000D01*
X101288277Y-179307547D01*
X100514527Y-179824550D01*
X99997524Y-180598300D01*
X99815977Y-181511000D01*
X99997524Y-182423700D01*
X100514527Y-183197450D01*
X101288277Y-183714453D01*
X102200977Y-183896000D01*
X102804223Y-183896000D01*
X103716923Y-183714453D01*
X104490673Y-183197450D01*
X105007676Y-182423700D01*
X105189223Y-181511000D01*
X105007676Y-180598300D01*
X104490673Y-179824550D01*
X103716923Y-179307547D01*
X103231548Y-179211000D01*
X103716923Y-179114453D01*
X104490673Y-178597450D01*
X105007676Y-177823700D01*
X105189223Y-176911000D01*
X105007676Y-175998300D01*
X104490673Y-175224550D01*
X103716923Y-174707547D01*
X103231548Y-174611000D01*
X103716923Y-174514453D01*
X104490673Y-173997450D01*
X105007676Y-173223700D01*
X105189223Y-172311000D01*
X105007676Y-171398300D01*
X104490673Y-170624550D01*
X103716923Y-170107547D01*
X102804223Y-169926000D01*
X102200977Y-169926000D01*
X101288277Y-170107547D01*
X100514527Y-170624550D01*
X99997524Y-171398300D01*
X99815977Y-172311000D01*
X94189223Y-172311000D01*
X94007676Y-171398300D01*
X93490673Y-170624550D01*
X92716923Y-170107547D01*
X91804223Y-169926000D01*
X91200977Y-169926000D01*
X90288277Y-170107547D01*
X89514527Y-170624550D01*
X88997524Y-171398300D01*
X88815977Y-172311000D01*
X71652200Y-172311000D01*
X71652200Y-152966167D01*
X83011838Y-152966167D01*
X83153883Y-153309943D01*
X83187000Y-153343118D01*
X83187000Y-155901537D01*
X83154808Y-155933673D01*
X83012162Y-156277201D01*
X83011838Y-156649167D01*
X83153883Y-156992943D01*
X83416673Y-157256192D01*
X83760201Y-157398838D01*
X84132167Y-157399162D01*
X84475943Y-157257117D01*
X84739192Y-156994327D01*
X84881838Y-156650799D01*
X84882162Y-156278833D01*
X84740117Y-155935057D01*
X84707000Y-155901882D01*
X84707000Y-155252167D01*
X100385438Y-155252167D01*
X100527483Y-155595943D01*
X100560600Y-155629118D01*
X100560600Y-158441537D01*
X100528408Y-158473673D01*
X100385762Y-158817201D01*
X100385438Y-159189167D01*
X100527483Y-159532943D01*
X100790273Y-159796192D01*
X101133801Y-159938838D01*
X101505767Y-159939162D01*
X101849543Y-159797117D01*
X102112792Y-159534327D01*
X102255438Y-159190799D01*
X102255762Y-158818833D01*
X102113717Y-158475057D01*
X102080600Y-158441882D01*
X102080600Y-155629463D01*
X102112792Y-155597327D01*
X102255438Y-155253799D01*
X102255762Y-154881833D01*
X102113717Y-154538057D01*
X101850927Y-154274808D01*
X101507399Y-154132162D01*
X101135433Y-154131838D01*
X100791657Y-154273883D01*
X100528408Y-154536673D01*
X100385762Y-154880201D01*
X100385438Y-155252167D01*
X84707000Y-155252167D01*
X84707000Y-153343463D01*
X84739192Y-153311327D01*
X84881838Y-152967799D01*
X84882162Y-152595833D01*
X84740117Y-152252057D01*
X84477327Y-151988808D01*
X84133799Y-151846162D01*
X83761833Y-151845838D01*
X83418057Y-151987883D01*
X83154808Y-152250673D01*
X83012162Y-152594201D01*
X83011838Y-152966167D01*
X71652200Y-152966167D01*
X71652200Y-150455900D01*
X84723282Y-150455900D01*
X84885799Y-151272929D01*
X85348609Y-151965573D01*
X86041253Y-152428383D01*
X86858282Y-152590900D01*
X88981118Y-152590900D01*
X89798147Y-152428383D01*
X90490791Y-151965573D01*
X90953601Y-151272929D01*
X91113591Y-150468600D01*
X102876382Y-150468600D01*
X103038899Y-151285629D01*
X103501709Y-151978273D01*
X104194353Y-152441083D01*
X105011382Y-152603600D01*
X107134218Y-152603600D01*
X107951247Y-152441083D01*
X108643891Y-151978273D01*
X109106701Y-151285629D01*
X109269218Y-150468600D01*
X115853382Y-150468600D01*
X116015899Y-151285629D01*
X116478709Y-151978273D01*
X117171353Y-152441083D01*
X117988382Y-152603600D01*
X120111218Y-152603600D01*
X120928247Y-152441083D01*
X121620891Y-151978273D01*
X122083701Y-151285629D01*
X122246218Y-150468600D01*
X122083701Y-149651571D01*
X121620891Y-148958927D01*
X120928247Y-148496117D01*
X120111218Y-148333600D01*
X117988382Y-148333600D01*
X117171353Y-148496117D01*
X116478709Y-148958927D01*
X116015899Y-149651571D01*
X115853382Y-150468600D01*
X109269218Y-150468600D01*
X109106701Y-149651571D01*
X108643891Y-148958927D01*
X107951247Y-148496117D01*
X107134218Y-148333600D01*
X105011382Y-148333600D01*
X104194353Y-148496117D01*
X103501709Y-148958927D01*
X103038899Y-149651571D01*
X102876382Y-150468600D01*
X91113591Y-150468600D01*
X91116118Y-150455900D01*
X90953601Y-149638871D01*
X90490791Y-148946227D01*
X89798147Y-148483417D01*
X88981118Y-148320900D01*
X86858282Y-148320900D01*
X86041253Y-148483417D01*
X85348609Y-148946227D01*
X84885799Y-149638871D01*
X84723282Y-150455900D01*
X71652200Y-150455900D01*
X71652200Y-140520167D01*
X97616838Y-140520167D01*
X97667000Y-140641569D01*
X97667000Y-146886178D01*
X97617162Y-147006201D01*
X97616838Y-147378167D01*
X97758883Y-147721943D01*
X98021673Y-147985192D01*
X98365201Y-148127838D01*
X98737167Y-148128162D01*
X99080943Y-147986117D01*
X99344192Y-147723327D01*
X99486838Y-147379799D01*
X99487162Y-147007833D01*
X99437000Y-146886431D01*
X99437000Y-140641822D01*
X99486838Y-140521799D01*
X99487162Y-140149833D01*
X99345117Y-139806057D01*
X99082327Y-139542808D01*
X98738799Y-139400162D01*
X98366833Y-139399838D01*
X98023057Y-139541883D01*
X97759808Y-139804673D01*
X97617162Y-140148201D01*
X97616838Y-140520167D01*
X71652200Y-140520167D01*
X71652200Y-138361167D01*
X102696838Y-138361167D01*
X102838883Y-138704943D01*
X102872000Y-138738118D01*
X102872000Y-139645537D01*
X102839808Y-139677673D01*
X102697162Y-140021201D01*
X102696838Y-140393167D01*
X102838883Y-140736943D01*
X103101673Y-141000192D01*
X103445201Y-141142838D01*
X103817167Y-141143162D01*
X104160943Y-141001117D01*
X104266954Y-140895290D01*
X104371673Y-141000192D01*
X104715201Y-141142838D01*
X105087167Y-141143162D01*
X105430943Y-141001117D01*
X105694192Y-140738327D01*
X105836838Y-140394799D01*
X105837162Y-140022833D01*
X105695117Y-139679057D01*
X105662000Y-139645882D01*
X105662000Y-138738463D01*
X105694192Y-138706327D01*
X105836838Y-138362799D01*
X105837162Y-137990833D01*
X105695117Y-137647057D01*
X105432327Y-137383808D01*
X105088799Y-137241162D01*
X104716833Y-137240838D01*
X104373057Y-137382883D01*
X104267046Y-137488710D01*
X104162327Y-137383808D01*
X103818799Y-137241162D01*
X103446833Y-137240838D01*
X103103057Y-137382883D01*
X102839808Y-137645673D01*
X102697162Y-137989201D01*
X102696838Y-138361167D01*
X71652200Y-138361167D01*
X71652200Y-134455900D01*
X71746282Y-134455900D01*
X71908799Y-135272929D01*
X72371609Y-135965573D01*
X73064253Y-136428383D01*
X73881282Y-136590900D01*
X76004118Y-136590900D01*
X76821147Y-136428383D01*
X77513791Y-135965573D01*
X77976601Y-135272929D01*
X78139118Y-134455900D01*
X84723282Y-134455900D01*
X84885799Y-135272929D01*
X85348609Y-135965573D01*
X86041253Y-136428383D01*
X86858282Y-136590900D01*
X88981118Y-136590900D01*
X89798147Y-136428383D01*
X90490791Y-135965573D01*
X90953601Y-135272929D01*
X91113591Y-134468600D01*
X102876382Y-134468600D01*
X103038899Y-135285629D01*
X103501709Y-135978273D01*
X104194353Y-136441083D01*
X105011382Y-136603600D01*
X107134218Y-136603600D01*
X107951247Y-136441083D01*
X108643891Y-135978273D01*
X109106701Y-135285629D01*
X109269218Y-134468600D01*
X109106701Y-133651571D01*
X108643891Y-132958927D01*
X107951247Y-132496117D01*
X107134218Y-132333600D01*
X105011382Y-132333600D01*
X104194353Y-132496117D01*
X103501709Y-132958927D01*
X103038899Y-133651571D01*
X102876382Y-134468600D01*
X91113591Y-134468600D01*
X91116118Y-134455900D01*
X90953601Y-133638871D01*
X90490791Y-132946227D01*
X89798147Y-132483417D01*
X88981118Y-132320900D01*
X86858282Y-132320900D01*
X86041253Y-132483417D01*
X85348609Y-132946227D01*
X84885799Y-133638871D01*
X84723282Y-134455900D01*
X78139118Y-134455900D01*
X77976601Y-133638871D01*
X77513791Y-132946227D01*
X76821147Y-132483417D01*
X76004118Y-132320900D01*
X73881282Y-132320900D01*
X73064253Y-132483417D01*
X72371609Y-132946227D01*
X71908799Y-133638871D01*
X71746282Y-134455900D01*
X71652200Y-134455900D01*
X71652200Y-115992400D01*
X71809360Y-115992400D01*
X71809360Y-117992400D01*
X71853638Y-118227717D01*
X71992710Y-118443841D01*
X72135361Y-118541310D01*
X72071522Y-118605037D01*
X71822084Y-119205752D01*
X71821516Y-119856195D01*
X72069906Y-120457343D01*
X72414559Y-120802599D01*
X72071522Y-121145037D01*
X71822084Y-121745752D01*
X71821516Y-122396195D01*
X72069906Y-122997343D01*
X72414559Y-123342599D01*
X72071522Y-123685037D01*
X71822084Y-124285752D01*
X71821516Y-124936195D01*
X72069906Y-125537343D01*
X72529437Y-125997678D01*
X73130152Y-126247116D01*
X73780595Y-126247684D01*
X74381743Y-125999294D01*
X74842078Y-125539763D01*
X75091516Y-124939048D01*
X75091994Y-124391167D01*
X94314838Y-124391167D01*
X94456883Y-124734943D01*
X94490000Y-124768118D01*
X94490000Y-127453537D01*
X94457808Y-127485673D01*
X94315162Y-127829201D01*
X94314838Y-128201167D01*
X94456883Y-128544943D01*
X94719673Y-128808192D01*
X95063201Y-128950838D01*
X95435167Y-128951162D01*
X95778943Y-128809117D01*
X96042192Y-128546327D01*
X96184838Y-128202799D01*
X96185162Y-127830833D01*
X96043117Y-127487057D01*
X96010000Y-127453882D01*
X96010000Y-124768463D01*
X96042192Y-124736327D01*
X96184838Y-124392799D01*
X96185162Y-124020833D01*
X96043117Y-123677057D01*
X95978573Y-123612400D01*
X118850160Y-123612400D01*
X118850160Y-125612400D01*
X118894438Y-125847717D01*
X119033510Y-126063841D01*
X119245710Y-126208831D01*
X119497600Y-126259840D01*
X121497600Y-126259840D01*
X121732917Y-126215562D01*
X121949041Y-126076490D01*
X122094031Y-125864290D01*
X122145040Y-125612400D01*
X122145040Y-123612400D01*
X122100762Y-123377083D01*
X121961690Y-123160959D01*
X121819039Y-123063490D01*
X121882878Y-122999763D01*
X122132316Y-122399048D01*
X122132884Y-121748605D01*
X121884494Y-121147457D01*
X121539841Y-120802201D01*
X121882878Y-120459763D01*
X122132316Y-119859048D01*
X122132884Y-119208605D01*
X121884494Y-118607457D01*
X121539841Y-118262201D01*
X121882878Y-117919763D01*
X122132316Y-117319048D01*
X122132884Y-116668605D01*
X121884494Y-116067457D01*
X121424963Y-115607122D01*
X120824248Y-115357684D01*
X120173805Y-115357116D01*
X119572657Y-115605506D01*
X119112322Y-116065037D01*
X118862884Y-116665752D01*
X118862316Y-117316195D01*
X119110706Y-117917343D01*
X119455359Y-118262599D01*
X119112322Y-118605037D01*
X118862884Y-119205752D01*
X118862316Y-119856195D01*
X119110706Y-120457343D01*
X119455359Y-120802599D01*
X119112322Y-121145037D01*
X118862884Y-121745752D01*
X118862316Y-122396195D01*
X119110706Y-122997343D01*
X119177221Y-123063974D01*
X119046159Y-123148310D01*
X118901169Y-123360510D01*
X118850160Y-123612400D01*
X95978573Y-123612400D01*
X95780327Y-123413808D01*
X95436799Y-123271162D01*
X95064833Y-123270838D01*
X94721057Y-123412883D01*
X94457808Y-123675673D01*
X94315162Y-124019201D01*
X94314838Y-124391167D01*
X75091994Y-124391167D01*
X75092084Y-124288605D01*
X74843694Y-123687457D01*
X74499041Y-123342201D01*
X74842078Y-122999763D01*
X75091516Y-122399048D01*
X75092084Y-121748605D01*
X74843694Y-121147457D01*
X74499041Y-120802201D01*
X74842078Y-120459763D01*
X75091516Y-119859048D01*
X75092084Y-119208605D01*
X74843694Y-118607457D01*
X74777179Y-118540826D01*
X74908241Y-118456490D01*
X75053231Y-118244290D01*
X75104240Y-117992400D01*
X75104240Y-115992400D01*
X75059962Y-115757083D01*
X74920890Y-115540959D01*
X74708690Y-115395969D01*
X74456800Y-115344960D01*
X72456800Y-115344960D01*
X72221483Y-115389238D01*
X72005359Y-115528310D01*
X71860369Y-115740510D01*
X71809360Y-115992400D01*
X71652200Y-115992400D01*
X71652200Y-112199167D01*
X91647838Y-112199167D01*
X91789883Y-112542943D01*
X91823000Y-112576118D01*
X91823000Y-112848537D01*
X91790808Y-112880673D01*
X91648162Y-113224201D01*
X91647838Y-113596167D01*
X91789883Y-113939943D01*
X92052673Y-114203192D01*
X92396201Y-114345838D01*
X92768167Y-114346162D01*
X93111943Y-114204117D01*
X93375192Y-113941327D01*
X93517838Y-113597799D01*
X93518162Y-113225833D01*
X93376117Y-112882057D01*
X93343000Y-112848882D01*
X93343000Y-112576463D01*
X93375192Y-112544327D01*
X93517838Y-112200799D01*
X93518162Y-111828833D01*
X93376117Y-111485057D01*
X93113327Y-111221808D01*
X92769799Y-111079162D01*
X92397833Y-111078838D01*
X92054057Y-111220883D01*
X91790808Y-111483673D01*
X91648162Y-111827201D01*
X91647838Y-112199167D01*
X71652200Y-112199167D01*
X71652200Y-106611167D01*
X97108838Y-106611167D01*
X97250883Y-106954943D01*
X97513673Y-107218192D01*
X97857201Y-107360838D01*
X98229167Y-107361162D01*
X98572943Y-107219117D01*
X98606118Y-107186000D01*
X99767537Y-107186000D01*
X99799673Y-107218192D01*
X100143201Y-107360838D01*
X100515167Y-107361162D01*
X100858943Y-107219117D01*
X101122192Y-106956327D01*
X101264838Y-106612799D01*
X101265162Y-106240833D01*
X101123117Y-105897057D01*
X100860327Y-105633808D01*
X100516799Y-105491162D01*
X100144833Y-105490838D01*
X99801057Y-105632883D01*
X99767882Y-105666000D01*
X98606463Y-105666000D01*
X98574327Y-105633808D01*
X98230799Y-105491162D01*
X97858833Y-105490838D01*
X97515057Y-105632883D01*
X97251808Y-105895673D01*
X97109162Y-106239201D01*
X97108838Y-106611167D01*
X71652200Y-106611167D01*
X71652200Y-95456500D01*
X71822060Y-95456500D01*
X71822060Y-97456500D01*
X71866338Y-97691817D01*
X72005410Y-97907941D01*
X72148061Y-98005410D01*
X72084222Y-98069137D01*
X71834784Y-98669852D01*
X71834216Y-99320295D01*
X72082606Y-99921443D01*
X72427259Y-100266699D01*
X72084222Y-100609137D01*
X71834784Y-101209852D01*
X71834216Y-101860295D01*
X72082606Y-102461443D01*
X72427259Y-102806699D01*
X72084222Y-103149137D01*
X71834784Y-103749852D01*
X71834216Y-104400295D01*
X72082606Y-105001443D01*
X72542137Y-105461778D01*
X73142852Y-105711216D01*
X73793295Y-105711784D01*
X74394443Y-105463394D01*
X74854778Y-105003863D01*
X75104216Y-104403148D01*
X75104784Y-103752705D01*
X74856394Y-103151557D01*
X74511741Y-102806301D01*
X74854778Y-102463863D01*
X75104216Y-101863148D01*
X75104784Y-101212705D01*
X74856394Y-100611557D01*
X74511741Y-100266301D01*
X74854778Y-99923863D01*
X75104216Y-99323148D01*
X75104784Y-98672705D01*
X74856394Y-98071557D01*
X74789879Y-98004926D01*
X74920941Y-97920590D01*
X75065931Y-97708390D01*
X75116940Y-97456500D01*
X75116940Y-95469200D01*
X118799360Y-95469200D01*
X118799360Y-97469200D01*
X118843638Y-97704517D01*
X118982710Y-97920641D01*
X119125361Y-98018110D01*
X119061522Y-98081837D01*
X118812084Y-98682552D01*
X118811516Y-99332995D01*
X119059906Y-99934143D01*
X119404559Y-100279399D01*
X119061522Y-100621837D01*
X118812084Y-101222552D01*
X118811516Y-101872995D01*
X119059906Y-102474143D01*
X119404559Y-102819399D01*
X119061522Y-103161837D01*
X118812084Y-103762552D01*
X118811516Y-104412995D01*
X119059906Y-105014143D01*
X119519437Y-105474478D01*
X120120152Y-105723916D01*
X120770595Y-105724484D01*
X121371743Y-105476094D01*
X121832078Y-105016563D01*
X122081516Y-104415848D01*
X122082084Y-103765405D01*
X121833694Y-103164257D01*
X121489041Y-102819001D01*
X121832078Y-102476563D01*
X122081516Y-101875848D01*
X122082084Y-101225405D01*
X121833694Y-100624257D01*
X121489041Y-100279001D01*
X121832078Y-99936563D01*
X122081516Y-99335848D01*
X122082084Y-98685405D01*
X121833694Y-98084257D01*
X121767179Y-98017626D01*
X121898241Y-97933290D01*
X122043231Y-97721090D01*
X122094240Y-97469200D01*
X122094240Y-95469200D01*
X122049962Y-95233883D01*
X121910890Y-95017759D01*
X121698690Y-94872769D01*
X121446800Y-94821760D01*
X119446800Y-94821760D01*
X119211483Y-94866038D01*
X118995359Y-95005110D01*
X118850369Y-95217310D01*
X118799360Y-95469200D01*
X75116940Y-95469200D01*
X75116940Y-95456500D01*
X75072662Y-95221183D01*
X74933590Y-95005059D01*
X74721390Y-94860069D01*
X74469500Y-94809060D01*
X72469500Y-94809060D01*
X72234183Y-94853338D01*
X72018059Y-94992410D01*
X71873069Y-95204610D01*
X71822060Y-95456500D01*
X71652200Y-95456500D01*
X71652200Y-91464200D01*
X77927200Y-91464200D01*
X78198905Y-91410154D01*
X78429246Y-91256246D01*
X78583154Y-91025905D01*
X78637200Y-90754200D01*
X78637200Y-90627000D01*
X79326060Y-90627000D01*
X79326060Y-94127000D01*
X79370338Y-94362317D01*
X79509410Y-94578441D01*
X79721610Y-94723431D01*
X79973500Y-94774440D01*
X83473500Y-94774440D01*
X83708817Y-94730162D01*
X83924941Y-94591090D01*
X84069931Y-94378890D01*
X84120940Y-94127000D01*
X84120940Y-91440955D01*
X84209410Y-91578441D01*
X84421610Y-91723431D01*
X84673500Y-91774440D01*
X88173500Y-91774440D01*
X88408817Y-91730162D01*
X88624941Y-91591090D01*
X88769931Y-91378890D01*
X88820940Y-91127000D01*
X88820940Y-87627000D01*
X88776662Y-87391683D01*
X88637590Y-87175559D01*
X88425390Y-87030569D01*
X88173500Y-86979560D01*
X84673500Y-86979560D01*
X84438183Y-87023838D01*
X84222059Y-87162910D01*
X84077069Y-87375110D01*
X84026060Y-87627000D01*
X84026060Y-90313045D01*
X83937590Y-90175559D01*
X83725390Y-90030569D01*
X83473500Y-89979560D01*
X79973500Y-89979560D01*
X79738183Y-90023838D01*
X79522059Y-90162910D01*
X79377069Y-90375110D01*
X79326060Y-90627000D01*
X78637200Y-90627000D01*
X78637200Y-84479200D01*
X115317200Y-84479200D01*
X115317200Y-90754200D01*
M02*
