M48
;DRILL file {KiCad 4.0.7} date 01/23/18 15:00:58
;FORMAT={-:-/ absolute / metric / decimal}
FMAT,2
METRIC,TZ
T1C0.400
T2C1.000
T3C2.000
T4C2.000
%
G90
G05
M71
T1
X80.264Y-166.37
X81.991Y-158.242
X83.947Y-152.781
X83.947Y-156.464
X90.881Y-47.066
X91.44Y-104.902
X92.151Y-48.463
X92.583Y-112.014
X92.583Y-113.411
X92.71Y-130.302
X94.818Y-48.463
X95.199Y-47.066
X95.25Y-124.206
X95.25Y-128.016
X96.012Y-96.266
X98.044Y-106.426
X98.095Y-115.773
X98.552Y-140.335
X98.552Y-147.193
X100.33Y-106.426
X101.321Y-155.067
X101.321Y-159.004
X103.257Y-63.383
X103.632Y-138.176
X103.632Y-140.208
X104.019Y-64.145
X104.902Y-138.176
X104.902Y-140.208
X105.543Y-61.097
X106.172Y-162.814
X106.305Y-61.859
X106.559Y-63.637
X106.934Y-143.256
X107.467Y-100.482
X108.337Y-65.415
X110.236Y-149.098
T2
X73.457Y-116.992
X73.457Y-119.532
X73.457Y-122.072
X73.457Y-124.612
X73.469Y-96.456
X73.469Y-98.996
X73.469Y-101.536
X73.469Y-104.076
X73.584Y-44.323
X73.584Y-46.863
X73.584Y-49.403
X73.584Y-51.943
X73.584Y-64.846
X73.584Y-67.386
X73.584Y-69.926
X73.584Y-72.466
X79.531Y-54.204
X79.531Y-75.768
X82.031Y-54.204
X82.031Y-75.768
X84.531Y-54.204
X84.531Y-75.768
X95.739Y-51.09
X98.279Y-51.09
X109.554Y-54.331
X109.605Y-75.59
X112.054Y-54.331
X112.105Y-75.59
X114.554Y-54.331
X114.605Y-75.59
X120.447Y-96.469
X120.447Y-99.009
X120.447Y-101.549
X120.447Y-104.089
X120.498Y-116.992
X120.498Y-119.532
X120.498Y-122.072
X120.498Y-124.612
X120.523Y-44.323
X120.523Y-46.863
X120.523Y-49.403
X120.523Y-51.943
X120.548Y-64.872
X120.548Y-67.412
X120.548Y-69.952
X120.548Y-72.492
T3
X74.92Y-150.456
X74.943Y-134.456
X87.92Y-134.456
X87.92Y-150.456
X91.503Y-172.311
X91.503Y-176.911
X91.503Y-181.511
X97.003Y-172.311
X97.003Y-176.911
X97.003Y-181.511
X102.503Y-172.311
X102.503Y-176.911
X102.503Y-181.511
X106.073Y-134.469
X106.073Y-150.469
X107.705Y-68.59
X116.505Y-68.59
X119.05Y-150.469
X119.073Y-134.469
T4
X77.631Y-47.204
X77.631Y-68.768
X86.431Y-47.204
X86.431Y-68.768
X107.654Y-47.331
X116.454Y-47.331
T2
X81.724Y-91.377G85X81.724Y-93.377
G05
X87.423Y-89.377G85X85.423Y-89.377
G05
X87.423Y-95.377G85X85.423Y-95.377
G05
X97.56Y-63.763G85X96.56Y-63.763
G05
X97.56Y-68.463G85X96.56Y-68.463
G05
X97.56Y-73.163G85X96.56Y-73.163
G05
T0
M30
