M48
;DRILL file {KiCad 4.0.7} date 03/28/18 20:32:27
;FORMAT={-:-/ absolute / metric / decimal}
FMAT,2
METRIC,TZ
T1C0.400
T2C1.000
T3C2.000
T4C2.000
%
G90
G05
M71
T1
X83.757Y-108.585
X83.883Y-99.187
X85.852Y-93.726
X85.852Y-97.409
X87.503Y-113.284
X92.519Y-49.403
X94.488Y-52.959
X94.488Y-54.356
X94.615Y-71.056
X97.155Y-65.151
X97.155Y-68.961
X98.108Y-37.211
X99.949Y-45.085
X100.012Y-56.578
X100.457Y-81.28
X100.457Y-88.138
X102.235Y-45.085
X103.226Y-96.012
X103.251Y-101.6
X104.902Y-105.537
X105.537Y-79.121
X105.537Y-81.153
X106.807Y-79.121
X106.807Y-81.153
X107.823Y-96.012
X108.21Y-152.855
X108.775Y-84.264
X109.988Y-154.633
X110.172Y-40.005
X117.983Y-64.008
X117.983Y-67.246
T2
X75.235Y-133.54
X75.235Y-136.081
X75.235Y-138.62
X75.235Y-141.16
X75.235Y-154.064
X75.235Y-156.604
X75.235Y-159.144
X75.235Y-161.684
X75.362Y-57.937
X75.362Y-60.477
X75.362Y-63.017
X75.362Y-65.557
X75.374Y-37.401
X75.374Y-39.941
X75.374Y-42.481
X75.374Y-45.021
X81.169Y-143.446
X81.169Y-164.782
X83.669Y-143.446
X83.669Y-164.782
X86.169Y-143.446
X86.169Y-164.782
X97.39Y-140.307
X99.93Y-140.307
X111.268Y-143.446
X111.268Y-164.782
X113.768Y-143.446
X113.768Y-164.782
X116.268Y-143.446
X116.268Y-164.782
X122.174Y-133.54
X122.174Y-136.081
X122.174Y-138.62
X122.174Y-141.16
X122.199Y-154.089
X122.199Y-156.629
X122.199Y-159.169
X122.199Y-161.709
X122.352Y-37.414
X122.352Y-39.954
X122.352Y-42.494
X122.352Y-45.034
X122.403Y-57.937
X122.403Y-60.477
X122.403Y-63.017
X122.403Y-65.557
T3
X76.825Y-91.401
X76.848Y-75.401
X89.825Y-75.401
X89.825Y-91.401
X93.408Y-113.256
X93.408Y-117.856
X93.408Y-122.456
X98.908Y-113.256
X98.908Y-117.856
X98.908Y-122.456
X104.408Y-113.256
X104.408Y-117.856
X104.408Y-122.456
X107.978Y-75.414
X107.978Y-91.414
X109.368Y-157.782
X118.168Y-157.782
X120.955Y-91.414
X120.978Y-75.414
T4
X79.269Y-136.446
X79.269Y-157.782
X88.069Y-136.446
X88.069Y-157.782
X109.368Y-136.446
X118.168Y-136.446
T2
X83.629Y-32.322G85X83.629Y-34.322
G05
X89.328Y-30.322G85X87.328Y-30.322
G05
X89.328Y-36.322G85X87.328Y-36.322
G05
T0
M30
