G04 #@! TF.FileFunction,Legend,Top*
%FSLAX46Y46*%
G04 Gerber Fmt 4.6, Leading zero omitted, Abs format (unit mm)*
G04 Created by KiCad (PCBNEW 4.0.7) date 03/28/18 20:32:25*
%MOMM*%
%LPD*%
G01*
G04 APERTURE LIST*
%ADD10C,0.100000*%
%ADD11C,0.300000*%
%ADD12C,0.200000*%
%ADD13C,0.150000*%
%ADD14C,0.120000*%
%ADD15C,0.015000*%
G04 APERTURE END LIST*
D10*
D11*
X98444857Y-164126570D02*
X98444857Y-163626570D01*
X99230571Y-163412284D02*
X99230571Y-164126570D01*
X97730571Y-164126570D01*
X97730571Y-163412284D01*
X98230571Y-162769427D02*
X99230571Y-162769427D01*
X98373429Y-162769427D02*
X98302000Y-162697999D01*
X98230571Y-162555141D01*
X98230571Y-162340856D01*
X98302000Y-162197999D01*
X98444857Y-162126570D01*
X99230571Y-162126570D01*
X98230571Y-161555141D02*
X99230571Y-161197998D01*
X98230571Y-160840856D01*
X98444857Y-159769427D02*
X98444857Y-160269427D01*
X99230571Y-160269427D02*
X97730571Y-160269427D01*
X97730571Y-159555141D01*
X99230571Y-158983713D02*
X98230571Y-158983713D01*
X97730571Y-158983713D02*
X97802000Y-159055142D01*
X97873429Y-158983713D01*
X97802000Y-158912285D01*
X97730571Y-158983713D01*
X97873429Y-158983713D01*
X99230571Y-158055141D02*
X99159143Y-158197999D01*
X99016286Y-158269427D01*
X97730571Y-158269427D01*
X98230571Y-157697999D02*
X98230571Y-157126570D01*
X97730571Y-157483713D02*
X99016286Y-157483713D01*
X99159143Y-157412285D01*
X99230571Y-157269427D01*
X99230571Y-157126570D01*
X99159143Y-156055142D02*
X99230571Y-156197999D01*
X99230571Y-156483713D01*
X99159143Y-156626570D01*
X99016286Y-156697999D01*
X98444857Y-156697999D01*
X98302000Y-156626570D01*
X98230571Y-156483713D01*
X98230571Y-156197999D01*
X98302000Y-156055142D01*
X98444857Y-155983713D01*
X98587714Y-155983713D01*
X98730571Y-156697999D01*
X99230571Y-155340856D02*
X98230571Y-155340856D01*
X98516286Y-155340856D02*
X98373429Y-155269428D01*
X98302000Y-155197999D01*
X98230571Y-155055142D01*
X98230571Y-154912285D01*
X98659143Y-154412285D02*
X98659143Y-153269428D01*
X99230571Y-153840857D02*
X98087714Y-153840857D01*
X99230571Y-150555142D02*
X98516286Y-151055142D01*
X99230571Y-151412285D02*
X97730571Y-151412285D01*
X97730571Y-150840857D01*
X97802000Y-150697999D01*
X97873429Y-150626571D01*
X98016286Y-150555142D01*
X98230571Y-150555142D01*
X98373429Y-150626571D01*
X98444857Y-150697999D01*
X98516286Y-150840857D01*
X98516286Y-151412285D01*
X99159143Y-149340857D02*
X99230571Y-149483714D01*
X99230571Y-149769428D01*
X99159143Y-149912285D01*
X99016286Y-149983714D01*
X98444857Y-149983714D01*
X98302000Y-149912285D01*
X98230571Y-149769428D01*
X98230571Y-149483714D01*
X98302000Y-149340857D01*
X98444857Y-149269428D01*
X98587714Y-149269428D01*
X98730571Y-149983714D01*
X98230571Y-148769428D02*
X99230571Y-148412285D01*
X98230571Y-148055143D01*
X97873429Y-147555143D02*
X97802000Y-147483714D01*
X97730571Y-147340857D01*
X97730571Y-146983714D01*
X97802000Y-146840857D01*
X97873429Y-146769428D01*
X98016286Y-146698000D01*
X98159143Y-146698000D01*
X98373429Y-146769428D01*
X99230571Y-147626571D01*
X99230571Y-146698000D01*
D12*
X109423905Y-97282000D02*
G75*
G03X109423905Y-97282000I-457905J0D01*
G01*
X83007905Y-107442000D02*
G75*
G03X83007905Y-107442000I-457905J0D01*
G01*
X99009905Y-65659000D02*
G75*
G03X99009905Y-65659000I-457905J0D01*
G01*
X101659961Y-37846000D02*
G75*
G03X101659961Y-37846000I-567961J0D01*
G01*
D13*
X79832200Y-128727200D02*
X79832200Y-128447800D01*
X80340200Y-128727200D02*
X79222600Y-128727200D01*
X124720200Y-130172500D02*
X124364600Y-130172500D01*
X124720200Y-166240500D02*
X124720200Y-130172500D01*
X124339200Y-166240500D02*
X124720200Y-166240500D01*
X72701000Y-130172500D02*
X124517000Y-130172500D01*
X72701000Y-166240500D02*
X72701000Y-130172500D01*
X72701000Y-166240500D02*
X124517000Y-166240500D01*
X117932200Y-121742200D02*
X124917200Y-121742200D01*
X117932200Y-128727200D02*
X117932200Y-121742200D01*
X79832200Y-121742200D02*
X72847200Y-121742200D01*
X79832200Y-128727200D02*
X79832200Y-121742200D01*
X79832200Y-31699200D02*
X72847200Y-31699200D01*
X79832200Y-24714200D02*
X79832200Y-31699200D01*
X117932200Y-31699200D02*
X117932200Y-24714200D01*
X124917200Y-31699200D02*
X117932200Y-31699200D01*
X124917200Y-24714200D02*
X72847200Y-24714200D01*
X124917200Y-128727200D02*
X124917200Y-24714200D01*
X72847200Y-128727200D02*
X124917200Y-128727200D01*
X72847200Y-24714200D02*
X72847200Y-128727200D01*
D14*
X95669800Y-140306638D02*
G75*
G03X101219800Y-141851930I2990000J-462D01*
G01*
X95669800Y-140307562D02*
G75*
G02X101219800Y-138762270I2990000J462D01*
G01*
X101159800Y-140307100D02*
G75*
G03X101159800Y-140307100I-2500000J0D01*
G01*
X101219800Y-141852100D02*
X101219800Y-138762100D01*
X83728500Y-31322000D02*
X83728500Y-22522000D01*
X83728500Y-22522000D02*
X92928500Y-22522000D01*
X86428500Y-37222000D02*
X83728500Y-37222000D01*
X83728500Y-37222000D02*
X83728500Y-35322000D01*
X92928500Y-22522000D02*
X92928500Y-37222000D01*
X92928500Y-37222000D02*
X90328500Y-37222000D01*
D13*
X90017600Y-109347000D02*
X106527600Y-109347000D01*
X106527600Y-109347000D02*
X107797600Y-109347000D01*
X107924600Y-108966000D02*
X107924600Y-126746000D01*
X107797600Y-126365000D02*
X90017600Y-126365000D01*
X89890600Y-126746000D02*
X89890600Y-108966000D01*
D14*
X73904800Y-163013700D02*
X76564800Y-163013700D01*
X73904800Y-155333700D02*
X73904800Y-163013700D01*
X76564800Y-155333700D02*
X76564800Y-163013700D01*
X73904800Y-155333700D02*
X76564800Y-155333700D01*
X73904800Y-154063700D02*
X73904800Y-152733700D01*
X73904800Y-152733700D02*
X75234800Y-152733700D01*
X73904800Y-142490500D02*
X76564800Y-142490500D01*
X73904800Y-134810500D02*
X73904800Y-142490500D01*
X76564800Y-134810500D02*
X76564800Y-142490500D01*
X73904800Y-134810500D02*
X76564800Y-134810500D01*
X73904800Y-133540500D02*
X73904800Y-132210500D01*
X73904800Y-132210500D02*
X75234800Y-132210500D01*
X123529400Y-152759100D02*
X120869400Y-152759100D01*
X123529400Y-160439100D02*
X123529400Y-152759100D01*
X120869400Y-160439100D02*
X120869400Y-152759100D01*
X123529400Y-160439100D02*
X120869400Y-160439100D01*
X123529400Y-161709100D02*
X123529400Y-163039100D01*
X123529400Y-163039100D02*
X122199400Y-163039100D01*
X120844000Y-142490500D02*
X123504000Y-142490500D01*
X120844000Y-134810500D02*
X120844000Y-142490500D01*
X123504000Y-134810500D02*
X123504000Y-142490500D01*
X120844000Y-134810500D02*
X123504000Y-134810500D01*
X120844000Y-133540500D02*
X120844000Y-132210500D01*
X120844000Y-132210500D02*
X122174000Y-132210500D01*
X74031800Y-66887400D02*
X76691800Y-66887400D01*
X74031800Y-59207400D02*
X74031800Y-66887400D01*
X76691800Y-59207400D02*
X76691800Y-66887400D01*
X74031800Y-59207400D02*
X76691800Y-59207400D01*
X74031800Y-57937400D02*
X74031800Y-56607400D01*
X74031800Y-56607400D02*
X75361800Y-56607400D01*
X74044500Y-46351500D02*
X76704500Y-46351500D01*
X74044500Y-38671500D02*
X74044500Y-46351500D01*
X76704500Y-38671500D02*
X76704500Y-46351500D01*
X74044500Y-38671500D02*
X76704500Y-38671500D01*
X74044500Y-37401500D02*
X74044500Y-36071500D01*
X74044500Y-36071500D02*
X75374500Y-36071500D01*
X123732600Y-56607400D02*
X121072600Y-56607400D01*
X123732600Y-64287400D02*
X123732600Y-56607400D01*
X121072600Y-64287400D02*
X121072600Y-56607400D01*
X123732600Y-64287400D02*
X121072600Y-64287400D01*
X123732600Y-65557400D02*
X123732600Y-66887400D01*
X123732600Y-66887400D02*
X122402600Y-66887400D01*
X121021800Y-46364200D02*
X123681800Y-46364200D01*
X121021800Y-38684200D02*
X121021800Y-46364200D01*
X123681800Y-38684200D02*
X123681800Y-46364200D01*
X121021800Y-38684200D02*
X123681800Y-38684200D01*
X121021800Y-37414200D02*
X121021800Y-36084200D01*
X121021800Y-36084200D02*
X122351800Y-36084200D01*
X80907068Y-134774518D02*
G75*
G02X86431500Y-134773500I2762432J-1171982D01*
G01*
X85967253Y-137874795D02*
G75*
G02X81371500Y-137874500I-2297753J1928295D01*
G01*
X78759500Y-142506500D02*
X78759500Y-138640500D01*
X78759500Y-134251500D02*
X78759500Y-130386500D01*
X88579500Y-142506500D02*
X88579500Y-138640500D01*
X88579500Y-134251500D02*
X88579500Y-130386500D01*
X78759500Y-142506500D02*
X80344500Y-142506500D01*
X81994500Y-142506500D02*
X82844500Y-142506500D01*
X84494500Y-142506500D02*
X85344500Y-142506500D01*
X86994500Y-142506500D02*
X88579500Y-142506500D01*
X78759500Y-130386500D02*
X88579500Y-130386500D01*
X111006068Y-156110518D02*
G75*
G02X116530500Y-156109500I2762432J-1171982D01*
G01*
X116066253Y-159210795D02*
G75*
G02X111470500Y-159210500I-2297753J1928295D01*
G01*
X108858500Y-163842500D02*
X108858500Y-159976500D01*
X108858500Y-155587500D02*
X108858500Y-151722500D01*
X118678500Y-163842500D02*
X118678500Y-159976500D01*
X118678500Y-155587500D02*
X118678500Y-151722500D01*
X108858500Y-163842500D02*
X110443500Y-163842500D01*
X112093500Y-163842500D02*
X112943500Y-163842500D01*
X114593500Y-163842500D02*
X115443500Y-163842500D01*
X117093500Y-163842500D02*
X118678500Y-163842500D01*
X108858500Y-151722500D02*
X118678500Y-151722500D01*
X80907068Y-156110518D02*
G75*
G02X86431500Y-156109500I2762432J-1171982D01*
G01*
X85967253Y-159210795D02*
G75*
G02X81371500Y-159210500I-2297753J1928295D01*
G01*
X78759500Y-163842500D02*
X78759500Y-159976500D01*
X78759500Y-155587500D02*
X78759500Y-151722500D01*
X88579500Y-163842500D02*
X88579500Y-159976500D01*
X88579500Y-155587500D02*
X88579500Y-151722500D01*
X78759500Y-163842500D02*
X80344500Y-163842500D01*
X81994500Y-163842500D02*
X82844500Y-163842500D01*
X84494500Y-163842500D02*
X85344500Y-163842500D01*
X86994500Y-163842500D02*
X88579500Y-163842500D01*
X78759500Y-151722500D02*
X88579500Y-151722500D01*
X110198800Y-113215800D02*
X110198800Y-114215800D01*
X111898800Y-114215800D02*
X111898800Y-113215800D01*
X98433000Y-96735000D02*
X99433000Y-96735000D01*
X99433000Y-95035000D02*
X98433000Y-95035000D01*
X93845000Y-98337000D02*
X92845000Y-98337000D01*
X92845000Y-100037000D02*
X93845000Y-100037000D01*
X86627600Y-115324000D02*
X86627600Y-116324000D01*
X88327600Y-116324000D02*
X88327600Y-115324000D01*
X110451000Y-59301000D02*
X110451000Y-58301000D01*
X108751000Y-58301000D02*
X108751000Y-59301000D01*
X113245000Y-41775000D02*
X113245000Y-40775000D01*
X111545000Y-40775000D02*
X111545000Y-41775000D01*
X110451000Y-54475000D02*
X110451000Y-53475000D01*
X108751000Y-53475000D02*
X108751000Y-54475000D01*
X94099000Y-42203000D02*
X93099000Y-42203000D01*
X93099000Y-43903000D02*
X94099000Y-43903000D01*
X86907000Y-58809000D02*
X86907000Y-59809000D01*
X88607000Y-59809000D02*
X88607000Y-58809000D01*
X95465000Y-68953000D02*
X95465000Y-67953000D01*
X93765000Y-67953000D02*
X93765000Y-68953000D01*
X100291000Y-36441000D02*
X100291000Y-35441000D01*
X98591000Y-35441000D02*
X98591000Y-36441000D01*
X81399000Y-107735000D02*
X80399000Y-107735000D01*
X80399000Y-109435000D02*
X81399000Y-109435000D01*
X110053500Y-96862000D02*
X111053500Y-96862000D01*
X111053500Y-95162000D02*
X110053500Y-95162000D01*
X111923000Y-51705000D02*
X111923000Y-53705000D01*
X111923000Y-53705000D02*
X115823000Y-53705000D01*
X111923000Y-51705000D02*
X115823000Y-51705000D01*
X116423000Y-56245000D02*
X116423000Y-54245000D01*
X116423000Y-54245000D02*
X112523000Y-54245000D01*
X116423000Y-56245000D02*
X112523000Y-56245000D01*
X97627000Y-27860500D02*
X97627000Y-25860500D01*
X97627000Y-25860500D02*
X93727000Y-25860500D01*
X97627000Y-27860500D02*
X93727000Y-27860500D01*
X109509000Y-81797000D02*
X110709000Y-81797000D01*
X110709000Y-83557000D02*
X109509000Y-83557000D01*
X103877000Y-80807000D02*
X103877000Y-82007000D01*
X102117000Y-82007000D02*
X102117000Y-80807000D01*
X97247000Y-83557000D02*
X96047000Y-83557000D01*
X96047000Y-81797000D02*
X97247000Y-81797000D01*
X98333000Y-91449000D02*
X99533000Y-91449000D01*
X99533000Y-93209000D02*
X98333000Y-93209000D01*
X99533000Y-103369000D02*
X98333000Y-103369000D01*
X98333000Y-101609000D02*
X99533000Y-101609000D01*
X88357600Y-120583400D02*
X88357600Y-121783400D01*
X86597600Y-121783400D02*
X86597600Y-120583400D01*
X96275000Y-73879000D02*
X96275000Y-72679000D01*
X98035000Y-72679000D02*
X98035000Y-73879000D01*
X105883000Y-66285000D02*
X104683000Y-66285000D01*
X104683000Y-64525000D02*
X105883000Y-64525000D01*
X96573900Y-56544100D02*
X95373900Y-56544100D01*
X95373900Y-54784100D02*
X96573900Y-54784100D01*
X101889000Y-48459500D02*
X103089000Y-48459500D01*
X103089000Y-50219500D02*
X101889000Y-50219500D01*
X94777000Y-48523000D02*
X95977000Y-48523000D01*
X95977000Y-50283000D02*
X94777000Y-50283000D01*
X108448400Y-44021900D02*
X107248400Y-44021900D01*
X107248400Y-42261900D02*
X108448400Y-42261900D01*
X105883000Y-61459000D02*
X104683000Y-61459000D01*
X104683000Y-59699000D02*
X105883000Y-59699000D01*
X101914400Y-42261900D02*
X103114400Y-42261900D01*
X103114400Y-44021900D02*
X101914400Y-44021900D01*
X105927000Y-54575000D02*
X105927000Y-53375000D01*
X107687000Y-53375000D02*
X107687000Y-54575000D01*
X110481000Y-66075000D02*
X110481000Y-67275000D01*
X108721000Y-67275000D02*
X108721000Y-66075000D01*
X94199000Y-45965000D02*
X92999000Y-45965000D01*
X92999000Y-44205000D02*
X94199000Y-44205000D01*
X105883000Y-58665000D02*
X104683000Y-58665000D01*
X104683000Y-56905000D02*
X105883000Y-56905000D01*
X102879000Y-54575000D02*
X102879000Y-53375000D01*
X104639000Y-53375000D02*
X104639000Y-54575000D01*
X98028200Y-52802900D02*
X99228200Y-52802900D01*
X99228200Y-54562900D02*
X98028200Y-54562900D01*
X91685000Y-58709000D02*
X91685000Y-59909000D01*
X89925000Y-59909000D02*
X89925000Y-58709000D01*
X91685000Y-64297000D02*
X91685000Y-65497000D01*
X89925000Y-65497000D02*
X89925000Y-64297000D01*
X86833000Y-67301000D02*
X85633000Y-67301000D01*
X85633000Y-65541000D02*
X86833000Y-65541000D01*
X85633000Y-62493000D02*
X86833000Y-62493000D01*
X86833000Y-64253000D02*
X85633000Y-64253000D01*
X84039000Y-61459000D02*
X82839000Y-61459000D01*
X82839000Y-59699000D02*
X84039000Y-59699000D01*
X100829000Y-67853000D02*
X100829000Y-69053000D01*
X99069000Y-69053000D02*
X99069000Y-67853000D01*
X96529000Y-41367000D02*
X96529000Y-40167000D01*
X98289000Y-40167000D02*
X98289000Y-41367000D01*
X112303000Y-71129000D02*
X113503000Y-71129000D01*
X113503000Y-72889000D02*
X112303000Y-72889000D01*
D13*
X84498000Y-107447000D02*
X84498000Y-107422000D01*
X80348000Y-107447000D02*
X80348000Y-107332000D01*
X80348000Y-98547000D02*
X80348000Y-98662000D01*
X84498000Y-98547000D02*
X84498000Y-98662000D01*
X84498000Y-107447000D02*
X80348000Y-107447000D01*
X84498000Y-98547000D02*
X80348000Y-98547000D01*
X84498000Y-107422000D02*
X85873000Y-107422000D01*
X107018000Y-97277000D02*
X107018000Y-97302000D01*
X111168000Y-97277000D02*
X111168000Y-97392000D01*
X111168000Y-106177000D02*
X111168000Y-106062000D01*
X107018000Y-106177000D02*
X107018000Y-106062000D01*
X107018000Y-97277000D02*
X111168000Y-97277000D01*
X107018000Y-106177000D02*
X111168000Y-106177000D01*
X107018000Y-97302000D02*
X105643000Y-97302000D01*
X99376050Y-65683050D02*
X99376050Y-65658050D01*
X95226050Y-65683050D02*
X95226050Y-65568050D01*
X95226050Y-56783050D02*
X95226050Y-56898050D01*
X99376050Y-56783050D02*
X99376050Y-56898050D01*
X99376050Y-65683050D02*
X95226050Y-65683050D01*
X99376050Y-56783050D02*
X95226050Y-56783050D01*
X99376050Y-65658050D02*
X100751050Y-65658050D01*
X101112400Y-39374900D02*
X101137400Y-39374900D01*
X101112400Y-35224900D02*
X101227400Y-35224900D01*
X110012400Y-35224900D02*
X109897400Y-35224900D01*
X110012400Y-39374900D02*
X109897400Y-39374900D01*
X101112400Y-39374900D02*
X101112400Y-35224900D01*
X110012400Y-39374900D02*
X110012400Y-35224900D01*
X101137400Y-39374900D02*
X101137400Y-40749900D01*
D14*
X111006068Y-134774518D02*
G75*
G02X116530500Y-134773500I2762432J-1171982D01*
G01*
X116066253Y-137874795D02*
G75*
G02X111470500Y-137874500I-2297753J1928295D01*
G01*
X108858500Y-142506500D02*
X108858500Y-138640500D01*
X108858500Y-134251500D02*
X108858500Y-130386500D01*
X118678500Y-142506500D02*
X118678500Y-138640500D01*
X118678500Y-134251500D02*
X118678500Y-130386500D01*
X108858500Y-142506500D02*
X110443500Y-142506500D01*
X112093500Y-142506500D02*
X112943500Y-142506500D01*
X114593500Y-142506500D02*
X115443500Y-142506500D01*
X117093500Y-142506500D02*
X118678500Y-142506500D01*
X108858500Y-130386500D02*
X118678500Y-130386500D01*
D15*
X98290753Y-144493290D02*
X98290753Y-143993290D01*
X98409800Y-143993290D01*
X98481229Y-144017100D01*
X98528848Y-144064719D01*
X98552657Y-144112338D01*
X98576467Y-144207576D01*
X98576467Y-144279005D01*
X98552657Y-144374243D01*
X98528848Y-144421862D01*
X98481229Y-144469481D01*
X98409800Y-144493290D01*
X98290753Y-144493290D01*
X98743134Y-143993290D02*
X99052657Y-143993290D01*
X98885991Y-144183767D01*
X98957419Y-144183767D01*
X99005038Y-144207576D01*
X99028848Y-144231386D01*
X99052657Y-144279005D01*
X99052657Y-144398052D01*
X99028848Y-144445671D01*
X99005038Y-144469481D01*
X98957419Y-144493290D01*
X98814562Y-144493290D01*
X98766943Y-144469481D01*
X98743134Y-144445671D01*
X82304690Y-28479142D02*
X82661833Y-28479142D01*
X82733262Y-28502952D01*
X82780881Y-28550571D01*
X82804690Y-28621999D01*
X82804690Y-28669618D01*
X82852310Y-28360095D02*
X82852310Y-27979143D01*
X82804690Y-27860095D02*
X82304690Y-27860095D01*
X82304690Y-27669619D01*
X82328500Y-27622000D01*
X82352310Y-27598191D01*
X82399929Y-27574381D01*
X82471357Y-27574381D01*
X82518976Y-27598191D01*
X82542786Y-27622000D01*
X82566595Y-27669619D01*
X82566595Y-27860095D01*
X82804690Y-27098191D02*
X82804690Y-27383905D01*
X82804690Y-27241048D02*
X82304690Y-27241048D01*
X82376119Y-27288667D01*
X82423738Y-27336286D01*
X82447548Y-27383905D01*
X90886790Y-139937060D02*
X91386790Y-139770393D01*
X90886790Y-139603727D01*
X91386790Y-139151346D02*
X91148695Y-139318013D01*
X91386790Y-139437060D02*
X90886790Y-139437060D01*
X90886790Y-139246584D01*
X90910600Y-139198965D01*
X90934410Y-139175156D01*
X90982029Y-139151346D01*
X91053457Y-139151346D01*
X91101076Y-139175156D01*
X91124886Y-139198965D01*
X91148695Y-139246584D01*
X91148695Y-139437060D01*
X91434410Y-139056108D02*
X91434410Y-138675156D01*
X91243933Y-138579918D02*
X91243933Y-138341823D01*
X91386790Y-138627537D02*
X90886790Y-138460870D01*
X91386790Y-138294204D01*
X90886790Y-138198966D02*
X90886790Y-137913252D01*
X91386790Y-138056109D02*
X90886790Y-138056109D01*
X90886790Y-137818014D02*
X90886790Y-137532300D01*
X91386790Y-137675157D02*
X90886790Y-137675157D01*
X91243933Y-137389443D02*
X91243933Y-137151348D01*
X91386790Y-137437062D02*
X90886790Y-137270395D01*
X91386790Y-137103729D01*
X91339171Y-136651348D02*
X91362981Y-136675158D01*
X91386790Y-136746586D01*
X91386790Y-136794205D01*
X91362981Y-136865634D01*
X91315362Y-136913253D01*
X91267743Y-136937062D01*
X91172505Y-136960872D01*
X91101076Y-136960872D01*
X91005838Y-136937062D01*
X90958219Y-136913253D01*
X90910600Y-136865634D01*
X90886790Y-136794205D01*
X90886790Y-136746586D01*
X90910600Y-136675158D01*
X90934410Y-136651348D01*
X91386790Y-136437062D02*
X90886790Y-136437062D01*
X91386790Y-136151348D02*
X91101076Y-136365634D01*
X90886790Y-136151348D02*
X91172505Y-136437062D01*
X91386790Y-135675158D02*
X91386790Y-135960872D01*
X91386790Y-135818015D02*
X90886790Y-135818015D01*
X90958219Y-135865634D01*
X91005838Y-135913253D01*
X91029648Y-135960872D01*
X106088690Y-158166404D02*
X106588690Y-157999737D01*
X106088690Y-157833071D01*
X106588690Y-157380690D02*
X106350595Y-157547357D01*
X106588690Y-157666404D02*
X106088690Y-157666404D01*
X106088690Y-157475928D01*
X106112500Y-157428309D01*
X106136310Y-157404500D01*
X106183929Y-157380690D01*
X106255357Y-157380690D01*
X106302976Y-157404500D01*
X106326786Y-157428309D01*
X106350595Y-157475928D01*
X106350595Y-157666404D01*
X106636310Y-157285452D02*
X106636310Y-156904500D01*
X106588690Y-156547357D02*
X106588690Y-156785452D01*
X106088690Y-156785452D01*
X106588690Y-156380690D02*
X106088690Y-156380690D01*
X106088690Y-156190214D01*
X106112500Y-156142595D01*
X106136310Y-156118786D01*
X106183929Y-156094976D01*
X106255357Y-156094976D01*
X106302976Y-156118786D01*
X106326786Y-156142595D01*
X106350595Y-156190214D01*
X106350595Y-156380690D01*
X106326786Y-155714024D02*
X106326786Y-155880690D01*
X106588690Y-155880690D02*
X106088690Y-155880690D01*
X106088690Y-155642595D01*
X106588690Y-155190215D02*
X106588690Y-155475929D01*
X106588690Y-155333072D02*
X106088690Y-155333072D01*
X106160119Y-155380691D01*
X106207738Y-155428310D01*
X106231548Y-155475929D01*
X90848690Y-160007809D02*
X91348690Y-159841142D01*
X90848690Y-159674476D01*
X91348690Y-159222095D02*
X91110595Y-159388762D01*
X91348690Y-159507809D02*
X90848690Y-159507809D01*
X90848690Y-159317333D01*
X90872500Y-159269714D01*
X90896310Y-159245905D01*
X90943929Y-159222095D01*
X91015357Y-159222095D01*
X91062976Y-159245905D01*
X91086786Y-159269714D01*
X91110595Y-159317333D01*
X91110595Y-159507809D01*
X91396310Y-159126857D02*
X91396310Y-158745905D01*
X90848690Y-158698286D02*
X90848690Y-158412572D01*
X91348690Y-158555429D02*
X90848690Y-158555429D01*
X91348690Y-158245905D02*
X90848690Y-158245905D01*
X91086786Y-158245905D02*
X91086786Y-157960191D01*
X91348690Y-157960191D02*
X90848690Y-157960191D01*
X91348690Y-157436381D02*
X91110595Y-157603048D01*
X91348690Y-157722095D02*
X90848690Y-157722095D01*
X90848690Y-157531619D01*
X90872500Y-157484000D01*
X90896310Y-157460191D01*
X90943929Y-157436381D01*
X91015357Y-157436381D01*
X91062976Y-157460191D01*
X91086786Y-157484000D01*
X91110595Y-157531619D01*
X91110595Y-157722095D01*
X91086786Y-157222095D02*
X91086786Y-157055429D01*
X91348690Y-156984000D02*
X91348690Y-157222095D01*
X90848690Y-157222095D01*
X90848690Y-156984000D01*
X91324881Y-156793524D02*
X91348690Y-156722095D01*
X91348690Y-156603048D01*
X91324881Y-156555429D01*
X91301071Y-156531619D01*
X91253452Y-156507810D01*
X91205833Y-156507810D01*
X91158214Y-156531619D01*
X91134405Y-156555429D01*
X91110595Y-156603048D01*
X91086786Y-156698286D01*
X91062976Y-156745905D01*
X91039167Y-156769714D01*
X90991548Y-156793524D01*
X90943929Y-156793524D01*
X90896310Y-156769714D01*
X90872500Y-156745905D01*
X90848690Y-156698286D01*
X90848690Y-156579238D01*
X90872500Y-156507810D01*
X91348690Y-156293524D02*
X90848690Y-156293524D01*
X91086786Y-156293524D02*
X91086786Y-156007810D01*
X91348690Y-156007810D02*
X90848690Y-156007810D01*
X91348690Y-155507810D02*
X91348690Y-155793524D01*
X91348690Y-155650667D02*
X90848690Y-155650667D01*
X90920119Y-155698286D01*
X90967738Y-155745905D01*
X90991548Y-155793524D01*
X109477371Y-113799133D02*
X109501181Y-113822943D01*
X109524990Y-113894371D01*
X109524990Y-113941990D01*
X109501181Y-114013419D01*
X109453562Y-114061038D01*
X109405943Y-114084847D01*
X109310705Y-114108657D01*
X109239276Y-114108657D01*
X109144038Y-114084847D01*
X109096419Y-114061038D01*
X109048800Y-114013419D01*
X109024990Y-113941990D01*
X109024990Y-113894371D01*
X109048800Y-113822943D01*
X109072610Y-113799133D01*
X109524990Y-113322943D02*
X109524990Y-113608657D01*
X109524990Y-113465800D02*
X109024990Y-113465800D01*
X109096419Y-113513419D01*
X109144038Y-113561038D01*
X109167848Y-113608657D01*
X98544867Y-94412571D02*
X98521057Y-94436381D01*
X98449629Y-94460190D01*
X98402010Y-94460190D01*
X98330581Y-94436381D01*
X98282962Y-94388762D01*
X98259153Y-94341143D01*
X98235343Y-94245905D01*
X98235343Y-94174476D01*
X98259153Y-94079238D01*
X98282962Y-94031619D01*
X98330581Y-93984000D01*
X98402010Y-93960190D01*
X98449629Y-93960190D01*
X98521057Y-93984000D01*
X98544867Y-94007810D01*
X98735343Y-94007810D02*
X98759153Y-93984000D01*
X98806772Y-93960190D01*
X98925819Y-93960190D01*
X98973438Y-93984000D01*
X98997248Y-94007810D01*
X99021057Y-94055429D01*
X99021057Y-94103048D01*
X98997248Y-94174476D01*
X98711534Y-94460190D01*
X99021057Y-94460190D01*
X93287067Y-97739971D02*
X93263257Y-97763781D01*
X93191829Y-97787590D01*
X93144210Y-97787590D01*
X93072781Y-97763781D01*
X93025162Y-97716162D01*
X93001353Y-97668543D01*
X92977543Y-97573305D01*
X92977543Y-97501876D01*
X93001353Y-97406638D01*
X93025162Y-97359019D01*
X93072781Y-97311400D01*
X93144210Y-97287590D01*
X93191829Y-97287590D01*
X93263257Y-97311400D01*
X93287067Y-97335210D01*
X93715638Y-97454257D02*
X93715638Y-97787590D01*
X93596591Y-97263781D02*
X93477543Y-97620924D01*
X93787067Y-97620924D01*
X94260171Y-113113333D02*
X94283981Y-113137143D01*
X94307790Y-113208571D01*
X94307790Y-113256190D01*
X94283981Y-113327619D01*
X94236362Y-113375238D01*
X94188743Y-113399047D01*
X94093505Y-113422857D01*
X94022076Y-113422857D01*
X93926838Y-113399047D01*
X93879219Y-113375238D01*
X93831600Y-113327619D01*
X93807790Y-113256190D01*
X93807790Y-113208571D01*
X93831600Y-113137143D01*
X93855410Y-113113333D01*
X93807790Y-112660952D02*
X93807790Y-112899047D01*
X94045886Y-112922857D01*
X94022076Y-112899047D01*
X93998267Y-112851428D01*
X93998267Y-112732381D01*
X94022076Y-112684762D01*
X94045886Y-112660952D01*
X94093505Y-112637143D01*
X94212552Y-112637143D01*
X94260171Y-112660952D01*
X94283981Y-112684762D01*
X94307790Y-112732381D01*
X94307790Y-112851428D01*
X94283981Y-112899047D01*
X94260171Y-112922857D01*
X111284521Y-59119283D02*
X111308331Y-59143093D01*
X111332140Y-59214521D01*
X111332140Y-59262140D01*
X111308331Y-59333569D01*
X111260712Y-59381188D01*
X111213093Y-59404997D01*
X111117855Y-59428807D01*
X111046426Y-59428807D01*
X110951188Y-59404997D01*
X110903569Y-59381188D01*
X110855950Y-59333569D01*
X110832140Y-59262140D01*
X110832140Y-59214521D01*
X110855950Y-59143093D01*
X110879760Y-59119283D01*
X110832140Y-58690712D02*
X110832140Y-58785950D01*
X110855950Y-58833569D01*
X110879760Y-58857378D01*
X110951188Y-58904997D01*
X111046426Y-58928807D01*
X111236902Y-58928807D01*
X111284521Y-58904997D01*
X111308331Y-58881188D01*
X111332140Y-58833569D01*
X111332140Y-58738331D01*
X111308331Y-58690712D01*
X111284521Y-58666902D01*
X111236902Y-58643093D01*
X111117855Y-58643093D01*
X111070236Y-58666902D01*
X111046426Y-58690712D01*
X111022617Y-58738331D01*
X111022617Y-58833569D01*
X111046426Y-58881188D01*
X111070236Y-58904997D01*
X111117855Y-58928807D01*
X114097571Y-41104333D02*
X114121381Y-41128143D01*
X114145190Y-41199571D01*
X114145190Y-41247190D01*
X114121381Y-41318619D01*
X114073762Y-41366238D01*
X114026143Y-41390047D01*
X113930905Y-41413857D01*
X113859476Y-41413857D01*
X113764238Y-41390047D01*
X113716619Y-41366238D01*
X113669000Y-41318619D01*
X113645190Y-41247190D01*
X113645190Y-41199571D01*
X113669000Y-41128143D01*
X113692810Y-41104333D01*
X113645190Y-40937666D02*
X113645190Y-40604333D01*
X114145190Y-40818619D01*
X109498617Y-51213521D02*
X109474807Y-51237331D01*
X109403379Y-51261140D01*
X109355760Y-51261140D01*
X109284331Y-51237331D01*
X109236712Y-51189712D01*
X109212903Y-51142093D01*
X109189093Y-51046855D01*
X109189093Y-50975426D01*
X109212903Y-50880188D01*
X109236712Y-50832569D01*
X109284331Y-50784950D01*
X109355760Y-50761140D01*
X109403379Y-50761140D01*
X109474807Y-50784950D01*
X109498617Y-50808760D01*
X109736712Y-51261140D02*
X109831950Y-51261140D01*
X109879569Y-51237331D01*
X109903379Y-51213521D01*
X109950998Y-51142093D01*
X109974807Y-51046855D01*
X109974807Y-50856379D01*
X109950998Y-50808760D01*
X109927188Y-50784950D01*
X109879569Y-50761140D01*
X109784331Y-50761140D01*
X109736712Y-50784950D01*
X109712903Y-50808760D01*
X109689093Y-50856379D01*
X109689093Y-50975426D01*
X109712903Y-51023045D01*
X109736712Y-51046855D01*
X109784331Y-51070664D01*
X109879569Y-51070664D01*
X109927188Y-51046855D01*
X109950998Y-51023045D01*
X109974807Y-50975426D01*
X93506172Y-41580571D02*
X93482362Y-41604381D01*
X93410934Y-41628190D01*
X93363315Y-41628190D01*
X93291886Y-41604381D01*
X93244267Y-41556762D01*
X93220458Y-41509143D01*
X93196648Y-41413905D01*
X93196648Y-41342476D01*
X93220458Y-41247238D01*
X93244267Y-41199619D01*
X93291886Y-41152000D01*
X93363315Y-41128190D01*
X93410934Y-41128190D01*
X93482362Y-41152000D01*
X93506172Y-41175810D01*
X93982362Y-41628190D02*
X93696648Y-41628190D01*
X93839505Y-41628190D02*
X93839505Y-41128190D01*
X93791886Y-41199619D01*
X93744267Y-41247238D01*
X93696648Y-41271048D01*
X94291886Y-41128190D02*
X94339505Y-41128190D01*
X94387124Y-41152000D01*
X94410933Y-41175810D01*
X94434743Y-41223429D01*
X94458552Y-41318667D01*
X94458552Y-41437714D01*
X94434743Y-41532952D01*
X94410933Y-41580571D01*
X94387124Y-41604381D01*
X94339505Y-41628190D01*
X94291886Y-41628190D01*
X94244267Y-41604381D01*
X94220457Y-41580571D01*
X94196648Y-41532952D01*
X94172838Y-41437714D01*
X94172838Y-41318667D01*
X94196648Y-41223429D01*
X94220457Y-41175810D01*
X94244267Y-41152000D01*
X94291886Y-41128190D01*
X89465921Y-58544578D02*
X89489731Y-58568388D01*
X89513540Y-58639816D01*
X89513540Y-58687435D01*
X89489731Y-58758864D01*
X89442112Y-58806483D01*
X89394493Y-58830292D01*
X89299255Y-58854102D01*
X89227826Y-58854102D01*
X89132588Y-58830292D01*
X89084969Y-58806483D01*
X89037350Y-58758864D01*
X89013540Y-58687435D01*
X89013540Y-58639816D01*
X89037350Y-58568388D01*
X89061160Y-58544578D01*
X89513540Y-58068388D02*
X89513540Y-58354102D01*
X89513540Y-58211245D02*
X89013540Y-58211245D01*
X89084969Y-58258864D01*
X89132588Y-58306483D01*
X89156398Y-58354102D01*
X89513540Y-57592198D02*
X89513540Y-57877912D01*
X89513540Y-57735055D02*
X89013540Y-57735055D01*
X89084969Y-57782674D01*
X89132588Y-57830293D01*
X89156398Y-57877912D01*
X93206071Y-69472928D02*
X93229881Y-69496738D01*
X93253690Y-69568166D01*
X93253690Y-69615785D01*
X93229881Y-69687214D01*
X93182262Y-69734833D01*
X93134643Y-69758642D01*
X93039405Y-69782452D01*
X92967976Y-69782452D01*
X92872738Y-69758642D01*
X92825119Y-69734833D01*
X92777500Y-69687214D01*
X92753690Y-69615785D01*
X92753690Y-69568166D01*
X92777500Y-69496738D01*
X92801310Y-69472928D01*
X93253690Y-68996738D02*
X93253690Y-69282452D01*
X93253690Y-69139595D02*
X92753690Y-69139595D01*
X92825119Y-69187214D01*
X92872738Y-69234833D01*
X92896548Y-69282452D01*
X92801310Y-68806262D02*
X92777500Y-68782452D01*
X92753690Y-68734833D01*
X92753690Y-68615786D01*
X92777500Y-68568167D01*
X92801310Y-68544357D01*
X92848929Y-68520548D01*
X92896548Y-68520548D01*
X92967976Y-68544357D01*
X93253690Y-68830071D01*
X93253690Y-68520548D01*
X98070171Y-35284528D02*
X98093981Y-35308338D01*
X98117790Y-35379766D01*
X98117790Y-35427385D01*
X98093981Y-35498814D01*
X98046362Y-35546433D01*
X97998743Y-35570242D01*
X97903505Y-35594052D01*
X97832076Y-35594052D01*
X97736838Y-35570242D01*
X97689219Y-35546433D01*
X97641600Y-35498814D01*
X97617790Y-35427385D01*
X97617790Y-35379766D01*
X97641600Y-35308338D01*
X97665410Y-35284528D01*
X98117790Y-34808338D02*
X98117790Y-35094052D01*
X98117790Y-34951195D02*
X97617790Y-34951195D01*
X97689219Y-34998814D01*
X97736838Y-35046433D01*
X97760648Y-35094052D01*
X97617790Y-34641671D02*
X97617790Y-34332148D01*
X97808267Y-34498814D01*
X97808267Y-34427386D01*
X97832076Y-34379767D01*
X97855886Y-34355957D01*
X97903505Y-34332148D01*
X98022552Y-34332148D01*
X98070171Y-34355957D01*
X98093981Y-34379767D01*
X98117790Y-34427386D01*
X98117790Y-34570243D01*
X98093981Y-34617862D01*
X98070171Y-34641671D01*
X80577572Y-110541571D02*
X80553762Y-110565381D01*
X80482334Y-110589190D01*
X80434715Y-110589190D01*
X80363286Y-110565381D01*
X80315667Y-110517762D01*
X80291858Y-110470143D01*
X80268048Y-110374905D01*
X80268048Y-110303476D01*
X80291858Y-110208238D01*
X80315667Y-110160619D01*
X80363286Y-110113000D01*
X80434715Y-110089190D01*
X80482334Y-110089190D01*
X80553762Y-110113000D01*
X80577572Y-110136810D01*
X81053762Y-110589190D02*
X80768048Y-110589190D01*
X80910905Y-110589190D02*
X80910905Y-110089190D01*
X80863286Y-110160619D01*
X80815667Y-110208238D01*
X80768048Y-110232048D01*
X81482333Y-110255857D02*
X81482333Y-110589190D01*
X81363286Y-110065381D02*
X81244238Y-110422524D01*
X81553762Y-110422524D01*
X109724072Y-94564971D02*
X109700262Y-94588781D01*
X109628834Y-94612590D01*
X109581215Y-94612590D01*
X109509786Y-94588781D01*
X109462167Y-94541162D01*
X109438358Y-94493543D01*
X109414548Y-94398305D01*
X109414548Y-94326876D01*
X109438358Y-94231638D01*
X109462167Y-94184019D01*
X109509786Y-94136400D01*
X109581215Y-94112590D01*
X109628834Y-94112590D01*
X109700262Y-94136400D01*
X109724072Y-94160210D01*
X110200262Y-94612590D02*
X109914548Y-94612590D01*
X110057405Y-94612590D02*
X110057405Y-94112590D01*
X110009786Y-94184019D01*
X109962167Y-94231638D01*
X109914548Y-94255448D01*
X110652643Y-94112590D02*
X110414548Y-94112590D01*
X110390738Y-94350686D01*
X110414548Y-94326876D01*
X110462167Y-94303067D01*
X110581214Y-94303067D01*
X110628833Y-94326876D01*
X110652643Y-94350686D01*
X110676452Y-94398305D01*
X110676452Y-94517352D01*
X110652643Y-94564971D01*
X110628833Y-94588781D01*
X110581214Y-94612590D01*
X110462167Y-94612590D01*
X110414548Y-94588781D01*
X110390738Y-94564971D01*
X111332140Y-53220097D02*
X110832140Y-53220097D01*
X110832140Y-53101050D01*
X110855950Y-53029621D01*
X110903569Y-52982002D01*
X110951188Y-52958193D01*
X111046426Y-52934383D01*
X111117855Y-52934383D01*
X111213093Y-52958193D01*
X111260712Y-52982002D01*
X111308331Y-53029621D01*
X111332140Y-53101050D01*
X111332140Y-53220097D01*
X111332140Y-52458193D02*
X111332140Y-52743907D01*
X111332140Y-52601050D02*
X110832140Y-52601050D01*
X110903569Y-52648669D01*
X110951188Y-52696288D01*
X110974998Y-52743907D01*
X117396390Y-55614047D02*
X116896390Y-55614047D01*
X116896390Y-55495000D01*
X116920200Y-55423571D01*
X116967819Y-55375952D01*
X117015438Y-55352143D01*
X117110676Y-55328333D01*
X117182105Y-55328333D01*
X117277343Y-55352143D01*
X117324962Y-55375952D01*
X117372581Y-55423571D01*
X117396390Y-55495000D01*
X117396390Y-55614047D01*
X116944010Y-55137857D02*
X116920200Y-55114047D01*
X116896390Y-55066428D01*
X116896390Y-54947381D01*
X116920200Y-54899762D01*
X116944010Y-54875952D01*
X116991629Y-54852143D01*
X117039248Y-54852143D01*
X117110676Y-54875952D01*
X117396390Y-55161666D01*
X117396390Y-54852143D01*
X98714690Y-27229547D02*
X98214690Y-27229547D01*
X98214690Y-27110500D01*
X98238500Y-27039071D01*
X98286119Y-26991452D01*
X98333738Y-26967643D01*
X98428976Y-26943833D01*
X98500405Y-26943833D01*
X98595643Y-26967643D01*
X98643262Y-26991452D01*
X98690881Y-27039071D01*
X98714690Y-27110500D01*
X98714690Y-27229547D01*
X98381357Y-26515262D02*
X98714690Y-26515262D01*
X98190881Y-26634309D02*
X98548024Y-26753357D01*
X98548024Y-26443833D01*
X110025667Y-84603190D02*
X109859000Y-84365095D01*
X109739953Y-84603190D02*
X109739953Y-84103190D01*
X109930429Y-84103190D01*
X109978048Y-84127000D01*
X110001857Y-84150810D01*
X110025667Y-84198429D01*
X110025667Y-84269857D01*
X110001857Y-84317476D01*
X109978048Y-84341286D01*
X109930429Y-84365095D01*
X109739953Y-84365095D01*
X110501857Y-84603190D02*
X110216143Y-84603190D01*
X110359000Y-84603190D02*
X110359000Y-84103190D01*
X110311381Y-84174619D01*
X110263762Y-84222238D01*
X110216143Y-84246048D01*
X101572190Y-81414133D02*
X101334095Y-81580800D01*
X101572190Y-81699847D02*
X101072190Y-81699847D01*
X101072190Y-81509371D01*
X101096000Y-81461752D01*
X101119810Y-81437943D01*
X101167429Y-81414133D01*
X101238857Y-81414133D01*
X101286476Y-81437943D01*
X101310286Y-81461752D01*
X101334095Y-81509371D01*
X101334095Y-81699847D01*
X101119810Y-81223657D02*
X101096000Y-81199847D01*
X101072190Y-81152228D01*
X101072190Y-81033181D01*
X101096000Y-80985562D01*
X101119810Y-80961752D01*
X101167429Y-80937943D01*
X101215048Y-80937943D01*
X101286476Y-80961752D01*
X101572190Y-81247466D01*
X101572190Y-80937943D01*
X96512867Y-84604990D02*
X96346200Y-84366895D01*
X96227153Y-84604990D02*
X96227153Y-84104990D01*
X96417629Y-84104990D01*
X96465248Y-84128800D01*
X96489057Y-84152610D01*
X96512867Y-84200229D01*
X96512867Y-84271657D01*
X96489057Y-84319276D01*
X96465248Y-84343086D01*
X96417629Y-84366895D01*
X96227153Y-84366895D01*
X96679534Y-84104990D02*
X96989057Y-84104990D01*
X96822391Y-84295467D01*
X96893819Y-84295467D01*
X96941438Y-84319276D01*
X96965248Y-84343086D01*
X96989057Y-84390705D01*
X96989057Y-84509752D01*
X96965248Y-84557371D01*
X96941438Y-84581181D01*
X96893819Y-84604990D01*
X96750962Y-84604990D01*
X96703343Y-84581181D01*
X96679534Y-84557371D01*
X98849667Y-91031190D02*
X98683000Y-90793095D01*
X98563953Y-91031190D02*
X98563953Y-90531190D01*
X98754429Y-90531190D01*
X98802048Y-90555000D01*
X98825857Y-90578810D01*
X98849667Y-90626429D01*
X98849667Y-90697857D01*
X98825857Y-90745476D01*
X98802048Y-90769286D01*
X98754429Y-90793095D01*
X98563953Y-90793095D01*
X99278238Y-90697857D02*
X99278238Y-91031190D01*
X99159191Y-90507381D02*
X99040143Y-90864524D01*
X99349667Y-90864524D01*
X99103667Y-104467790D02*
X98937000Y-104229695D01*
X98817953Y-104467790D02*
X98817953Y-103967790D01*
X99008429Y-103967790D01*
X99056048Y-103991600D01*
X99079857Y-104015410D01*
X99103667Y-104063029D01*
X99103667Y-104134457D01*
X99079857Y-104182076D01*
X99056048Y-104205886D01*
X99008429Y-104229695D01*
X98817953Y-104229695D01*
X99556048Y-103967790D02*
X99317953Y-103967790D01*
X99294143Y-104205886D01*
X99317953Y-104182076D01*
X99365572Y-104158267D01*
X99484619Y-104158267D01*
X99532238Y-104182076D01*
X99556048Y-104205886D01*
X99579857Y-104253505D01*
X99579857Y-104372552D01*
X99556048Y-104420171D01*
X99532238Y-104443981D01*
X99484619Y-104467790D01*
X99365572Y-104467790D01*
X99317953Y-104443981D01*
X99294143Y-104420171D01*
X89761190Y-124695733D02*
X89523095Y-124862400D01*
X89761190Y-124981447D02*
X89261190Y-124981447D01*
X89261190Y-124790971D01*
X89285000Y-124743352D01*
X89308810Y-124719543D01*
X89356429Y-124695733D01*
X89427857Y-124695733D01*
X89475476Y-124719543D01*
X89499286Y-124743352D01*
X89523095Y-124790971D01*
X89523095Y-124981447D01*
X89261190Y-124267162D02*
X89261190Y-124362400D01*
X89285000Y-124410019D01*
X89308810Y-124433828D01*
X89380238Y-124481447D01*
X89475476Y-124505257D01*
X89665952Y-124505257D01*
X89713571Y-124481447D01*
X89737381Y-124457638D01*
X89761190Y-124410019D01*
X89761190Y-124314781D01*
X89737381Y-124267162D01*
X89713571Y-124243352D01*
X89665952Y-124219543D01*
X89546905Y-124219543D01*
X89499286Y-124243352D01*
X89475476Y-124267162D01*
X89451667Y-124314781D01*
X89451667Y-124410019D01*
X89475476Y-124457638D01*
X89499286Y-124481447D01*
X89546905Y-124505257D01*
X97198667Y-76680190D02*
X97032000Y-76442095D01*
X96912953Y-76680190D02*
X96912953Y-76180190D01*
X97103429Y-76180190D01*
X97151048Y-76204000D01*
X97174857Y-76227810D01*
X97198667Y-76275429D01*
X97198667Y-76346857D01*
X97174857Y-76394476D01*
X97151048Y-76418286D01*
X97103429Y-76442095D01*
X96912953Y-76442095D01*
X97365334Y-76180190D02*
X97698667Y-76180190D01*
X97484381Y-76680190D01*
X105199667Y-67307590D02*
X105033000Y-67069495D01*
X104913953Y-67307590D02*
X104913953Y-66807590D01*
X105104429Y-66807590D01*
X105152048Y-66831400D01*
X105175857Y-66855210D01*
X105199667Y-66902829D01*
X105199667Y-66974257D01*
X105175857Y-67021876D01*
X105152048Y-67045686D01*
X105104429Y-67069495D01*
X104913953Y-67069495D01*
X105485381Y-67021876D02*
X105437762Y-66998067D01*
X105413953Y-66974257D01*
X105390143Y-66926638D01*
X105390143Y-66902829D01*
X105413953Y-66855210D01*
X105437762Y-66831400D01*
X105485381Y-66807590D01*
X105580619Y-66807590D01*
X105628238Y-66831400D01*
X105652048Y-66855210D01*
X105675857Y-66902829D01*
X105675857Y-66926638D01*
X105652048Y-66974257D01*
X105628238Y-66998067D01*
X105580619Y-67021876D01*
X105485381Y-67021876D01*
X105437762Y-67045686D01*
X105413953Y-67069495D01*
X105390143Y-67117114D01*
X105390143Y-67212352D01*
X105413953Y-67259971D01*
X105437762Y-67283781D01*
X105485381Y-67307590D01*
X105580619Y-67307590D01*
X105628238Y-67283781D01*
X105652048Y-67259971D01*
X105675857Y-67212352D01*
X105675857Y-67117114D01*
X105652048Y-67069495D01*
X105628238Y-67045686D01*
X105580619Y-67021876D01*
X93190190Y-55658533D02*
X92952095Y-55825200D01*
X93190190Y-55944247D02*
X92690190Y-55944247D01*
X92690190Y-55753771D01*
X92714000Y-55706152D01*
X92737810Y-55682343D01*
X92785429Y-55658533D01*
X92856857Y-55658533D01*
X92904476Y-55682343D01*
X92928286Y-55706152D01*
X92952095Y-55753771D01*
X92952095Y-55944247D01*
X93190190Y-55420438D02*
X93190190Y-55325200D01*
X93166381Y-55277581D01*
X93142571Y-55253771D01*
X93071143Y-55206152D01*
X92975905Y-55182343D01*
X92785429Y-55182343D01*
X92737810Y-55206152D01*
X92714000Y-55229962D01*
X92690190Y-55277581D01*
X92690190Y-55372819D01*
X92714000Y-55420438D01*
X92737810Y-55444247D01*
X92785429Y-55468057D01*
X92904476Y-55468057D01*
X92952095Y-55444247D01*
X92975905Y-55420438D01*
X92999714Y-55372819D01*
X92999714Y-55277581D01*
X92975905Y-55229962D01*
X92952095Y-55206152D01*
X92904476Y-55182343D01*
X102294572Y-47927390D02*
X102127905Y-47689295D01*
X102008858Y-47927390D02*
X102008858Y-47427390D01*
X102199334Y-47427390D01*
X102246953Y-47451200D01*
X102270762Y-47475010D01*
X102294572Y-47522629D01*
X102294572Y-47594057D01*
X102270762Y-47641676D01*
X102246953Y-47665486D01*
X102199334Y-47689295D01*
X102008858Y-47689295D01*
X102770762Y-47927390D02*
X102485048Y-47927390D01*
X102627905Y-47927390D02*
X102627905Y-47427390D01*
X102580286Y-47498819D01*
X102532667Y-47546438D01*
X102485048Y-47570248D01*
X103080286Y-47427390D02*
X103127905Y-47427390D01*
X103175524Y-47451200D01*
X103199333Y-47475010D01*
X103223143Y-47522629D01*
X103246952Y-47617867D01*
X103246952Y-47736914D01*
X103223143Y-47832152D01*
X103199333Y-47879771D01*
X103175524Y-47903581D01*
X103127905Y-47927390D01*
X103080286Y-47927390D01*
X103032667Y-47903581D01*
X103008857Y-47879771D01*
X102985048Y-47832152D01*
X102961238Y-47736914D01*
X102961238Y-47617867D01*
X102985048Y-47522629D01*
X103008857Y-47475010D01*
X103032667Y-47451200D01*
X103080286Y-47427390D01*
X95690572Y-48105190D02*
X95523905Y-47867095D01*
X95404858Y-48105190D02*
X95404858Y-47605190D01*
X95595334Y-47605190D01*
X95642953Y-47629000D01*
X95666762Y-47652810D01*
X95690572Y-47700429D01*
X95690572Y-47771857D01*
X95666762Y-47819476D01*
X95642953Y-47843286D01*
X95595334Y-47867095D01*
X95404858Y-47867095D01*
X96166762Y-48105190D02*
X95881048Y-48105190D01*
X96023905Y-48105190D02*
X96023905Y-47605190D01*
X95976286Y-47676619D01*
X95928667Y-47724238D01*
X95881048Y-47748048D01*
X96642952Y-48105190D02*
X96357238Y-48105190D01*
X96500095Y-48105190D02*
X96500095Y-47605190D01*
X96452476Y-47676619D01*
X96404857Y-47724238D01*
X96357238Y-47748048D01*
X106637972Y-45082590D02*
X106471305Y-44844495D01*
X106352258Y-45082590D02*
X106352258Y-44582590D01*
X106542734Y-44582590D01*
X106590353Y-44606400D01*
X106614162Y-44630210D01*
X106637972Y-44677829D01*
X106637972Y-44749257D01*
X106614162Y-44796876D01*
X106590353Y-44820686D01*
X106542734Y-44844495D01*
X106352258Y-44844495D01*
X107114162Y-45082590D02*
X106828448Y-45082590D01*
X106971305Y-45082590D02*
X106971305Y-44582590D01*
X106923686Y-44654019D01*
X106876067Y-44701638D01*
X106828448Y-44725448D01*
X107304638Y-44630210D02*
X107328448Y-44606400D01*
X107376067Y-44582590D01*
X107495114Y-44582590D01*
X107542733Y-44606400D01*
X107566543Y-44630210D01*
X107590352Y-44677829D01*
X107590352Y-44725448D01*
X107566543Y-44796876D01*
X107280829Y-45082590D01*
X107590352Y-45082590D01*
X104732972Y-62456190D02*
X104566305Y-62218095D01*
X104447258Y-62456190D02*
X104447258Y-61956190D01*
X104637734Y-61956190D01*
X104685353Y-61980000D01*
X104709162Y-62003810D01*
X104732972Y-62051429D01*
X104732972Y-62122857D01*
X104709162Y-62170476D01*
X104685353Y-62194286D01*
X104637734Y-62218095D01*
X104447258Y-62218095D01*
X105209162Y-62456190D02*
X104923448Y-62456190D01*
X105066305Y-62456190D02*
X105066305Y-61956190D01*
X105018686Y-62027619D01*
X104971067Y-62075238D01*
X104923448Y-62099048D01*
X105375829Y-61956190D02*
X105685352Y-61956190D01*
X105518686Y-62146667D01*
X105590114Y-62146667D01*
X105637733Y-62170476D01*
X105661543Y-62194286D01*
X105685352Y-62241905D01*
X105685352Y-62360952D01*
X105661543Y-62408571D01*
X105637733Y-62432381D01*
X105590114Y-62456190D01*
X105447257Y-62456190D01*
X105399638Y-62432381D01*
X105375829Y-62408571D01*
X103081972Y-45107990D02*
X102915305Y-44869895D01*
X102796258Y-45107990D02*
X102796258Y-44607990D01*
X102986734Y-44607990D01*
X103034353Y-44631800D01*
X103058162Y-44655610D01*
X103081972Y-44703229D01*
X103081972Y-44774657D01*
X103058162Y-44822276D01*
X103034353Y-44846086D01*
X102986734Y-44869895D01*
X102796258Y-44869895D01*
X103558162Y-45107990D02*
X103272448Y-45107990D01*
X103415305Y-45107990D02*
X103415305Y-44607990D01*
X103367686Y-44679419D01*
X103320067Y-44727038D01*
X103272448Y-44750848D01*
X103986733Y-44774657D02*
X103986733Y-45107990D01*
X103867686Y-44584181D02*
X103748638Y-44941324D01*
X104058162Y-44941324D01*
X105483790Y-54271028D02*
X105245695Y-54437695D01*
X105483790Y-54556742D02*
X104983790Y-54556742D01*
X104983790Y-54366266D01*
X105007600Y-54318647D01*
X105031410Y-54294838D01*
X105079029Y-54271028D01*
X105150457Y-54271028D01*
X105198076Y-54294838D01*
X105221886Y-54318647D01*
X105245695Y-54366266D01*
X105245695Y-54556742D01*
X105483790Y-53794838D02*
X105483790Y-54080552D01*
X105483790Y-53937695D02*
X104983790Y-53937695D01*
X105055219Y-53985314D01*
X105102838Y-54032933D01*
X105126648Y-54080552D01*
X104983790Y-53342457D02*
X104983790Y-53580552D01*
X105221886Y-53604362D01*
X105198076Y-53580552D01*
X105174267Y-53532933D01*
X105174267Y-53413886D01*
X105198076Y-53366267D01*
X105221886Y-53342457D01*
X105269505Y-53318648D01*
X105388552Y-53318648D01*
X105436171Y-53342457D01*
X105459981Y-53366267D01*
X105483790Y-53413886D01*
X105483790Y-53532933D01*
X105459981Y-53580552D01*
X105436171Y-53604362D01*
X111382940Y-67002778D02*
X111144845Y-67169445D01*
X111382940Y-67288492D02*
X110882940Y-67288492D01*
X110882940Y-67098016D01*
X110906750Y-67050397D01*
X110930560Y-67026588D01*
X110978179Y-67002778D01*
X111049607Y-67002778D01*
X111097226Y-67026588D01*
X111121036Y-67050397D01*
X111144845Y-67098016D01*
X111144845Y-67288492D01*
X111382940Y-66526588D02*
X111382940Y-66812302D01*
X111382940Y-66669445D02*
X110882940Y-66669445D01*
X110954369Y-66717064D01*
X111001988Y-66764683D01*
X111025798Y-66812302D01*
X110882940Y-66098017D02*
X110882940Y-66193255D01*
X110906750Y-66240874D01*
X110930560Y-66264683D01*
X111001988Y-66312302D01*
X111097226Y-66336112D01*
X111287702Y-66336112D01*
X111335321Y-66312302D01*
X111359131Y-66288493D01*
X111382940Y-66240874D01*
X111382940Y-66145636D01*
X111359131Y-66098017D01*
X111335321Y-66074207D01*
X111287702Y-66050398D01*
X111168655Y-66050398D01*
X111121036Y-66074207D01*
X111097226Y-66098017D01*
X111073417Y-66145636D01*
X111073417Y-66240874D01*
X111097226Y-66288493D01*
X111121036Y-66312302D01*
X111168655Y-66336112D01*
X93429972Y-47063790D02*
X93263305Y-46825695D01*
X93144258Y-47063790D02*
X93144258Y-46563790D01*
X93334734Y-46563790D01*
X93382353Y-46587600D01*
X93406162Y-46611410D01*
X93429972Y-46659029D01*
X93429972Y-46730457D01*
X93406162Y-46778076D01*
X93382353Y-46801886D01*
X93334734Y-46825695D01*
X93144258Y-46825695D01*
X93906162Y-47063790D02*
X93620448Y-47063790D01*
X93763305Y-47063790D02*
X93763305Y-46563790D01*
X93715686Y-46635219D01*
X93668067Y-46682838D01*
X93620448Y-46706648D01*
X94072829Y-46563790D02*
X94406162Y-46563790D01*
X94191876Y-47063790D01*
X104815522Y-59592340D02*
X104648855Y-59354245D01*
X104529808Y-59592340D02*
X104529808Y-59092340D01*
X104720284Y-59092340D01*
X104767903Y-59116150D01*
X104791712Y-59139960D01*
X104815522Y-59187579D01*
X104815522Y-59259007D01*
X104791712Y-59306626D01*
X104767903Y-59330436D01*
X104720284Y-59354245D01*
X104529808Y-59354245D01*
X105291712Y-59592340D02*
X105005998Y-59592340D01*
X105148855Y-59592340D02*
X105148855Y-59092340D01*
X105101236Y-59163769D01*
X105053617Y-59211388D01*
X105005998Y-59235198D01*
X105577426Y-59306626D02*
X105529807Y-59282817D01*
X105505998Y-59259007D01*
X105482188Y-59211388D01*
X105482188Y-59187579D01*
X105505998Y-59139960D01*
X105529807Y-59116150D01*
X105577426Y-59092340D01*
X105672664Y-59092340D01*
X105720283Y-59116150D01*
X105744093Y-59139960D01*
X105767902Y-59187579D01*
X105767902Y-59211388D01*
X105744093Y-59259007D01*
X105720283Y-59282817D01*
X105672664Y-59306626D01*
X105577426Y-59306626D01*
X105529807Y-59330436D01*
X105505998Y-59354245D01*
X105482188Y-59401864D01*
X105482188Y-59497102D01*
X105505998Y-59544721D01*
X105529807Y-59568531D01*
X105577426Y-59592340D01*
X105672664Y-59592340D01*
X105720283Y-59568531D01*
X105744093Y-59544721D01*
X105767902Y-59497102D01*
X105767902Y-59401864D01*
X105744093Y-59354245D01*
X105720283Y-59330436D01*
X105672664Y-59306626D01*
X102442140Y-54404378D02*
X102204045Y-54571045D01*
X102442140Y-54690092D02*
X101942140Y-54690092D01*
X101942140Y-54499616D01*
X101965950Y-54451997D01*
X101989760Y-54428188D01*
X102037379Y-54404378D01*
X102108807Y-54404378D01*
X102156426Y-54428188D01*
X102180236Y-54451997D01*
X102204045Y-54499616D01*
X102204045Y-54690092D01*
X102442140Y-53928188D02*
X102442140Y-54213902D01*
X102442140Y-54071045D02*
X101942140Y-54071045D01*
X102013569Y-54118664D01*
X102061188Y-54166283D01*
X102084998Y-54213902D01*
X102442140Y-53690093D02*
X102442140Y-53594855D01*
X102418331Y-53547236D01*
X102394521Y-53523426D01*
X102323093Y-53475807D01*
X102227855Y-53451998D01*
X102037379Y-53451998D01*
X101989760Y-53475807D01*
X101965950Y-53499617D01*
X101942140Y-53547236D01*
X101942140Y-53642474D01*
X101965950Y-53690093D01*
X101989760Y-53713902D01*
X102037379Y-53737712D01*
X102156426Y-53737712D01*
X102204045Y-53713902D01*
X102227855Y-53690093D01*
X102251664Y-53642474D01*
X102251664Y-53547236D01*
X102227855Y-53499617D01*
X102204045Y-53475807D01*
X102156426Y-53451998D01*
X98052772Y-52385090D02*
X97886105Y-52146995D01*
X97767058Y-52385090D02*
X97767058Y-51885090D01*
X97957534Y-51885090D01*
X98005153Y-51908900D01*
X98028962Y-51932710D01*
X98052772Y-51980329D01*
X98052772Y-52051757D01*
X98028962Y-52099376D01*
X98005153Y-52123186D01*
X97957534Y-52146995D01*
X97767058Y-52146995D01*
X98243248Y-51932710D02*
X98267058Y-51908900D01*
X98314677Y-51885090D01*
X98433724Y-51885090D01*
X98481343Y-51908900D01*
X98505153Y-51932710D01*
X98528962Y-51980329D01*
X98528962Y-52027948D01*
X98505153Y-52099376D01*
X98219439Y-52385090D01*
X98528962Y-52385090D01*
X98838486Y-51885090D02*
X98886105Y-51885090D01*
X98933724Y-51908900D01*
X98957533Y-51932710D01*
X98981343Y-51980329D01*
X99005152Y-52075567D01*
X99005152Y-52194614D01*
X98981343Y-52289852D01*
X98957533Y-52337471D01*
X98933724Y-52361281D01*
X98886105Y-52385090D01*
X98838486Y-52385090D01*
X98790867Y-52361281D01*
X98767057Y-52337471D01*
X98743248Y-52289852D01*
X98719438Y-52194614D01*
X98719438Y-52075567D01*
X98743248Y-51980329D01*
X98767057Y-51932710D01*
X98790867Y-51908900D01*
X98838486Y-51885090D01*
X92688540Y-58417578D02*
X92450445Y-58584245D01*
X92688540Y-58703292D02*
X92188540Y-58703292D01*
X92188540Y-58512816D01*
X92212350Y-58465197D01*
X92236160Y-58441388D01*
X92283779Y-58417578D01*
X92355207Y-58417578D01*
X92402826Y-58441388D01*
X92426636Y-58465197D01*
X92450445Y-58512816D01*
X92450445Y-58703292D01*
X92236160Y-58227102D02*
X92212350Y-58203292D01*
X92188540Y-58155673D01*
X92188540Y-58036626D01*
X92212350Y-57989007D01*
X92236160Y-57965197D01*
X92283779Y-57941388D01*
X92331398Y-57941388D01*
X92402826Y-57965197D01*
X92688540Y-58250911D01*
X92688540Y-57941388D01*
X92688540Y-57465198D02*
X92688540Y-57750912D01*
X92688540Y-57608055D02*
X92188540Y-57608055D01*
X92259969Y-57655674D01*
X92307588Y-57703293D01*
X92331398Y-57750912D01*
X92663140Y-64208778D02*
X92425045Y-64375445D01*
X92663140Y-64494492D02*
X92163140Y-64494492D01*
X92163140Y-64304016D01*
X92186950Y-64256397D01*
X92210760Y-64232588D01*
X92258379Y-64208778D01*
X92329807Y-64208778D01*
X92377426Y-64232588D01*
X92401236Y-64256397D01*
X92425045Y-64304016D01*
X92425045Y-64494492D01*
X92210760Y-64018302D02*
X92186950Y-63994492D01*
X92163140Y-63946873D01*
X92163140Y-63827826D01*
X92186950Y-63780207D01*
X92210760Y-63756397D01*
X92258379Y-63732588D01*
X92305998Y-63732588D01*
X92377426Y-63756397D01*
X92663140Y-64042111D01*
X92663140Y-63732588D01*
X92210760Y-63542112D02*
X92186950Y-63518302D01*
X92163140Y-63470683D01*
X92163140Y-63351636D01*
X92186950Y-63304017D01*
X92210760Y-63280207D01*
X92258379Y-63256398D01*
X92305998Y-63256398D01*
X92377426Y-63280207D01*
X92663140Y-63565921D01*
X92663140Y-63256398D01*
X82031722Y-66678940D02*
X81865055Y-66440845D01*
X81746008Y-66678940D02*
X81746008Y-66178940D01*
X81936484Y-66178940D01*
X81984103Y-66202750D01*
X82007912Y-66226560D01*
X82031722Y-66274179D01*
X82031722Y-66345607D01*
X82007912Y-66393226D01*
X81984103Y-66417036D01*
X81936484Y-66440845D01*
X81746008Y-66440845D01*
X82222198Y-66226560D02*
X82246008Y-66202750D01*
X82293627Y-66178940D01*
X82412674Y-66178940D01*
X82460293Y-66202750D01*
X82484103Y-66226560D01*
X82507912Y-66274179D01*
X82507912Y-66321798D01*
X82484103Y-66393226D01*
X82198389Y-66678940D01*
X82507912Y-66678940D01*
X82674579Y-66178940D02*
X82984102Y-66178940D01*
X82817436Y-66369417D01*
X82888864Y-66369417D01*
X82936483Y-66393226D01*
X82960293Y-66417036D01*
X82984102Y-66464655D01*
X82984102Y-66583702D01*
X82960293Y-66631321D01*
X82936483Y-66655131D01*
X82888864Y-66678940D01*
X82746007Y-66678940D01*
X82698388Y-66655131D01*
X82674579Y-66631321D01*
X82107922Y-63707140D02*
X81941255Y-63469045D01*
X81822208Y-63707140D02*
X81822208Y-63207140D01*
X82012684Y-63207140D01*
X82060303Y-63230950D01*
X82084112Y-63254760D01*
X82107922Y-63302379D01*
X82107922Y-63373807D01*
X82084112Y-63421426D01*
X82060303Y-63445236D01*
X82012684Y-63469045D01*
X81822208Y-63469045D01*
X82298398Y-63254760D02*
X82322208Y-63230950D01*
X82369827Y-63207140D01*
X82488874Y-63207140D01*
X82536493Y-63230950D01*
X82560303Y-63254760D01*
X82584112Y-63302379D01*
X82584112Y-63349998D01*
X82560303Y-63421426D01*
X82274589Y-63707140D01*
X82584112Y-63707140D01*
X83012683Y-63373807D02*
X83012683Y-63707140D01*
X82893636Y-63183331D02*
X82774588Y-63540474D01*
X83084112Y-63540474D01*
X82101572Y-59281190D02*
X81934905Y-59043095D01*
X81815858Y-59281190D02*
X81815858Y-58781190D01*
X82006334Y-58781190D01*
X82053953Y-58805000D01*
X82077762Y-58828810D01*
X82101572Y-58876429D01*
X82101572Y-58947857D01*
X82077762Y-58995476D01*
X82053953Y-59019286D01*
X82006334Y-59043095D01*
X81815858Y-59043095D01*
X82292048Y-58828810D02*
X82315858Y-58805000D01*
X82363477Y-58781190D01*
X82482524Y-58781190D01*
X82530143Y-58805000D01*
X82553953Y-58828810D01*
X82577762Y-58876429D01*
X82577762Y-58924048D01*
X82553953Y-58995476D01*
X82268239Y-59281190D01*
X82577762Y-59281190D01*
X83030143Y-58781190D02*
X82792048Y-58781190D01*
X82768238Y-59019286D01*
X82792048Y-58995476D01*
X82839667Y-58971667D01*
X82958714Y-58971667D01*
X83006333Y-58995476D01*
X83030143Y-59019286D01*
X83053952Y-59066905D01*
X83053952Y-59185952D01*
X83030143Y-59233571D01*
X83006333Y-59257381D01*
X82958714Y-59281190D01*
X82839667Y-59281190D01*
X82792048Y-59257381D01*
X82768238Y-59233571D01*
X100072072Y-71790690D02*
X99905405Y-71552595D01*
X99786358Y-71790690D02*
X99786358Y-71290690D01*
X99976834Y-71290690D01*
X100024453Y-71314500D01*
X100048262Y-71338310D01*
X100072072Y-71385929D01*
X100072072Y-71457357D01*
X100048262Y-71504976D01*
X100024453Y-71528786D01*
X99976834Y-71552595D01*
X99786358Y-71552595D01*
X100262548Y-71338310D02*
X100286358Y-71314500D01*
X100333977Y-71290690D01*
X100453024Y-71290690D01*
X100500643Y-71314500D01*
X100524453Y-71338310D01*
X100548262Y-71385929D01*
X100548262Y-71433548D01*
X100524453Y-71504976D01*
X100238739Y-71790690D01*
X100548262Y-71790690D01*
X100976833Y-71290690D02*
X100881595Y-71290690D01*
X100833976Y-71314500D01*
X100810167Y-71338310D01*
X100762548Y-71409738D01*
X100738738Y-71504976D01*
X100738738Y-71695452D01*
X100762548Y-71743071D01*
X100786357Y-71766881D01*
X100833976Y-71790690D01*
X100929214Y-71790690D01*
X100976833Y-71766881D01*
X101000643Y-71743071D01*
X101024452Y-71695452D01*
X101024452Y-71576405D01*
X101000643Y-71528786D01*
X100976833Y-71504976D01*
X100929214Y-71481167D01*
X100833976Y-71481167D01*
X100786357Y-71504976D01*
X100762548Y-71528786D01*
X100738738Y-71576405D01*
X96111190Y-41088428D02*
X95873095Y-41255095D01*
X96111190Y-41374142D02*
X95611190Y-41374142D01*
X95611190Y-41183666D01*
X95635000Y-41136047D01*
X95658810Y-41112238D01*
X95706429Y-41088428D01*
X95777857Y-41088428D01*
X95825476Y-41112238D01*
X95849286Y-41136047D01*
X95873095Y-41183666D01*
X95873095Y-41374142D01*
X95658810Y-40897952D02*
X95635000Y-40874142D01*
X95611190Y-40826523D01*
X95611190Y-40707476D01*
X95635000Y-40659857D01*
X95658810Y-40636047D01*
X95706429Y-40612238D01*
X95754048Y-40612238D01*
X95825476Y-40636047D01*
X96111190Y-40921761D01*
X96111190Y-40612238D01*
X95611190Y-40445571D02*
X95611190Y-40112238D01*
X96111190Y-40326524D01*
X112581572Y-73759190D02*
X112414905Y-73521095D01*
X112295858Y-73759190D02*
X112295858Y-73259190D01*
X112486334Y-73259190D01*
X112533953Y-73283000D01*
X112557762Y-73306810D01*
X112581572Y-73354429D01*
X112581572Y-73425857D01*
X112557762Y-73473476D01*
X112533953Y-73497286D01*
X112486334Y-73521095D01*
X112295858Y-73521095D01*
X112772048Y-73306810D02*
X112795858Y-73283000D01*
X112843477Y-73259190D01*
X112962524Y-73259190D01*
X113010143Y-73283000D01*
X113033953Y-73306810D01*
X113057762Y-73354429D01*
X113057762Y-73402048D01*
X113033953Y-73473476D01*
X112748239Y-73759190D01*
X113057762Y-73759190D01*
X113343476Y-73473476D02*
X113295857Y-73449667D01*
X113272048Y-73425857D01*
X113248238Y-73378238D01*
X113248238Y-73354429D01*
X113272048Y-73306810D01*
X113295857Y-73283000D01*
X113343476Y-73259190D01*
X113438714Y-73259190D01*
X113486333Y-73283000D01*
X113510143Y-73306810D01*
X113533952Y-73354429D01*
X113533952Y-73378238D01*
X113510143Y-73425857D01*
X113486333Y-73449667D01*
X113438714Y-73473476D01*
X113343476Y-73473476D01*
X113295857Y-73497286D01*
X113272048Y-73521095D01*
X113248238Y-73568714D01*
X113248238Y-73663952D01*
X113272048Y-73711571D01*
X113295857Y-73735381D01*
X113343476Y-73759190D01*
X113438714Y-73759190D01*
X113486333Y-73735381D01*
X113510143Y-73711571D01*
X113533952Y-73663952D01*
X113533952Y-73568714D01*
X113510143Y-73521095D01*
X113486333Y-73497286D01*
X113438714Y-73473476D01*
X81788048Y-102723190D02*
X81788048Y-103127952D01*
X81811857Y-103175571D01*
X81835667Y-103199381D01*
X81883286Y-103223190D01*
X81978524Y-103223190D01*
X82026143Y-103199381D01*
X82049952Y-103175571D01*
X82073762Y-103127952D01*
X82073762Y-102723190D01*
X82573762Y-103223190D02*
X82288048Y-103223190D01*
X82430905Y-103223190D02*
X82430905Y-102723190D01*
X82383286Y-102794619D01*
X82335667Y-102842238D01*
X82288048Y-102866048D01*
X108712048Y-101961190D02*
X108712048Y-102365952D01*
X108735857Y-102413571D01*
X108759667Y-102437381D01*
X108807286Y-102461190D01*
X108902524Y-102461190D01*
X108950143Y-102437381D01*
X108973952Y-102413571D01*
X108997762Y-102365952D01*
X108997762Y-101961190D01*
X109212048Y-102008810D02*
X109235858Y-101985000D01*
X109283477Y-101961190D01*
X109402524Y-101961190D01*
X109450143Y-101985000D01*
X109473953Y-102008810D01*
X109497762Y-102056429D01*
X109497762Y-102104048D01*
X109473953Y-102175476D01*
X109188239Y-102461190D01*
X109497762Y-102461190D01*
X97174098Y-60768740D02*
X97174098Y-61173502D01*
X97197907Y-61221121D01*
X97221717Y-61244931D01*
X97269336Y-61268740D01*
X97364574Y-61268740D01*
X97412193Y-61244931D01*
X97436002Y-61221121D01*
X97459812Y-61173502D01*
X97459812Y-60768740D01*
X97650289Y-60768740D02*
X97959812Y-60768740D01*
X97793146Y-60959217D01*
X97864574Y-60959217D01*
X97912193Y-60983026D01*
X97936003Y-61006836D01*
X97959812Y-61054455D01*
X97959812Y-61173502D01*
X97936003Y-61221121D01*
X97912193Y-61244931D01*
X97864574Y-61268740D01*
X97721717Y-61268740D01*
X97674098Y-61244931D01*
X97650289Y-61221121D01*
X102387448Y-36518090D02*
X102387448Y-36922852D01*
X102411257Y-36970471D01*
X102435067Y-36994281D01*
X102482686Y-37018090D01*
X102577924Y-37018090D01*
X102625543Y-36994281D01*
X102649352Y-36970471D01*
X102673162Y-36922852D01*
X102673162Y-36518090D01*
X103125543Y-36684757D02*
X103125543Y-37018090D01*
X103006496Y-36494281D02*
X102887448Y-36851424D01*
X103196972Y-36851424D01*
X106344690Y-138348880D02*
X106344690Y-138586975D01*
X105844690Y-138586975D01*
X106082786Y-138182213D02*
X106082786Y-138015547D01*
X106344690Y-137944118D02*
X106344690Y-138182213D01*
X105844690Y-138182213D01*
X105844690Y-137944118D01*
X105844690Y-137801261D02*
X106344690Y-137634594D01*
X105844690Y-137467928D01*
X106082786Y-137301261D02*
X106082786Y-137134595D01*
X106344690Y-137063166D02*
X106344690Y-137301261D01*
X105844690Y-137301261D01*
X105844690Y-137063166D01*
X106344690Y-136610785D02*
X106344690Y-136848880D01*
X105844690Y-136848880D01*
X106344690Y-136182214D02*
X106344690Y-136467928D01*
X106344690Y-136325071D02*
X105844690Y-136325071D01*
X105916119Y-136372690D01*
X105963738Y-136420309D01*
X105987548Y-136467928D01*
M02*
