G04 #@! TF.FileFunction,Profile,NP*
%FSLAX46Y46*%
G04 Gerber Fmt 4.6, Leading zero omitted, Abs format (unit mm)*
G04 Created by KiCad (PCBNEW 4.0.7) date 03/28/18 20:32:25*
%MOMM*%
%LPD*%
G01*
G04 APERTURE LIST*
%ADD10C,0.100000*%
%ADD11C,0.150000*%
G04 APERTURE END LIST*
D10*
D11*
X79832200Y-128727200D02*
X79832200Y-128447800D01*
X80340200Y-128727200D02*
X79222600Y-128727200D01*
X124720200Y-130172500D02*
X124364600Y-130172500D01*
X124720200Y-166240500D02*
X124720200Y-130172500D01*
X124339200Y-166240500D02*
X124720200Y-166240500D01*
X72701000Y-130172500D02*
X124517000Y-130172500D01*
X72701000Y-166240500D02*
X72701000Y-130172500D01*
X72701000Y-166240500D02*
X124517000Y-166240500D01*
X117932200Y-121742200D02*
X124917200Y-121742200D01*
X117932200Y-128727200D02*
X117932200Y-121742200D01*
X79832200Y-121742200D02*
X72847200Y-121742200D01*
X79832200Y-128727200D02*
X79832200Y-121742200D01*
X79832200Y-31699200D02*
X72847200Y-31699200D01*
X79832200Y-24714200D02*
X79832200Y-31699200D01*
X117932200Y-31699200D02*
X117932200Y-24714200D01*
X124917200Y-31699200D02*
X117932200Y-31699200D01*
X124917200Y-24714200D02*
X72847200Y-24714200D01*
X124917200Y-128727200D02*
X124917200Y-24714200D01*
X72847200Y-128727200D02*
X124917200Y-128727200D01*
X72847200Y-24714200D02*
X72847200Y-128727200D01*
M02*
